0
SECTION
2
HEADER
9
$INSUNITS
70
4
9
$ACADVER
1
AC1014
9
$HANDSEED
5
FFFF
0
ENDSEC
0
SECTION
2
TABLES
0
TABLE
2
VPORT
5
8
100
AcDbSymbolTable
0
ENDTAB
0
TABLE
2
LTYPE
5
5
100
AcDbSymbolTable
0
LTYPE
5
14
100
AcDbSymbolTableRecord
100
AcDbLinetypeTableRecord
2
BYBLOCK
70
0
0
LTYPE
5
15
100
AcDbSymbolTableRecord
100
AcDbLinetypeTableRecord
2
BYLAYER
70
0
0
LTYPE
5
16
100
AcDbSymbolTableRecord
100
AcDbLinetypeTableRecord
2
DASHED
70
0
3
Dashed __ __ __ __ __ __ __ __ __ __ __ __ __ _
72
65
73
2
40
0.75
49
0.5
74
0
49
-0.25
74
0
0
ENDTAB
0
TABLE
2
LAYER
5
2
100
AcDbSymbolTable
70
2
0
LAYER
5
50
100
AcDbSymbolTableRecord
100
AcDbLayerTableRecord
2
0
70
0
62
7
6
CONTINUOUS
0
ENDTAB
0
TABLE
2
STYLE
5
3
100
AcDbSymbolTable
70
1
0
STYLE
5
11
100
AcDbSymbolTableRecord
100
AcDbTextStyleTableRecord
2
STANDARD
70
0
0
ENDTAB
0
TABLE
2
VIEW
5
6
100
AcDbSymbolTable
70
0
0
ENDTAB
0
TABLE
2
UCS
5
7
100
AcDbSymbolTable
70
0
0
ENDTAB
0
TABLE
2
APPID
5
9
100
AcDbSymbolTable
70
2
0
APPID
5
12
100
AcDbSymbolTableRecord
100
AcDbRegAppTableRecord
2
ACAD
70
0
0
ENDTAB
0
TABLE
2
DIMSTYLE
5
A
100
AcDbSymbolTable
70
1
0
ENDTAB
0
TABLE
2
BLOCK_RECORD
5
1
100
AcDbSymbolTable
70
1
0
BLOCK_RECORD
5
1F
100
AcDbSymbolTableRecord
100
AcDbBlockTableRecord
2
*MODEL_SPACE
0
BLOCK_RECORD
5
1B
100
AcDbSymbolTableRecord
100
AcDbBlockTableRecord
2
*PAPER_SPACE
0
ENDTAB
0
ENDSEC
0
SECTION
2
BLOCKS
0
BLOCK
5
20
100
AcDbEntity
100
AcDbBlockBegin
2
*MODEL_SPACE
0
ENDBLK
5
21
100
AcDbEntity
100
AcDbBlockEnd
0
BLOCK
5
1C
100
AcDbEntity
100
AcDbBlockBegin
2
*PAPER_SPACE
0
ENDBLK
5
1D
100
AcDbEntity
100
AcDbBlockEnd
0
ENDSEC
0
SECTION
2
ENTITIES
0
POINT
5
100
100
AcDbEntity
8
0
100
AcDbPoint
10
63.701012560879306
20
-74.449743438912321
30
0
0
POINT
5
101
100
AcDbEntity
8
0
100
AcDbPoint
10
63.701012560879306
20
-74.449743438912321
30
0
0
POINT
5
102
100
AcDbEntity
8
0
100
AcDbPoint
10
63.701012560879306
20
-74.449743438912321
30
0
0
LWPOLYLINE
5
103
100
AcDbEntity
8
0
100
AcDbPolyline
90
4
70
1
43
0.0
10
148.0920147935912
20
-73.56620430993938
10
162.29201479359119
20
-73.56620430993938
10
162.29201479359119
20
-87.766204309939368
10
148.0920147935912
20
-87.766204309939368
0
LINE
5
104
100
AcDbEntity
8
0
100
AcDbLine
10
145.69201448439208
20
-71.166204619138483
30
0
11
164.69201448439208
21
-71.166204619138483
31
0
6
DASHED
0
LINE
5
105
100
AcDbEntity
8
0
100
AcDbLine
10
164.69201448439208
20
-71.166204619138483
30
0
11
164.69201448439208
21
-90.166204619138469
31
0
6
DASHED
0
LINE
5
106
100
AcDbEntity
8
0
100
AcDbLine
10
164.69201448439208
20
-90.166204619138469
30
0
11
145.69201448439208
21
-90.166204619138469
31
0
6
DASHED
0
LINE
5
107
100
AcDbEntity
8
0
100
AcDbLine
10
145.69201448439208
20
-90.166204619138469
30
0
11
145.69201448439208
21
-71.166204619138483
31
0
6
DASHED
0
LWPOLYLINE
5
108
100
AcDbEntity
8
0
100
AcDbPolyline
90
4
70
1
43
0.0
10
33.963042888316664
20
14.341899687690772
10
35.722872167943009
20
0.25137092165186348
10
49.813400933981939
20
2.0112002012782613
10
48.053571654355586
20
16.101728967317086
0
LINE
5
109
100
AcDbEntity
8
0
100
AcDbLine
10
31.227811136686071
20
16.24341917435169
30
0
11
33.707808788867034
21
-2.5940331917506909
31
0
6
DASHED
0
LINE
5
110
100
AcDbEntity
8
0
100
AcDbLine
10
33.707808788867034
20
-2.5940331917506909
30
0
11
52.545261154969666
21
-0.11403553956966593
31
0
6
DASHED
0
LINE
5
111
100
AcDbEntity
8
0
100
AcDbLine
10
52.545261154969666
20
-0.11403553956966593
30
0
11
50.065263502788468
21
18.723416826532649
31
0
6
DASHED
0
LINE
5
112
100
AcDbEntity
8
0
100
AcDbLine
10
50.065263502788468
20
18.723416826532649
30
0
11
31.227811136686071
21
16.24341917435169
31
0
6
DASHED
0
LWPOLYLINE
5
113
100
AcDbEntity
8
0
100
AcDbPolyline
90
4
70
1
43
0.0
10
50.804596351643511
20
-3.0109882573950624
10
54.239887269158793
20
-16.789187570514244
10
40.461687956039626
20
-20.224478488029529
10
37.026397038524358
20
-6.4462791749103419
0
LINE
5
114
100
AcDbEntity
8
0
100
AcDbLine
10
38.728809348140551
20
-23.140522832593522
30
0
11
34.132293331746865
21
-4.7049040333495853
31
0
6
DASHED
0
LINE
5
115
100
AcDbEntity
8
0
100
AcDbLine
10
52.545261154969666
20
-0.11403553956966593
30
0
11
57.141777171363294
21
-18.549654338813596
31
0
6
DASHED
0
LINE
5
116
100
AcDbEntity
8
0
100
AcDbLine
10
34.132293331746865
20
-4.7049040333495853
30
0
11
52.545261154969666
21
-0.11403553956966593
31
0
6
DASHED
0
LINE
5
117
100
AcDbEntity
8
0
100
AcDbLine
10
57.141777171363294
20
-18.549654338813596
30
0
11
38.728809348140551
21
-23.140522832593522
31
0
6
DASHED
0
LINE
5
118
100
AcDbEntity
8
0
100
AcDbLine
10
57.141777171363294
20
-18.549654338813596
30
0
11
63.95076821272697
21
-36.287682442259282
31
0
6
DASHED
0
LINE
5
119
100
AcDbEntity
8
0
100
AcDbLine
10
39.403749067917609
20
-25.358645380177354
30
0
11
57.141777171363294
21
-18.549654338813596
31
0
6
DASHED
0
LINE
5
120
100
AcDbEntity
8
0
100
AcDbLine
10
46.212740109281341
20
-43.096673483623022
30
0
11
39.403749067917609
21
-25.358645380177354
31
0
6
DASHED
0
LWPOLYLINE
5
121
100
AcDbEntity
8
0
100
AcDbPolyline
90
4
70
1
43
0.0
10
60.850092110223883
20
-34.907172497575814
10
47.593250053964276
20
-39.995997381120802
10
42.504425170419267
20
-26.739155324861162
10
55.76126722667891
20
-21.650330441316189
0
LINE
5
122
100
AcDbEntity
8
0
100
AcDbLine
10
63.95076821272697
20
-36.287682442259282
30
0
11
46.212740109281341
21
-43.096673483623022
31
0
6
DASHED
0
LINE
5
123
100
AcDbEntity
8
0
100
AcDbLine
10
1.75
20
0
30
0
11
22.5
21
0
31
0
0
LINE
5
124
100
AcDbEntity
8
0
100
AcDbLine
10
68.566302579428353
20
29.969622836377752
30
0
11
70.222261691632269
21
11.041923572635518
31
0
6
DASHED
0
LWPOLYLINE
5
125
100
AcDbEntity
8
0
100
AcDbPolyline
90
4
70
1
43
0.0
10
66.384609086602623
20
27.369581778363482
10
67.622220633618596
20
13.22361706546056
10
53.476255920715758
20
11.986005518444653
10
52.238644373699742
20
26.131970231347495
0
LINE
5
126
100
AcDbEntity
8
0
100
AcDbLine
10
51.294562427889275
20
9.3859644604303263
30
0
11
49.638603315685074
21
28.313663724173601
31
0
6
DASHED
0
LINE
5
127
100
AcDbEntity
8
0
100
AcDbLine
10
70.222261691632269
20
11.041923572635518
30
0
11
51.294562427889275
21
9.3859644604303263
31
0
6
DASHED
0
LINE
5
128
100
AcDbEntity
8
0
100
AcDbLine
10
49.638603315685074
20
28.313663724173601
30
0
11
68.566302579428353
21
29.969622836377752
31
0
6
DASHED
0
LINE
5
129
100
AcDbEntity
8
0
100
AcDbLine
10
73.969060977436371
20
-7.5849788835405239
30
0
11
55.34215852126021
21
-11.331778169344558
31
0
6
DASHED
0
LINE
5
130
100
AcDbEntity
8
0
100
AcDbLine
10
70.222261691632269
20
11.041923572635518
30
0
11
73.969060977436371
21
-7.5849788835405239
31
0
6
DASHED
0
LWPOLYLINE
5
131
100
AcDbEntity
8
0
100
AcDbPolyline
90
4
70
1
43
0.0
10
57.221750500675526
20
-8.505626370357465
10
54.42151103444295
20
5.4155323074162265
10
68.342669712216704
20
8.2157717736484166
10
71.142909178449258
20
-5.7053869041250547
0
LINE
5
132
100
AcDbEntity
8
0
100
AcDbLine
10
55.34215852126021
20
-11.331778169344558
30
0
11
51.595359235456172
21
7.2951242868315225
31
0
6
DASHED
0
LINE
5
133
100
AcDbEntity
8
0
100
AcDbLine
10
51.595359235456172
20
7.2951242868315225
30
0
11
70.222261691632269
21
11.041923572635518
31
0
6
DASHED
0
LINE
5
134
100
AcDbEntity
8
0
100
AcDbLine
10
62.206479946703496
20
-31.74365615477015
30
0
11
56.008431826454824
21
-13.78302700378879
31
0
6
DASHED
0
LWPOLYLINE
5
135
100
AcDbEntity
8
0
100
AcDbPolyline
90
4
70
1
43
0.0
10
77.115486705529406
20
-24.059808325376881
10
63.692279655848843
20
-28.692033762614884
10
59.060054218610283
20
-15.268826712934086
10
72.483261268291187
20
-10.636601275695874
0
LINE
5
136
100
AcDbEntity
8
0
100
AcDbLine
10
56.008431826454824
20
-13.78302700378879
30
0
11
73.969060977436371
21
-7.5849788835405239
31
0
6
DASHED
0
LINE
5
137
100
AcDbEntity
8
0
100
AcDbLine
10
80.167109097684602
20
-25.545608034522068
30
0
11
62.206479946703496
21
-31.74365615477015
31
0
6
DASHED
0
LINE
5
138
100
AcDbEntity
8
0
100
AcDbLine
10
73.969060977436371
20
-7.5849788835405239
30
0
11
80.167109097684602
21
-25.545608034522068
31
0
6
DASHED
0
LWPOLYLINE
5
139
100
AcDbEntity
8
0
100
AcDbPolyline
90
4
70
1
43
0.0
10
85.271746647249245
20
35.654792120349285
10
86.385865806584718
20
21.498565981338864
10
72.22963966757429
20
20.384446822003426
10
71.115520508238859
20
34.540672961013868
0
LINE
5
140
100
AcDbEntity
8
0
100
AcDbLine
10
70.025339896361515
20
17.803543391297151
30
0
11
68.534617077532516
21
36.744972732226586
31
0
6
DASHED
0
LINE
5
141
100
AcDbEntity
8
0
100
AcDbLine
10
88.966769237290976
20
19.294266210126207
30
0
11
70.025339896361515
21
17.803543391297151
31
0
6
DASHED
0
LINE
5
142
100
AcDbEntity
8
0
100
AcDbLine
10
87.476046418461948
20
38.235695551055649
30
0
11
88.966769237290976
21
19.294266210126207
31
0
6
DASHED
0
LINE
5
143
100
AcDbEntity
8
0
100
AcDbLine
10
68.534617077532516
20
36.744972732226586
30
0
11
87.476046418461948
21
38.235695551055649
31
0
6
DASHED
0
LINE
5
144
100
AcDbEntity
8
0
100
AcDbLine
10
91.802780721250045
20
0.54645609583811605
30
0
11
73.091433414018042
21
-2.7528592798336629
31
0
6
DASHED
0
LWPOLYLINE
5
145
100
AcDbEntity
8
0
100
AcDbPolyline
90
4
70
1
43
0.0
10
86.556682364749747
20
16.477509169440086
10
89.022486487620043
20
2.4932390766665016
10
75.038216394846742
20
0.027434953796201218
10
72.572412271976404
20
14.011705046569574
0
LINE
5
146
100
AcDbEntity
8
0
100
AcDbLine
10
88.503465345578348
20
19.257803403069925
30
0
11
91.802780721250045
21
0.54645609583811605
31
0
6
DASHED
0
LINE
5
147
100
AcDbEntity
8
0
100
AcDbLine
10
69.792118038346374
20
15.958488027398303
30
0
11
88.503465345578348
21
19.257803403069925
31
0
6
DASHED
0
LINE
5
148
100
AcDbEntity
8
0
100
AcDbLine
10
73.091433414018042
20
-2.7528592798336629
30
0
11
69.792118038346374
21
15.958488027398303
31
0
6
DASHED
0
LWPOLYLINE
5
149
100
AcDbEntity
8
0
100
AcDbPolyline
90
4
70
1
43
0.0
10
90.063613534071791
20
-2.5485754871381285
10
94.687442863182582
20
-15.974677018679337
10
81.261341331641376
20
-20.598506347790213
10
76.637512002530542
20
-7.1724048162489931
0
LINE
5
150
100
AcDbEntity
8
0
100
AcDbLine
10
97.738135403011199
20
-17.462384996554892
30
0
11
79.773633353765831
21
-23.649198887618734
31
0
6
DASHED
0
LINE
5
151
100
AcDbEntity
8
0
100
AcDbLine
10
79.773633353765831
20
-23.649198887618734
30
0
11
73.586819462701925
21
-5.6846968383734007
31
0
6
DASHED
0
LINE
5
152
100
AcDbEntity
8
0
100
AcDbLine
10
91.551321511947336
20
0.50211705269043294
30
0
11
97.738135403011199
21
-17.462384996554892
31
0
6
DASHED
0
LINE
5
153
100
AcDbEntity
8
0
100
AcDbLine
10
73.586819462701925
20
-5.6846968383734007
30
0
11
91.551321511947336
21
0.50211705269043294
31
0
6
DASHED
0
LWPOLYLINE
5
154
100
AcDbEntity
8
0
100
AcDbPolyline
90
4
70
1
43
0.0
10
104.70818843436575
20
31.584015492414466
10
106.19249261276636
20
17.461804578185042
10
92.070281698536917
20
15.977500399784248
10
90.585977520136254
20
30.099711314013732
0
LINE
5
155
100
AcDbEntity
8
0
100
AcDbLine
10
106.84417267140694
20
34.221736353140358
30
0
11
108.8302134734917
21
15.325820341143091
31
0
6
DASHED
0
LINE
5
156
100
AcDbEntity
8
0
100
AcDbLine
10
89.93429746149431
20
13.339779539058371
30
0
11
87.948256659409651
21
32.235695551055635
31
0
6
DASHED
0
LINE
5
157
100
AcDbEntity
8
0
100
AcDbLine
10
108.8302134734917
20
15.325820341143091
30
0
11
89.93429746149431
21
13.339779539058371
31
0
6
DASHED
0
LINE
5
158
100
AcDbEntity
8
0
100
AcDbLine
10
87.948256659409651
20
32.235695551055635
30
0
11
106.84417267140694
21
34.221736353140358
31
0
6
DASHED
0
LINE
5
159
100
AcDbEntity
8
0
100
AcDbLine
10
112.7411408980272
20
-3.2257833739267756
30
0
11
94.2273665792424
21
-7.496633461802066
31
0
6
DASHED
0
LINE
5
160
100
AcDbEntity
8
0
100
AcDbLine
10
94.2273665792424
20
-7.496633461802066
30
0
11
89.956516491367253
21
11.017140856982772
31
0
6
DASHED
0
LWPOLYLINE
5
161
100
AcDbEntity
8
0
100
AcDbPolyline
90
4
70
1
43
0.0
10
92.834574311155961
20
9.2180346383414999
10
106.67118459151092
20
12.409933125069493
10
109.86308307823877
20
-1.4266771552857562
10
96.026472797883656
20
-4.6185756420134947
0
LINE
5
162
100
AcDbEntity
8
0
100
AcDbLine
10
89.956516491367253
20
11.017140856982772
30
0
11
108.47029081015209
21
15.287990944857949
31
0
6
DASHED
0
LINE
5
163
100
AcDbEntity
8
0
100
AcDbLine
10
108.47029081015209
20
15.287990944857949
30
0
11
112.7411408980272
21
-3.2257833739267756
31
0
6
DASHED
0
LINE
5
164
100
AcDbEntity
8
0
100
AcDbLine
10
112.89150198973894
20
-3.1666693507973114
30
0
11
119.84333810086261
21
-20.849202390044816
31
0
6
DASHED
0
LWPOLYLINE
5
165
100
AcDbEntity
8
0
100
AcDbPolyline
90
4
70
1
43
0.0
10
111.53604553566011
20
-6.2783791382126335
10
116.73162831344726
20
-19.493745935965975
10
103.51626151569383
20
-24.689328713753188
10
98.320678737906761
20
-11.473961915999837
0
LINE
5
166
100
AcDbEntity
8
0
100
AcDbLine
10
95.208968950491496
20
-10.118505461921021
30
0
11
112.89150198973894
21
-3.1666693507973114
31
0
6
DASHED
0
LINE
5
167
100
AcDbEntity
8
0
100
AcDbLine
10
102.16080506161525
20
-27.801038501168463
30
0
11
95.208968950491496
21
-10.118505461921021
31
0
6
DASHED
0
LINE
5
168
100
AcDbEntity
8
0
100
AcDbLine
10
119.84333810086261
20
-20.849202390044816
30
0
11
102.16080506161525
21
-27.801038501168463
31
0
6
DASHED
0
LWPOLYLINE
5
169
100
AcDbEntity
8
0
100
AcDbPolyline
90
4
70
1
43
0.0
10
128.2692998724404
20
6.1330373686644881
10
114.14708895821092
20
4.6487331902640845
10
112.66278477981049
20
18.770944104493594
10
126.78499569404002
20
20.255248282894009
0
LINE
5
170
100
AcDbEntity
8
0
100
AcDbLine
10
110.0250639190842
20
20.906928341535242
30
0
11
128.92097993108149
21
22.892969143620142
31
0
6
DASHED
0
LINE
5
171
100
AcDbEntity
8
0
100
AcDbLine
10
130.90702073316626
20
3.9970531316229674
30
0
11
112.0111047211691
21
2.0110123295379898
31
0
6
DASHED
0
LINE
5
172
100
AcDbEntity
8
0
100
AcDbLine
10
128.92097993108149
20
22.892969143620142
30
0
11
130.90702073316626
21
3.9970531316229674
31
0
6
DASHED
0
LINE
5
173
100
AcDbEntity
8
0
100
AcDbLine
10
112.0111047211691
20
2.0110123295379898
30
0
11
110.0250639190842
21
20.906928341535242
31
0
6
DASHED
0
LINE
5
174
100
AcDbEntity
8
0
100
AcDbLine
10
110.0250639190842
20
20.906928341535242
30
0
11
108.26307984749307
21
20.721736353140354
31
0
6
DASHED
0
LINE
5
175
100
AcDbEntity
8
0
100
AcDbLine
10
114.00733886431698
20
-0.81697606885066465
30
0
11
132.28041571614688
21
4.3882772743709433
31
0
6
DASHED
0
LINE
5
176
100
AcDbEntity
8
0
100
AcDbLine
10
132.28041571614688
20
4.3882772743709433
30
0
11
137.48566905936855
21
-13.884799577459294
31
0
6
DASHED
0
LWPOLYLINE
5
177
100
AcDbEntity
8
0
100
AcDbPolyline
90
4
70
1
43
0.0
10
130.62974327295422
20
1.4225934602590304
10
134.51998524525661
20
-12.234127134266471
10
120.8632646507312
20
-16.124369106568707
10
116.97302267842869
20
-2.4676485120432581
0
LINE
5
178
100
AcDbEntity
8
0
100
AcDbLine
10
137.48566905936855
20
-13.884799577459294
30
0
11
119.21259220753862
21
-19.090052920680527
31
0
6
DASHED
0
LINE
5
179
100
AcDbEntity
8
0
100
AcDbLine
10
119.21259220753862
20
-19.090052920680527
30
0
11
114.00733886431698
21
-0.81697606885066465
31
0
6
DASHED
0
LINE
5
180
100
AcDbEntity
8
0
100
AcDbLine
10
68.566302579428353
20
29.969622836377752
30
0
11
69.064418895217244
21
30.013202367126585
31
0
6
DASHED
0
LINE
5
181
100
AcDbEntity
8
0
100
AcDbLine
10
50.065263502788468
20
18.723416826532649
30
0
11
50.47294547745652
21
18.777089176719233
31
0
6
DASHED
0
LINE
5
182
100
AcDbEntity
8
0
100
AcDbLine
10
122.12735674708136
20
-21.82942286266066
30
0
11
139.00319214662633
21
-13.099807775644233
31
0
6
DASHED
0
LINE
5
183
100
AcDbEntity
8
0
100
AcDbLine
10
139.00319214662633
20
-13.099807775644233
30
0
11
147.73280723364263
21
-29.975643175189109
31
0
6
DASHED
0
LWPOLYLINE
5
184
100
AcDbEntity
8
0
100
AcDbPolyline
90
4
70
1
43
0.0
10
125.36172944012073
20
-22.858419112664272
10
137.97419589662275
20
-16.334180468683556
10
144.49843454060354
20
-28.946646925185476
10
131.88596808410159
20
-35.470885569166207
0
LINE
5
185
100
AcDbEntity
8
0
100
AcDbLine
10
130.85697183409769
20
-38.705258262205696
30
0
11
122.12735674708136
21
-21.82942286266066
31
0
6
DASHED
0
LINE
5
186
100
AcDbEntity
8
0
100
AcDbLine
10
147.73280723364263
20
-29.975643175189109
30
0
11
130.85697183409769
21
-38.705258262205696
31
0
6
DASHED
0
LWPOLYLINE
5
187
100
AcDbEntity
8
0
100
AcDbPolyline
90
4
70
1
43
0.0
10
133.21829611519695
20
26.845402687346436
10
147.40964585886809
20
26.349829834171029
10
146.91407300569261
20
12.15848009049957
10
132.72272326202145
20
12.654052943675275
0
LINE
5
188
100
AcDbEntity
8
0
100
AcDbLine
10
130.90351692243706
20
29.327699464278346
30
0
11
149.89194263579986
21
28.664609026930833
31
0
6
DASHED
0
LINE
5
189
100
AcDbEntity
8
0
100
AcDbLine
10
149.22885219845233
20
9.6761833135678881
30
0
11
130.2404264850895
21
10.339273750915526
31
0
6
DASHED
0
LINE
5
190
100
AcDbEntity
8
0
100
AcDbLine
10
149.89194263579986
20
28.664609026930833
30
0
11
149.22885219845233
21
9.6761833135678881
31
0
6
DASHED
0
LINE
5
191
100
AcDbEntity
8
0
100
AcDbLine
10
130.2404264850895
20
10.339273750915526
30
0
11
130.90351692243706
21
29.327699464278346
31
0
6
DASHED
0
LINE
5
192
100
AcDbEntity
8
0
100
AcDbLine
10
128.92097993108149
20
22.892969143620142
30
0
11
130.67667019387079
21
22.831659088654224
31
0
6
DASHED
0
LINE
5
193
100
AcDbEntity
8
0
100
AcDbLine
10
157.01707740813694
20
-7.6574849767350006
30
0
11
138.96362595060032
21
-13.579721924890524
31
0
6
DASHED
0
LWPOLYLINE
5
194
100
AcDbEntity
8
0
100
AcDbPolyline
90
4
70
1
43
0.0
10
149.56247652194938
20
7.3674584716687459
10
153.98856939899383
20
-6.1251210387061121
10
140.49598988861953
20
-10.55121391575031
10
136.06989701157497
20
2.9413655946241208
0
LINE
5
195
100
AcDbEntity
8
0
100
AcDbLine
10
151.09484045997803
20
10.39596648081228
30
0
11
157.01707740813694
21
-7.6574849767350006
31
0
6
DASHED
0
LINE
5
196
100
AcDbEntity
8
0
100
AcDbLine
10
133.04138900243595
20
4.4737295326506761
30
0
11
151.09484045997803
21
10.39596648081228
31
0
6
DASHED
0
LINE
5
197
100
AcDbEntity
8
0
100
AcDbLine
10
138.96362595060032
20
-13.579721924890524
30
0
11
133.04138900243595
21
4.4737295326506761
31
0
6
DASHED
0
LWPOLYLINE
5
198
100
AcDbEntity
8
0
100
AcDbPolyline
90
4
70
1
43
0.0
10
150.49841559597476
20
-30.166514415004798
10
143.66922916553779
20
-17.716525953229624
10
156.11921762731302
20
-10.887339522792676
10
162.94840405774988
20
-23.337327984568059
0
LINE
5
199
100
AcDbEntity
8
0
100
AcDbLine
10
140.41077707107866
20
-16.766531243707437
30
0
11
157.06921233683482
21
-7.628887428335009
31
0
6
DASHED
0
LINE
5
200
100
AcDbEntity
8
0
100
AcDbLine
10
149.54842088645205
20
-33.424966509462998
30
0
11
140.41077707107866
21
-16.766531243707437
31
0
0
LINE
5
201
100
AcDbEntity
8
0
100
AcDbLine
10
157.06921233683482
20
-7.628887428335009
30
0
11
166.20685615220748
21
-24.287322694089752
31
0
6
DASHED
0
LINE
5
202
100
AcDbEntity
8
0
100
AcDbLine
10
166.20685615220748
20
-24.287322694089752
30
0
11
149.54842088645205
21
-33.424966509462998
31
0
6
DASHED
0
LWPOLYLINE
5
203
100
AcDbEntity
8
0
100
AcDbPolyline
90
4
70
1
43
0.0
10
64.403186319116386
20
-55.351397015581782
10
51.533615743195952
20
-61.352576332299705
10
45.532436426478014
20
-48.483005756379278
10
58.402007002398449
20
-42.481826439661347
0
LINE
5
204
100
AcDbEntity
8
0
100
AcDbLine
10
67.592608857804578
20
-56.512251816884394
30
0
11
50.372760904108212
21
-64.541998789957688
31
0
6
DASHED
0
LINE
5
205
100
AcDbEntity
8
0
100
AcDbLine
10
59.562861884731262
20
-39.292403863188063
30
0
11
67.592608857804578
21
-56.512251816884394
31
0
6
DASHED
0
LINE
5
206
100
AcDbEntity
8
0
100
AcDbLine
10
42.343013931034918
20
-47.322150836261358
30
0
11
59.562861884731262
21
-39.292403863188063
31
0
6
DASHED
0
LINE
5
207
100
AcDbEntity
8
0
100
AcDbLine
10
50.372760904108212
20
-64.541998789957688
30
0
11
42.343013931034918
21
-47.322150836261358
31
0
6
DASHED
0
LINE
5
208
100
AcDbEntity
8
0
100
AcDbLine
10
23.495391655682155
20
-65.415483031235965
30
0
11
36.453360496869614
21
-51.519762700471709
31
0
6
DASHED
0
LINE
5
209
100
AcDbEntity
8
0
100
AcDbLine
10
36.453360496869614
20
-51.519762700471709
30
0
11
50.349080827633877
21
-64.477731541659182
31
0
6
DASHED
0
LWPOLYLINE
5
210
100
AcDbEntity
8
0
100
AcDbPolyline
90
4
70
1
43
0.0
10
46.957035879597782
20
-64.596184361395302
10
37.272659166710326
20
-74.981406924387514
10
26.887436603718101
20
-65.297030211500044
10
36.571813316605585
20
-54.911807648507832
0
LINE
5
211
100
AcDbEntity
8
0
100
AcDbLine
10
50.349080827633877
20
-64.477731541659182
30
0
11
37.391111986446397
21
-78.373451872423431
31
0
6
DASHED
0
LINE
5
212
100
AcDbEntity
8
0
100
AcDbLine
10
37.391111986446397
20
-78.373451872423431
30
0
11
23.495391655682155
21
-65.415483031235965
31
0
6
DASHED
0
LINE
5
213
100
AcDbEntity
8
0
100
AcDbLine
10
28.442885838068904
20
-95.125016148489465
30
0
11
11.666881573749288
21
-86.205056455557525
31
0
6
DASHED
0
LINE
5
214
100
AcDbEntity
8
0
100
AcDbLine
10
37.36284553100085
20
-78.349011884169812
30
0
11
28.442885838068904
21
-95.125016148489465
31
0
6
DASHED
0
LWPOLYLINE
5
215
100
AcDbEntity
8
0
100
AcDbPolyline
90
4
70
1
43
0.0
10
21.579183738856457
20
-72.674858164785562
10
34.117039557453211
20
-79.341354356345221
10
27.450543365893569
20
-91.879210174941988
10
14.912687547296814
20
-85.212713983382315
0
LINE
5
216
100
AcDbEntity
8
0
100
AcDbLine
10
20.586841266681219
20
-69.429052191237901
30
0
11
37.36284553100085
21
-78.349011884169812
31
0
6
DASHED
0
LINE
5
217
100
AcDbEntity
8
0
100
AcDbLine
10
11.666881573749288
20
-86.205056455557525
30
0
11
20.586841266681219
21
-69.429052191237901
31
0
6
DASHED
0
LWPOLYLINE
5
218
100
AcDbEntity
8
0
100
AcDbPolyline
90
4
70
1
43
0.0
10
84.251976760242187
20
-54.781752781519899
10
70.060627016571004
20
-54.286179928344389
10
70.556199869746507
20
-40.094830184673228
10
84.747549613417675
20
-40.590403037848745
0
LINE
5
219
100
AcDbEntity
8
0
100
AcDbLine
10
67.578330261173406
20
-56.600959785361972
30
0
11
68.241420723222959
21
-37.612533364625172
31
0
6
DASHED
0
LINE
5
220
100
AcDbEntity
8
0
100
AcDbLine
10
87.229846436585788
20
-38.275623801972685
30
0
11
86.566755974536221
21
-57.264050222709486
31
0
6
DASHED
0
LINE
5
221
100
AcDbEntity
8
0
100
AcDbLine
10
68.241420723222959
20
-37.612533364625172
30
0
11
87.229846436585788
21
-38.275623801972685
31
0
6
DASHED
0
LINE
5
222
100
AcDbEntity
8
0
100
AcDbLine
10
86.566755974536221
20
-57.264050222709486
30
0
11
67.578330261173406
21
-56.600959785361972
31
0
6
DASHED
0
LINE
5
223
100
AcDbEntity
8
0
100
AcDbLine
10
158.23651120289153
20
-7.7143625620421776
30
0
11
151.1189859279892
21
9.9021306747267754
31
0
6
DASHED
0
LWPOLYLINE
5
224
100
AcDbEntity
8
0
100
AcDbPolyline
90
4
70
1
43
0.0
10
167.40929373799602
20
13.895358874470729
10
172.72870736450193
20
0.72934813962234346
10
159.5626966296536
20
-4.5900654868835966
10
154.24328300314761
20
8.5759452479647713
0
LINE
5
225
100
AcDbEntity
8
0
100
AcDbLine
10
151.1189859279892
20
9.9021306747267754
30
0
11
168.73547916475815
21
17.019655949629112
31
0
6
DASHED
0
LINE
5
226
100
AcDbEntity
8
0
100
AcDbLine
10
175.85300443966051
20
-0.59683728713984208
30
0
11
158.23651120289153
21
-7.7143625620421776
31
0
6
DASHED
0
LINE
5
227
100
AcDbEntity
8
0
100
AcDbLine
10
168.73547916475815
20
17.019655949629112
30
0
11
175.85300443966051
21
-0.59683728713984208
31
0
6
DASHED
0
CIRCLE
5
228
100
AcDbEntity
8
0
100
AcDbCircle
10
63.701012560879306
20
-74.449743438912321
30
0
40
13
210
0
220
0
230
1
0
LINE
5
229
100
AcDbEntity
8
0
100
AcDbLine
10
134.99999893901116
20
-44.99999895588499
30
0
11
186.42614432048072
21
-18.086563841562331
31
0
6
DASHED
0
LINE
5
230
100
AcDbEntity
8
0
100
AcDbLine
10
186.42614432048072
20
-18.086563841562331
30
0
11
167.22897783309702
21
25.758816407400392
31
0
6
DASHED
0
LINE
5
231
100
AcDbEntity
8
0
100
AcDbLine
10
167.22897783309702
20
25.758816407400392
30
0
11
74.925838597018881
21
43.090746724897635
31
0
6
DASHED
0
LINE
5
232
100
AcDbEntity
8
0
100
AcDbLine
10
74.925838597018881
20
43.090746724897635
30
0
11
26.253705920844702
21
18.527240514491972
31
0
6
DASHED
0
LINE
5
233
100
AcDbEntity
8
0
100
AcDbLine
10
26.253705920844702
20
18.527240514491972
30
0
11
32.360680455804328
21
-40.926283489244469
31
0
6
DASHED
0
LINE
5
234
100
AcDbEntity
8
0
100
AcDbLine
10
32.360680455804328
20
-40.926283489244469
30
0
11
8.0997564870751777
21
-87.361170225091698
31
0
6
DASHED
0
LINE
5
235
100
AcDbEntity
8
0
100
AcDbLine
10
8.0997564870751777
20
-87.361170225091698
30
0
11
30.619662982374468
21
-100.23305422032547
31
0
6
DASHED
0
LINE
5
236
100
AcDbEntity
8
0
100
AcDbLine
10
30.619662982374468
20
-100.23305422032547
30
0
11
69.999993834658355
21
-90.00001469956473
31
0
6
DASHED
0
LINE
5
237
100
AcDbEntity
8
0
100
AcDbLine
10
134.99999893901116
20
-44.99999895588499
30
0
11
100.00000414538047
21
-39.99999969965203
31
0
6
DASHED
0
LINE
5
238
100
AcDbEntity
8
0
100
AcDbLine
10
100.00000414538047
20
-39.99999969965203
30
0
11
85.00000226695559
21
-70.00000345650183
31
0
6
DASHED
0
LINE
5
239
100
AcDbEntity
8
0
100
AcDbLine
10
85.00000226695559
20
-70.00000345650183
30
0
11
69.999993834658355
21
-90.00001469956473
31
0
6
DASHED
0
SPLINE
5
240
100
AcDbEntity
8
0
100
AcDbSpline
70
4
71
5
72
31
73
25
74
0
42
0.000000001
43
0.0000000001
44
0.0000000001
40
0
40
0
40
0
40
0
40
0
40
0
40
0.050000000000000003
40
0.10000000000000001
40
0.15000000000000002
40
0.20000000000000001
40
0.25
40
0.29999999999999999
40
0.34999999999999998
40
0.39999999999999997
40
0.44999999999999996
40
0.49999999999999994
40
0.54999999999999993
40
0.59999999999999998
40
0.65000000000000002
40
0.70000000000000007
40
0.75000000000000011
40
0.80000000000000016
40
0.8500000000000002
40
0.90000000000000024
40
0.95000000000000029
40
1
40
1
40
1
40
1
40
1
40
1
41
1
41
1
41
1
41
1
41
1
41
1
41
1
41
1
41
1
41
1
41
1
41
1
41
1
41
1
41
1
41
1
41
1
41
1
41
1
41
1
41
1
41
1
41
1
41
1
41
1
10
134.99999893901116
20
-44.99999895588499
30
0
10
133.07914733203597
20
-44.725591583459959
30
0
10
129.35107900796103
20
-44.10877271159972
30
0
10
124.09987931670564
20
-42.979521713575863
30
0
10
117.77622029070942
20
-41.191143564279685
30
0
10
110.97049480716366
20
-39.181084350756883
30
0
10
105.20820018437726
20
-38.242266736483955
30
0
10
100.40502365572397
20
-39.128967458218924
30
0
10
96.442936775737977
20
-42.280050454520975
30
0
10
93.161978315618768
20
-47.541340540358519
30
0
10
90.371336750323593
20
-54.321974825904945
30
0
10
87.86258683749719
20
-61.809149602899424
30
0
10
85.421397137597609
20
-69.160814315541202
30
0
10
82.839013849403415
20
-75.694238313431242
30
0
10
79.924572295233588
20
-81.106691727145304
30
0
10
76.509688708779791
20
-85.400381552260114
30
0
10
72.452787119690811
20
-88.756789513500564
30
0
10
67.643317667845636
20
-91.440540503673446
30
0
10
62.009837267410184
20
-93.676876757459752
30
0
10
55.517342020512991
20
-95.609023137911805
30
0
10
48.15425907013698
20
-97.326791400548331
30
0
10
41.569684017364253
20
-98.565553492449538
30
0
10
36.244472505574564
20
-99.425929188940799
30
0
10
32.523132800453325
20
-99.969083305714165
30
0
10
30.619662982374468
20
-100.23305422032547
30
0
0
SPLINE
5
241
100
AcDbEntity
8
0
100
AcDbSpline
70
4
71
5
72
46
73
40
74
0
42
0.000000001
43
0.0000000001
44
0.0000000001
40
0
40
0
40
0
40
0
40
0
40
0
40
0.028571428571428571
40
0.057142857142857141
40
0.085714285714285715
40
0.11428571428571428
40
0.14285714285714285
40
0.17142857142857143
40
0.20000000000000001
40
0.22857142857142859
40
0.25714285714285717
40
0.28571428571428575
40
0.31428571428571433
40
0.34285714285714292
40
0.3714285714285715
40
0.40000000000000008
40
0.42857142857142866
40
0.45714285714285724
40
0.48571428571428582
40
0.51428571428571435
40
0.54285714285714293
40
0.57142857142857151
40
0.60000000000000009
40
0.62857142857142867
40
0.65714285714285725
40
0.68571428571428583
40
0.71428571428571441
40
0.74285714285714299
40
0.77142857142857157
40
0.80000000000000016
40
0.82857142857142874
40
0.85714285714285732
40
0.8857142857142859
40
0.91428571428571448
40
0.94285714285714306
40
0.97142857142857164
40
1
40
1
40
1
40
1
40
1
40
1
41
1
41
1
41
1
41
1
41
1
41
1
41
1
41
1
41
1
41
1
41
1
41
1
41
1
41
1
41
1
41
1
41
1
41
1
41
1
41
1
41
1
41
1
41
1
41
1
41
1
41
1
41
1
41
1
41
1
41
1
41
1
41
1
41
1
41
1
41
1
41
1
41
1
41
1
41
1
41
1
10
134.99999893901116
20
-44.99999895588499
30
0
10
138.58313551079559
20
-44.831386848723376
30
0
10
145.44088125242484
20
-44.317836926602055
30
0
10
154.80191923557359
20
-43.018540600242204
30
0
10
165.42966640040828
20
-40.226746006709284
30
0
10
175.62021462800774
20
-34.997193542948317
30
0
10
182.72707247497661
20
-28.118840957188958
30
0
10
186.79057878674439
20
-19.78651574560358
30
0
10
187.89459874130418
20
-10.332250704954156
30
0
10
186.18430910916135
20
-0.27430948587723325
30
0
10
181.85265442737645
20
9.7601397054144119
30
0
10
175.12099729295994
20
19.136121745566232
30
0
10
166.22343006646574
20
27.300031563604708
30
0
10
155.38727692490562
20
33.882086486299357
30
0
10
142.82327861588809
20
38.770797094247996
30
0
10
128.76748318217648
20
42.028728194658349
30
0
10
113.51899674744382
20
43.826474330659352
30
0
10
97.476625598586097
20
44.372497626024334
30
0
10
81.183871280185613
20
43.840689658655236
30
0
10
65.354315876679749
20
42.309619623043623
30
0
10
50.948622615527775
20
39.669845850111443
30
0
10
39.040865404730752
20
35.664611834186495
30
0
10
30.55858168890207
20
30.013681264799118
30
0
10
26.039594241003666
20
22.519950043176227
30
0
10
25.424521000714382
20
13.166516785492718
30
0
10
27.719445542269298
20
2.2613069200954703
30
0
10
31.206679094439686
20
-9.6241874549560773
30
0
10
33.98401684524562
20
-21.830164120089822
30
0
10
34.461641202387469
20
-33.786654356436486
30
0
10
31.750052205158962
20
-45.106973106340533
30
0
10
26.41584894320928
20
-55.929080931655349
30
0
10
19.708394897104316
20
-66.178434498146274
30
0
10
13.168181729851973
20
-75.602805503011055
30
0
10
8.4249444082839986
20
-83.882906847457917
30
0
10
6.9346753833684236
20
-90.697343233208755
30
0
10
9.6853373892340056
20
-95.823772105398618
30
0
10
15.640396747989829
20
-98.495559185171246
30
0
10
22.284600636521557
20
-99.681753054635763
30
0
10
27.680258746459959
20
-100.10975722223313
30
0
10
30.619662982374468
20
-100.23305422032547
30
0
0
CIRCLE
5
242
100
AcDbEntity
8
0
100
AcDbCircle
10
91.634896380740244
20
-29.779937560930865
30
0
40
8.3278959647911819
210
0
220
0
230
1
0
CIRCLE
5
243
100
AcDbEntity
8
0
100
AcDbCircle
10
37.87534276731072
20
-42.30444765365263
30
0
40
5.5326048530867808
210
0
220
0
230
1
0
CIRCLE
5
244
100
AcDbEntity
8
0
100
AcDbCircle
10
43.457407721177965
20
30.417796528433705
30
0
40
5.5957559197488376
210
0
220
0
230
1
0
CIRCLE
5
245
100
AcDbEntity
8
0
100
AcDbCircle
10
119.11193921272846
20
32.445000416229391
30
0
40
9.4919592831122372
210
0
220
0
230
1
0
CIRCLE
5
246
100
AcDbEntity
8
0
100
AcDbCircle
10
157.5
20
22.5
30
0
40
7.905694150420949
210
0
220
0
230
1
0
CIRCLE
5
247
100
AcDbEntity
8
0
100
AcDbCircle
10
174.87426161344192
20
-16.200075156555517
30
0
40
8.8008231087850888
210
0
220
0
230
1
0
CIRCLE
5
248
100
AcDbEntity
8
0
100
AcDbCircle
10
43.474859511756947
20
-88.141361549945117
30
0
40
6.9090311267382623
210
0
220
0
230
1
0
CIRCLE
5
249
100
AcDbEntity
8
0
100
AcDbCircle
10
96.44493867434845
20
-8.3278012060432616
30
0
40
3.3009462508995728
210
0
220
0
230
1
0
CIRCLE
5
250
100
AcDbEntity
8
0
100
AcDbCircle
10
75.00000111758709
20
-4.0000000596046457
30
0
40
3.2015621664234173
210
0
220
0
230
1
0
CIRCLE
5
251
100
AcDbEntity
8
0
100
AcDbCircle
10
57.000000849366188
20
-12.000000178813934
30
0
40
3.2103382889573502
210
0
220
0
230
1
0
CIRCLE
5
252
100
AcDbEntity
8
0
100
AcDbCircle
10
91.000001356005683
20
12.000000178813936
30
0
40
3.0458252590916151
210
0
220
0
230
1
0
CIRCLE
5
253
100
AcDbEntity
8
0
100
AcDbCircle
10
108.880291946429
20
15.180585118252932
30
0
40
3.3356213036748277
210
0
220
0
230
1
0
CIRCLE
5
254
100
AcDbEntity
8
0
100
AcDbCircle
10
134.0000019967556
20
8.0000001192092896
30
0
40
3.6718064518359874
210
0
220
0
230
1
0
CIRCLE
5
255
100
AcDbEntity
8
0
100
AcDbCircle
10
121.0000018030405
20
-21.000000312924385
30
0
40
4.4613945801092054
210
0
220
0
230
1
0
CIRCLE
5
256
100
AcDbEntity
8
0
100
AcDbCircle
10
52.550127427928331
20
8.4250728212219812
30
0
40
3.537175231384126
210
0
220
0
230
1
0
LINE
5
257
100
AcDbEntity
8
0
100
AcDbLine
10
69.999993834658355
20
-90.00001469956473
30
0
11
174.70952971268184
21
-34.683155086943223
31
0
0
LINE
5
258
100
AcDbEntity
8
0
100
AcDbLine
10
26.253705920844702
20
18.527240514491972
30
0
11
8.0997564870751777
21
-87.361170225091698
31
0
0
CIRCLE
5
259
100
AcDbEntity
8
0
100
AcDbCircle
10
13.880010189877783
20
-90.665036302023566
30
0
40
5.2902006909613206
210
0
220
0
230
1
0
LINE
5
260
100
AcDbEntity
8
0
100
AcDbLine
10
63.701012560879306
20
-74.449743438912321
30
0
11
56.794179067440069
21
-63.436312951824931
31
0
6
DASHED
0
LINE
5
261
100
AcDbEntity
8
0
100
AcDbLine
10
63.701012560879306
20
-74.449743438912321
30
0
11
76.690020106680592
21
-73.91525024427159
31
0
6
DASHED
0
LINE
5
262
100
AcDbEntity
8
0
100
AcDbLine
10
63.701012560879306
20
-74.449743438912321
30
0
11
50.71200501507802
21
-74.984236633553053
31
0
6
DASHED
0
LINE
5
263
100
AcDbEntity
8
0
100
AcDbLine
10
63.701012560879306
20
-74.449743438912321
30
0
11
70.607846054318529
21
-85.463173925999712
31
0
6
DASHED
0
ENDSEC
0
SECTION
2
OBJECTS
0
DICTIONARY
5
C
100
AcDbDictionary
3
ACAD_GROUP
350
D
3
ACAD_MLINESTYLE
350
17
0
DICTIONARY
5
D
100
AcDbDictionary
0
DICTIONARY
5
1A
330
C
100
AcDbDictionary
0
DICTIONARY
5
17
100
AcDbDictionary
0
ENDSEC
0
EOF
