M48
; DRILL file KiCad 10.0.2 date 2026-05-17T22:07:33
; FORMAT={-:-/ absolute / inch / decimal}
; #@! TF.CreationDate,2026-05-17T22:07:33+09:00
; #@! TF.GenerationSoftware,Kicad,Pcbnew,10.0.2
; #@! TF.FileFunction,NonPlated,1,2,NPTH
FMAT,2
INCH
; #@! TA.AperFunction,NonPlated,NPTH,ComponentDrill
T1C0.0197
; #@! TA.AperFunction,NonPlated,NPTH,ComponentDrill
T2C0.0551
; #@! TA.AperFunction,NonPlated,NPTH,ComponentDrill
T3C0.0591
; #@! TA.AperFunction,NonPlated,NPTH,ComponentDrill
T4C0.0669
; #@! TA.AperFunction,NonPlated,NPTH,ComponentDrill
T5C0.0787
; #@! TA.AperFunction,NonPlated,NPTH,ComponentDrill
T6C0.0807
; #@! TA.AperFunction,NonPlated,NPTH,ComponentDrill
T7C0.1181
; #@! TA.AperFunction,NonPlated,NPTH,ComponentDrill
T8C0.1850
%
G90
G05
T1
X0.0197Y-0.315
X0.0197Y-5.689
X0.0591Y-0.315
X0.0591Y-5.689
X0.0984Y-0.315
X0.0984Y-5.689
X0.1378Y-0.315
X0.1378Y-5.689
X0.1772Y-0.315
X0.1772Y-5.689
X0.315Y-0.0197
X0.315Y-0.0591
X0.315Y-0.0984
X0.315Y-0.1378
X0.315Y-0.1772
X0.315Y-5.8268
X0.315Y-5.8661
X0.315Y-5.9055
X0.315Y-5.9449
X0.315Y-5.9843
X0.3182Y-2.701
X0.3236Y-2.7402
X0.3289Y-2.7795
X0.3343Y-2.8188
X0.3396Y-2.8581
X0.4093Y-2.377
X0.4216Y-2.3381
X0.4338Y-2.2992
X0.446Y-2.2603
X0.4583Y-2.2214
X0.7052Y-1.4361
X0.7175Y-1.397
X0.7298Y-1.3579
X0.7421Y-1.3188
X0.7544Y-1.2797
X0.7667Y-1.2405
X0.779Y-1.2014
X0.7913Y-1.1623
X2.2565Y-0.4342
X2.2956Y-0.4245
X2.3346Y-0.4148
X2.3737Y-0.4051
X2.4128Y-0.3954
X2.4781Y-2.9277
X2.517Y-2.945
X2.5558Y-2.9623
X2.5947Y-2.9795
X2.6336Y-2.9968
X2.6725Y-3.0141
X2.7114Y-3.0314
X2.7503Y-3.0487
X3.0197Y-0.315
X3.0591Y-0.315
X3.0984Y-0.315
X3.1378Y-0.315
X3.1772Y-0.315
X5.1232Y-0.6154
X5.1623Y-0.6295
X5.2013Y-0.6436
X5.2403Y-0.6576
X5.2794Y-0.6717
X5.3184Y-0.6858
X5.3574Y-0.6998
X5.3965Y-0.7139
X5.4488Y-5.689
X5.4882Y-5.689
X5.5276Y-5.689
X5.5669Y-5.689
X5.6063Y-5.689
X5.6457Y-5.689
X5.685Y-5.689
X5.7244Y-5.689
X5.7638Y-5.689
X5.8031Y-5.689
X7.6693Y-5.689
X7.7087Y-5.689
X7.748Y-5.689
X7.7874Y-5.689
X7.8268Y-5.689
X7.8661Y-5.689
X7.9055Y-5.689
X7.9449Y-5.689
X7.9843Y-5.689
X8.0236Y-5.689
X8.0445Y-0.7224
X8.0835Y-0.7084
X8.1225Y-0.6943
X8.1616Y-0.6802
X8.2006Y-0.6662
X8.2397Y-0.6521
X8.2787Y-0.638
X8.3177Y-0.624
X10.0709Y-0.315
X10.1102Y-0.315
X10.1496Y-0.315
X10.189Y-0.315
X10.2283Y-0.315
X10.7025Y-3.0539
X10.7414Y-3.0366
X10.7803Y-3.0194
X10.8191Y-3.0021
X10.858Y-2.9848
X10.8969Y-2.9675
X10.9358Y-2.9502
X10.9747Y-2.933
X11.1502Y-0.4199
X11.1893Y-0.4296
X11.2283Y-0.4393
X11.2674Y-0.449
X11.3065Y-0.4587
X12.7179Y-1.3041
X12.7302Y-1.3432
X12.7425Y-1.3823
X12.7547Y-1.4214
X12.767Y-1.4605
X12.7793Y-1.4996
X12.7916Y-1.5387
X12.8039Y-1.5778
X13.0236Y-2.2765
X13.0359Y-2.3154
X13.0481Y-2.3543
X13.0603Y-2.3932
X13.0726Y-2.4322
X13.1271Y-2.8423
X13.1324Y-2.8031
X13.1378Y-2.7638
X13.1432Y-2.7245
X13.1485Y-2.6852
X13.1496Y-0.0197
X13.1496Y-0.0591
X13.1496Y-0.0984
X13.1496Y-0.1378
X13.1496Y-0.1772
X13.1496Y-5.8268
X13.1496Y-5.8661
X13.1496Y-5.9055
X13.1496Y-5.9449
X13.1496Y-5.9843
X13.2874Y-0.315
X13.2874Y-5.689
X13.3268Y-0.315
X13.3268Y-5.689
X13.3661Y-0.315
X13.3661Y-5.689
X13.4055Y-0.315
X13.4055Y-5.689
X13.4449Y-0.315
X13.4449Y-5.689
T5
X0.0984Y-0.0984
X0.0984Y-5.9055
X0.7062Y-2.5931
X1.0271Y-1.8832
X1.0569Y-2.7855
X1.2136Y-1.115
X1.4071Y-2.0082
X1.5262Y-2.6703
X1.6133Y-1.101
X1.8262Y-1.9376
X1.8814Y-2.8544
X2.0374Y-1.1897
X2.2109Y-2.0472
X2.4352Y-1.2315
X2.5037Y-2.4161
X2.7357Y-1.6787
X2.8557Y-0.9181
X2.8758Y-2.5627
X3.1254Y-1.7687
X3.2535Y-0.9599
X3.3608Y-2.2783
X3.5482Y-1.5239
X3.6307Y-0.7605
X3.6789Y-3.7159
X3.739Y-2.4086
X3.9421Y-1.5933
X4.0295Y-0.7919
X4.0576Y-2.5933
X4.0786Y-3.7019
X4.2582Y-1.8489
X4.3697Y-1.0884
X4.4358Y-2.7235
X4.5845Y-3.7964
X4.6503Y-1.9279
X4.7089Y-3.024
X4.7682Y-1.1233
X4.9387Y-2.2899
X4.9471Y-3.9654
X5.0823Y-3.1673
X5.0855Y-1.535
X5.3269Y-2.3867
X5.3428Y-4.2455
X5.4824Y-1.5846
X5.6156Y-4.538
X5.8724Y-4.9035
X6.0601Y-5.2567
X7.4044Y-5.2567
X7.5922Y-4.9035
X7.8489Y-4.538
X7.9821Y-1.5846
X8.1217Y-4.2455
X8.1377Y-2.3867
X8.379Y-1.535
X8.3822Y-3.1673
X8.5175Y-3.9654
X8.5258Y-2.2899
X8.6963Y-1.1233
X8.7557Y-3.024
X8.8143Y-1.9279
X8.88Y-3.7964
X9.0287Y-2.7235
X9.0948Y-1.0884
X9.2064Y-1.8489
X9.386Y-3.7019
X9.4069Y-2.5933
X9.4351Y-0.7919
X9.5225Y-1.5933
X9.7256Y-2.4086
X9.7857Y-3.7159
X9.8338Y-0.7605
X9.9164Y-1.5239
X10.1038Y-2.2783
X10.2111Y-0.9599
X10.3392Y-1.7687
X10.5887Y-2.5627
X10.6089Y-0.9181
X10.7289Y-1.6787
X10.9609Y-2.4161
X11.0294Y-1.2315
X11.2537Y-2.0472
X11.4272Y-1.1897
X11.5832Y-2.8544
X11.6384Y-1.9376
X11.8513Y-1.101
X11.9383Y-2.6703
X12.0574Y-2.0082
X12.251Y-1.115
X12.4077Y-2.7855
X12.4374Y-1.8832
X12.7583Y-2.5931
X13.3661Y-0.0984
X13.3661Y-5.9055
T6
X4.0593Y-4.7362
X4.4293Y-4.8709
X9.0353Y-4.8709
X9.4052Y-4.7362
T7
X0.7982Y-2.5295
X1.0654Y-2.562
X1.1059Y-1.8038
X1.26Y-1.0133
X1.3746Y-1.7869
X1.5064Y-0.9046
X1.6167Y-2.6046
X1.8846Y-2.6308
X1.9016Y-1.8551
X2.0975Y-1.0955
X2.1695Y-1.8274
X2.3566Y-1.0222
X2.5868Y-2.3413
X2.8069Y-1.5925
X2.8561Y-2.3399
X2.9159Y-0.8239
X3.073Y-1.5513
X3.1749Y-0.7506
X3.4406Y-2.2001
X3.6148Y-1.4341
X3.6884Y-0.6647
X3.7096Y-2.1869
X3.7253Y-3.6142
X3.8783Y-1.379
X3.9455Y-0.5847
X3.9717Y-3.5055
X4.1375Y-2.515
X4.3269Y-1.7607
X4.4064Y-2.5019
X4.4283Y-0.9932
X4.5918Y-1.7121
X4.6721Y-3.7269
X4.686Y-0.9153
X4.7914Y-2.9485
X4.941Y-3.7419
X5.0114Y-2.205
X5.0606Y-2.9448
X5.1475Y-1.442
X5.2782Y-2.1684
X5.408Y-1.3738
X5.4501Y-4.2138
X5.6937Y-4.3285
X5.9841Y-4.9007
X6.1898Y-5.0745
X7.3396Y-5.1656
X7.3687Y-4.8979
X7.8099Y-4.4332
X7.9073Y-4.1822
X8.0194Y-1.4792
X8.162Y-2.2775
X8.255Y-1.349
X8.3804Y-2.12
X8.3931Y-3.056
X8.5206Y-3.8537
X8.5906Y-2.8731
X8.7049Y-3.6574
X8.7374Y-1.0193
X8.8435Y-1.82
X8.9778Y-0.8979
X9.0434Y-2.6127
X9.0688Y-1.6726
X9.2473Y-2.4368
X9.4394Y-3.6037
X9.4771Y-0.6883
X9.5543Y-1.4862
X9.6927Y-3.5125
X9.7184Y-0.569
X9.7403Y-2.2977
X9.7832Y-1.3443
X9.9441Y-2.1218
X10.2504Y-0.8552
X10.3654Y-1.66
X10.4885Y-0.7297
X10.5865Y-1.5064
X10.5986Y-2.4513
X10.7946Y-2.2666
X11.0687Y-1.1268
X11.2744Y-1.9373
X11.3068Y-1.0013
X11.4874Y-1.7726
X11.5816Y-2.7426
X11.7575Y-2.5388
X11.9047Y-1.0028
X12.0737Y-1.8975
X12.1581Y-0.9116
X12.28Y-1.7245
X12.4034Y-2.6738
X12.5745Y-2.4658
T8
X0.8816Y-2.6893
X1.2171Y-1.9457
X1.4134Y-1.108
X1.7038Y-2.7624
X2.0185Y-1.9924
X2.2363Y-1.2106
X2.6897Y-2.4894
X2.9305Y-1.7237
X3.0546Y-0.939
X3.5499Y-2.3435
X3.7451Y-1.5586
X3.8301Y-0.7762
X3.8787Y-3.7089
X4.2467Y-2.6584
X4.4542Y-1.8884
X4.569Y-1.1059
X4.7658Y-3.8809
X4.8956Y-3.0956
X5.1328Y-2.3383
X5.284Y-1.5598
X5.4792Y-4.3917
X5.9662Y-5.0801
X7.4983Y-5.0801
X7.9853Y-4.3917
X8.1806Y-1.5598
X8.3318Y-2.3383
X8.569Y-3.0956
X8.6988Y-3.8809
X8.8956Y-1.1059
X9.0104Y-1.8884
X9.2178Y-2.6584
X9.5858Y-3.7089
X9.6344Y-0.7762
X9.7194Y-1.5586
X9.9147Y-2.3435
X10.41Y-0.939
X10.534Y-1.7237
X10.7748Y-2.4894
X11.2283Y-1.2106
X11.4461Y-1.9924
X11.7608Y-2.7624
X12.0511Y-1.108
X12.2474Y-1.9457
X12.583Y-2.6893
T2
G00X4.2364Y-4.2728
M15
G01X4.2142Y-4.2647
M16
G05
G00X4.2553Y-4.221
M15
G01X4.2331Y-4.2129
M16
G05
G00X4.2553Y-4.221
M15
G01X4.2364Y-4.2728
M16
G05
G00X4.5916Y-4.4021
M15
G01X4.6104Y-4.3503
M16
G05
G00X4.6138Y-4.4101
M15
G01X4.5916Y-4.4021
M16
G05
G00X4.6326Y-4.3583
M15
G01X4.6104Y-4.3503
M16
G05
G00X8.8541Y-4.3503
M15
G01X8.8319Y-4.3583
M16
G05
G00X8.873Y-4.4021
M15
G01X8.8508Y-4.4101
M16
G05
G00X8.8541Y-4.3503
M15
G01X8.873Y-4.4021
M16
G05
G00X9.2282Y-4.2728
M15
G01X9.2093Y-4.221
M16
G05
G00X9.2315Y-4.2129
M15
G01X9.2093Y-4.221
M16
G05
G00X9.2504Y-4.2647
M15
G01X9.2282Y-4.2728
M16
G05
T3
G00X5.7927Y-3.441
M15
G01X5.7927Y-3.3898
M16
G05
G00X6.2337Y-3.441
M15
G01X6.2337Y-3.3898
M16
G05
G00X7.2309Y-3.441
M15
G01X7.2309Y-3.3898
M16
G05
G00X7.6718Y-3.441
M15
G01X7.6718Y-3.3898
M16
G05
T4
G00X4.1596Y-4.3169
M15
G01X4.2155Y-4.1634
M16
G05
G00X4.6221Y-4.4852
M15
G01X4.6779Y-4.3317
M16
G05
G00X8.8425Y-4.4852
M15
G01X8.7866Y-4.3317
M16
G05
G00X9.305Y-4.3169
M15
G01X9.2491Y-4.1634
M16
G05
M30
