M48
; DRILL file KiCad 10.0.2 date 2026-05-17T22:07:33
; FORMAT={-:-/ absolute / inch / decimal}
; #@! TF.CreationDate,2026-05-17T22:07:33+09:00
; #@! TF.GenerationSoftware,Kicad,Pcbnew,10.0.2
; #@! TF.FileFunction,Plated,1,2,PTH
FMAT,2
INCH
; #@! TA.AperFunction,Plated,PTH,ViaDrill
T1C0.0118
; #@! TA.AperFunction,Plated,PTH,ComponentDrill
T2C0.0236
; #@! TA.AperFunction,Plated,PTH,ComponentDrill
T3C0.0295
; #@! TA.AperFunction,Plated,PTH,ComponentDrill
T4C0.0343
; #@! TA.AperFunction,Plated,PTH,ComponentDrill
T5C0.0354
; #@! TA.AperFunction,Plated,PTH,ComponentDrill
T6C0.0394
; #@! TA.AperFunction,Plated,PTH,ComponentDrill
T7C0.0512
%
G90
G05
T1
X1.0236Y-2.0276
X1.4685Y-2.2165
X1.6596Y-2.2183
X1.9035Y-1.4528
X2.0531Y-1.4528
X2.2244Y-1.624
X2.4311Y-2.0177
X2.4409Y-2.5787
X2.5591Y-2.0177
X2.7165Y-1.2008
X2.8248Y-2.9626
X2.8839Y-1.2008
X3.2835Y-1.3976
X3.2874Y-2.4213
X3.3386Y-2.0079
X3.4941Y-1.0236
X3.5039Y-2.7264
X3.5394Y-1.8071
X3.6417Y-1.0236
X3.8846Y-3.9082
X3.9449Y-2.1181
X3.9862Y-1.2106
X3.9862Y-2.687
X4.06Y-2.938
X4.2224Y-1.1713
X4.2795Y-2.1181
X4.3799Y-1.2303
X4.5866Y-2.3327
X4.6555Y-3.1004
X4.6752Y-1.437
X4.7835Y-2.5886
X4.8661Y-4.2559
X4.872Y-2.4606
X4.9409Y-1.565
X4.9606Y-3.4055
X5.0157Y-4.4055
X5.0984Y-1.7224
X5.2362Y-4.0059
X5.2756Y-3.6319
X5.3425Y-3.3425
X5.3839Y-3.1988
X5.4626Y-2.8051
X5.6594Y-2.0493
X5.6693Y-1.8493
X5.6693Y-1.9094
X5.8268Y-2.9331
X6.1122Y-1.3189
X6.1122Y-1.5059
X7.0866Y-3.2677
X7.1063Y-2.4016
X7.1063Y-2.5591
X7.185Y-2.5984
X7.2717Y-2.7008
X7.4409Y-2.9134
X7.7854Y-1.8602
X7.8346Y-1.6339
X7.8346Y-2.7461
X7.9875Y-4.9954
X8.061Y-1.8158
X8.126Y-2.5866
X8.5433Y-3.4236
X8.6122Y-1.4173
X8.6417Y-3.2677
X8.6614Y-1.5157
X8.7402Y-2.3031
X8.7402Y-4.6417
X8.7598Y-3.1496
X8.878Y-2.4409
X9.3504Y-1.1811
X9.3504Y-1.4173
X9.3701Y-3.0315
X9.4537Y-2.0128
X9.5669Y-2.126
X9.5669Y-2.8346
X10.0787Y-2.874
X10.1181Y-1.063
X10.1181Y-1.5551
X10.2421Y-2.0728
X10.2426Y-1.8833
X10.2559Y-2.6969
X10.9449Y-1.2598
X10.9449Y-1.7619
X11.1811Y-2.0669
X11.1811Y-2.2441
X11.7795Y-1.2441
X11.7815Y-1.6831
X12.0472Y-2.2047
X12.0472Y-2.3425
X12.0922Y-2.9331
T3
X3.8198Y-4.4839
X3.8591Y-4.4157
X9.6251Y-4.4039
X9.6645Y-4.4721
T4
X6.378Y-2.6346
X6.378Y-2.8346
X6.578Y-2.6346
X6.578Y-2.8346
X6.8866Y-2.6346
X6.8866Y-2.8346
X7.0866Y-2.6346
X7.0866Y-2.8346
T5
X4.3513Y-4.222
X4.4436Y-4.256
X4.536Y-4.2901
X8.9283Y-4.2893
X9.021Y-4.256
X9.1136Y-4.2227
T6
X5.8305Y-1.2493
X5.8305Y-1.3493
X5.8305Y-1.4493
X5.8305Y-1.5493
X5.8305Y-1.6493
X5.8305Y-1.7493
X5.8305Y-1.8493
X5.8305Y-1.9493
X5.8305Y-2.0493
X5.8305Y-2.1493
X5.8305Y-2.2493
X5.8305Y-2.3493
X5.8305Y-2.4493
X5.9148Y-3.7107
X5.9148Y-3.1398
X5.9515Y-2.3275
X6.0132Y-3.7107
X6.0515Y-2.3275
X6.1116Y-3.7107
X6.1116Y-3.1398
X6.1515Y-2.3275
X6.4305Y-1.2493
X6.4305Y-1.3493
X6.4305Y-1.4493
X6.4305Y-1.5493
X6.4305Y-1.6493
X6.4305Y-1.7493
X6.4305Y-1.8493
X6.4305Y-1.9493
X6.4305Y-2.0493
X6.4305Y-2.1493
X6.4305Y-2.2493
X6.4305Y-2.3493
X6.4305Y-2.4493
X7.034Y-1.2493
X7.034Y-1.3493
X7.034Y-1.4493
X7.034Y-1.5493
X7.034Y-1.6493
X7.034Y-1.7493
X7.034Y-1.8493
X7.034Y-1.9493
X7.034Y-2.0493
X7.034Y-2.1493
X7.034Y-2.2493
X7.034Y-2.3493
X7.034Y-2.4493
X7.155Y-2.3275
X7.255Y-2.3275
X7.3529Y-3.1398
X7.3529Y-3.7107
X7.355Y-2.3275
X7.4514Y-3.7107
X7.5498Y-3.1398
X7.5498Y-3.7107
X7.634Y-1.2493
X7.634Y-1.3493
X7.634Y-1.4493
X7.634Y-1.5493
X7.634Y-1.6493
X7.634Y-1.7493
X7.634Y-1.8493
X7.634Y-1.9493
X7.634Y-2.0493
X7.634Y-2.1493
X7.634Y-2.2493
X7.634Y-2.3493
X7.634Y-2.4493
T7
X5.5217Y-0.9843
X5.7776Y-0.9843
X7.687Y-0.9843
X7.9429Y-0.9843
T2
G00X4.2214Y-4.8665
M15
G01X4.2134Y-4.8887
M16
G05
G00X4.2888Y-4.6815
M15
G01X4.2807Y-4.7037
M16
G05
G00X9.1758Y-4.6815
M15
G01X9.1839Y-4.7037
M16
G05
G00X9.2431Y-4.8665
M15
G01X9.2512Y-4.8887
M16
G05
M30
