%TF.GenerationSoftware,KiCad,Pcbnew,10.0.2*%
%TF.CreationDate,2026-05-17T22:07:33+09:00*%
%TF.ProjectId,ErgoNexus_kikit,4572676f-4e65-4787-9573-5f6b696b6974,rev?*%
%TF.SameCoordinates,Original*%
%TF.FileFunction,Soldermask,Bot*%
%TF.FilePolarity,Negative*%
%FSLAX46Y46*%
G04 Gerber Fmt 4.6, Leading zero omitted, Abs format (unit mm)*
G04 Created by KiCad (PCBNEW 10.0.2) date 2026-05-17 22:07:33*
%MOMM*%
%LPD*%
G01*
G04 APERTURE LIST*
G04 Aperture macros list*
%AMRoundRect*
0 Rectangle with rounded corners*
0 $1 Rounding radius*
0 $2 $3 $4 $5 $6 $7 $8 $9 X,Y pos of 4 corners*
0 Add a 4 corners polygon primitive as box body*
4,1,4,$2,$3,$4,$5,$6,$7,$8,$9,$2,$3,0*
0 Add four circle primitives for the rounded corners*
1,1,$1+$1,$2,$3*
1,1,$1+$1,$4,$5*
1,1,$1+$1,$6,$7*
1,1,$1+$1,$8,$9*
0 Add four rect primitives between the rounded corners*
20,1,$1+$1,$2,$3,$4,$5,0*
20,1,$1+$1,$4,$5,$6,$7,0*
20,1,$1+$1,$6,$7,$8,$9,0*
20,1,$1+$1,$8,$9,$2,$3,0*%
%AMHorizOval*
0 Thick line with rounded ends*
0 $1 width*
0 $2 $3 position (X,Y) of the first rounded end (center of the circle)*
0 $4 $5 position (X,Y) of the second rounded end (center of the circle)*
0 Add line between two ends*
20,1,$1,$2,$3,$4,$5,0*
0 Add two circle primitives to create the rounded ends*
1,1,$1,$2,$3*
1,1,$1,$4,$5*%
%AMRotRect*
0 Rectangle, with rotation*
0 The origin of the aperture is its center*
0 $1 length*
0 $2 width*
0 $3 Rotation angle, in degrees counterclockwise*
0 Add horizontal line*
21,1,$1,$2,0,0,$3*%
G04 Aperture macros list end*
%ADD10C,2.000000*%
%ADD11C,3.000000*%
%ADD12C,4.700000*%
%ADD13RotRect,3.300000X3.000000X170.000000*%
%ADD14RotRect,3.300000X3.000000X168.600000*%
%ADD15C,0.500000*%
%ADD16RotRect,3.300000X3.000000X191.400000*%
%ADD17RotRect,3.300000X3.000000X174.000000*%
%ADD18RotRect,3.300000X3.000000X201.000000*%
%ADD19RotRect,3.300000X3.000000X175.000000*%
%ADD20HorizOval,1.400000X-0.281908X-0.102606X0.281908X0.102606X0*%
%ADD21HorizOval,1.400000X-0.239414X0.657785X0.239414X-0.657785X0*%
%ADD22HorizOval,1.400000X0.239414X-0.657785X-0.239414X0.657785X0*%
%ADD23HorizOval,1.700000X-0.709692X1.949862X0.709692X-1.949862X0*%
%ADD24C,2.050000*%
%ADD25RoundRect,0.300000X-0.487120X0.461210X-0.076696X-0.666422X0.487120X-0.461210X0.076696X0.666422X0*%
%ADD26RoundRect,0.375000X-0.224127X-0.480642X0.480642X-0.224127X0.224127X0.480642X-0.480642X0.224127X0*%
%ADD27RotRect,3.300000X3.000000X199.000000*%
%ADD28RotRect,3.300000X3.000000X242.000000*%
%ADD29RotRect,3.300000X3.000000X208.750000*%
%ADD30RotRect,3.300000X3.000000X151.250000*%
%ADD31O,2.000000X3.200000*%
%ADD32R,2.000000X2.000000*%
%ADD33RotRect,3.300000X3.000000X187.120000*%
%ADD34RotRect,3.300000X3.000000X161.000000*%
%ADD35RotRect,3.300000X3.000000X205.000000*%
%ADD36RotRect,3.300000X3.000000X118.000000*%
%ADD37RotRect,3.300000X3.000000X201.500000*%
%ADD38HorizOval,1.400000X-0.281908X0.102606X0.281908X-0.102606X0*%
%ADD39HorizOval,1.400000X-0.239414X-0.657785X0.239414X0.657785X0*%
%ADD40HorizOval,1.400000X0.239414X0.657785X-0.239414X-0.657785X0*%
%ADD41HorizOval,1.700000X0.709692X1.949862X-0.709692X-1.949862X0*%
%ADD42RoundRect,0.300000X-0.076696X0.666422X-0.487120X-0.461210X0.076696X-0.666422X0.487120X0.461210X0*%
%ADD43RoundRect,0.375000X-0.480642X-0.224127X0.224127X-0.480642X0.480642X0.224127X-0.224127X0.480642X0*%
%ADD44RotRect,3.300000X3.000000X158.500000*%
%ADD45RotRect,3.300000X3.000000X227.000000*%
%ADD46C,1.905000*%
%ADD47RotRect,3.300000X3.000000X184.500000*%
%ADD48RotRect,3.300000X3.000000X152.600000*%
%ADD49RotRect,3.300000X3.000000X164.100000*%
%ADD50RotRect,3.300000X3.000000X207.400000*%
%ADD51RotRect,3.300000X3.000000X185.000000*%
%ADD52RotRect,3.300000X3.000000X178.000000*%
%ADD53RotRect,3.300000X3.000000X133.000000*%
%ADD54C,1.800000*%
%ADD55RoundRect,0.450000X-0.450000X-0.450000X0.450000X-0.450000X0.450000X0.450000X-0.450000X0.450000X0*%
%ADD56O,1.800000X4.340000*%
%ADD57RotRect,3.300000X3.000000X182.000000*%
%ADD58RotRect,3.300000X3.000000X161.800000*%
%ADD59RotRect,3.300000X3.000000X167.000000*%
%ADD60RotRect,3.300000X3.000000X194.000000*%
%ADD61RotRect,3.300000X3.000000X186.000000*%
%ADD62RotRect,3.300000X3.000000X190.000000*%
%ADD63RotRect,3.300000X3.000000X166.000000*%
%ADD64RotRect,3.300000X3.000000X198.200000*%
%ADD65RotRect,3.300000X3.000000X195.900000*%
%ADD66RotRect,3.300000X3.000000X159.000000*%
%ADD67RotRect,3.300000X3.000000X175.500000*%
%ADD68RotRect,3.300000X3.000000X193.000000*%
%ADD69RotRect,3.300000X3.000000X172.880000*%
%ADD70RotRect,3.300000X3.000000X155.000000*%
%ADD71RotRect,0.600000X0.450000X298.000000*%
%ADD72RotRect,0.600000X0.450000X19.000000*%
%ADD73RotRect,0.600000X0.450000X344.100000*%
%ADD74RotRect,0.600000X0.450000X341.000000*%
%ADD75RotRect,0.600000X0.450000X347.000000*%
%ADD76RotRect,0.600000X0.450000X335.000000*%
%ADD77RotRect,0.600000X0.450000X14.000000*%
%ADD78C,1.000000*%
%ADD79RotRect,0.600000X0.450000X352.880000*%
%ADD80R,0.400000X0.600000*%
%ADD81RotRect,0.600000X0.450000X2.000000*%
%ADD82RotRect,0.600000X0.450000X358.000000*%
%ADD83RotRect,0.600000X0.450000X341.800000*%
%ADD84RotRect,0.600000X0.450000X354.000000*%
%ADD85RoundRect,0.250000X-0.716266X-0.009391X-0.366266X-0.615609X0.716266X0.009391X0.366266X0.615609X0*%
%ADD86HorizOval,1.200000X-0.238157X-0.137500X0.238157X0.137500X0*%
%ADD87RotRect,0.600000X0.450000X355.000000*%
%ADD88RotRect,0.600000X0.450000X28.750000*%
%ADD89R,0.600000X0.450000*%
%ADD90RotRect,0.600000X0.450000X62.000000*%
%ADD91RotRect,0.600000X0.450000X25.000000*%
%ADD92RotRect,0.600000X0.450000X10.000000*%
%ADD93RotRect,0.600000X0.450000X338.500000*%
%ADD94RotRect,0.600000X0.450000X4.500000*%
%ADD95RotRect,0.600000X0.450000X6.000000*%
%ADD96RotRect,0.600000X0.450000X339.000000*%
%ADD97RotRect,0.600000X0.450000X47.000000*%
%ADD98RotRect,0.600000X0.450000X18.200000*%
%ADD99RotRect,0.600000X0.450000X27.399000*%
%ADD100RotRect,0.600000X0.450000X332.601000*%
%ADD101RotRect,0.600000X0.450000X11.400000*%
%ADD102RotRect,0.600000X0.450000X13.000000*%
%ADD103RotRect,0.600000X0.450000X355.500000*%
%ADD104RotRect,0.600000X0.450000X313.000000*%
%ADD105RotRect,0.600000X0.450000X346.000000*%
%ADD106RotRect,0.600000X0.450000X348.600000*%
%ADD107RotRect,0.600000X0.450000X15.900000*%
%ADD108RotRect,0.600000X0.450000X5.000000*%
%ADD109RotRect,0.600000X0.450000X7.120000*%
%ADD110RotRect,0.600000X0.450000X21.500000*%
%ADD111RotRect,0.600000X0.450000X21.000000*%
%ADD112RoundRect,0.250000X0.366266X-0.615609X0.716266X-0.009391X-0.366266X0.615609X-0.716266X0.009391X0*%
%ADD113HorizOval,1.200000X-0.238157X0.137500X0.238157X-0.137500X0*%
%ADD114RotRect,0.600000X0.450000X350.000000*%
%ADD115RotRect,0.600000X0.450000X331.250000*%
G04 APERTURE END LIST*
D10*
%TO.C,K_L_23*%
X90123673Y-38706298D03*
D11*
X91815445Y-36425420D03*
D12*
X95126496Y-39588431D03*
D11*
X98510040Y-35026674D03*
D10*
X100129319Y-40470564D03*
D13*
X88237691Y-35753948D03*
X102072142Y-35614152D03*
%TD*%
D10*
%TO.C,K_L_22*%
X108157232Y-46960902D03*
D11*
X109904226Y-44722038D03*
D12*
X113137010Y-47965001D03*
D11*
X116630998Y-43487273D03*
D10*
X118116788Y-48969100D03*
D14*
X106343946Y-43963354D03*
X120177683Y-44161605D03*
%TD*%
D15*
%TO.C,KiKit_MB_4_9*%
X139400000Y-144500000D03*
%TD*%
%TO.C,KiKit_MB_18_3*%
X334000000Y-1500000D03*
%TD*%
%TO.C,KiKit_MB_23_6*%
X341500000Y-8000000D03*
%TD*%
%TO.C,KiKit_MB_15_5*%
X199800000Y-144500000D03*
%TD*%
%TO.C,KiKit_MB_10_5*%
X134095770Y-17061539D03*
%TD*%
%TO.C,KiKit_MB_20_3*%
X334000000Y-149000000D03*
%TD*%
%TO.C,KiKit_MB_15_9*%
X195800000Y-144500000D03*
%TD*%
D10*
%TO.C,K_R_22*%
X223883212Y-48969100D03*
D11*
X224626107Y-46228187D03*
D12*
X228862990Y-47965001D03*
D11*
X230348779Y-42483174D03*
D10*
X233842768Y-46960902D03*
D16*
X221050014Y-46908449D03*
X233879652Y-41730420D03*
%TD*%
D15*
%TO.C,KiKit_MB_20_5*%
X334000000Y-151000000D03*
%TD*%
%TO.C,KiKit_MB_9_4*%
X331732462Y-60788489D03*
%TD*%
D10*
%TO.C,KiKit_TO_4*%
X339500000Y-150000000D03*
%TD*%
D15*
%TO.C,KiKit_MB_14_1*%
X255800000Y-8000000D03*
%TD*%
%TO.C,KiKit_MB_5_4*%
X275793843Y-75813848D03*
%TD*%
%TO.C,KiKit_MB_18_4*%
X334000000Y-2500000D03*
%TD*%
%TO.C,KiKit_MB_14_5*%
X259800000Y-8000000D03*
%TD*%
D10*
%TO.C,K_L_14*%
X72534122Y-23320013D03*
D11*
X74062667Y-20926679D03*
D12*
X77586293Y-23851018D03*
D11*
X80643383Y-19064349D03*
D10*
X82638464Y-24382023D03*
D17*
X70446788Y-20506414D03*
X84237789Y-19401916D03*
%TD*%
D10*
%TO.C,K_R_31*%
X212908788Y-80449530D03*
D11*
X213184181Y-77623109D03*
D12*
X217651377Y-78629021D03*
D11*
X218202162Y-72976178D03*
D10*
X222393966Y-76808512D03*
D18*
X209771614Y-78890225D03*
X221558053Y-71645126D03*
%TD*%
D15*
%TO.C,KiKit_MB_8_5*%
X80700000Y-8000000D03*
%TD*%
%TO.C,KiKit_MB_23_5*%
X340500000Y-8000000D03*
%TD*%
%TO.C,KiKit_MB_20_2*%
X334000000Y-148000000D03*
%TD*%
D10*
%TO.C,K_L_12*%
X110991421Y-27646050D03*
D11*
X112477964Y-25226403D03*
D12*
X116052090Y-28088801D03*
D11*
X119025176Y-23249508D03*
D10*
X121112759Y-28531552D03*
D19*
X108855301Y-24869308D03*
X122624925Y-23524292D03*
%TD*%
D15*
%TO.C,KiKit_MB_12_6*%
X209287309Y-16563132D03*
%TD*%
%TO.C,KiKit_MB_10_7*%
X136078850Y-17776163D03*
%TD*%
D20*
%TO.C,RE4*%
X234198291Y-107110541D03*
X224613427Y-110599146D03*
D21*
X234155798Y-107870932D03*
D22*
X225134749Y-111154325D03*
D23*
X235636349Y-107699197D03*
X223890191Y-111974448D03*
D20*
X225092255Y-111914716D03*
X234677120Y-108426112D03*
D24*
X238892604Y-120300440D03*
X229495678Y-123720641D03*
D25*
X233168082Y-119191462D03*
X234878181Y-123889926D03*
D26*
X231484895Y-107257436D03*
X229132243Y-108103090D03*
X226779591Y-108948743D03*
%TD*%
D15*
%TO.C,KiKit_MB_12_7*%
X210278849Y-16205820D03*
%TD*%
%TO.C,KiKit_MB_16_7*%
X324907715Y-39083555D03*
%TD*%
%TO.C,KiKit_MB_2_6*%
X19473702Y-31509868D03*
%TD*%
%TO.C,KiKit_MB_4_10*%
X138400000Y-144500000D03*
%TD*%
%TO.C,KiKit_MB_7_4*%
X333563948Y-71197708D03*
%TD*%
%TO.C,KiKit_MB_16_3*%
X323658257Y-35109868D03*
%TD*%
%TO.C,KiKit_MB_10_2*%
X131121151Y-15989604D03*
%TD*%
%TO.C,KiKit_MB_3_5*%
X8082444Y-68604585D03*
%TD*%
%TO.C,KiKit_MB_12_2*%
X205321150Y-17992379D03*
%TD*%
%TO.C,KiKit_MB_14_2*%
X256800000Y-8000000D03*
%TD*%
%TO.C,KiKit_MB_11_3*%
X285200000Y-11157838D03*
%TD*%
%TO.C,KiKit_MB_1_2*%
X10707744Y-59388489D03*
%TD*%
%TO.C,KiKit_MB_2_8*%
X20098431Y-29523024D03*
%TD*%
%TO.C,KiKit_MB_4_2*%
X146400000Y-144500000D03*
%TD*%
%TO.C,KiKit_MB_23_3*%
X338500000Y-8000000D03*
%TD*%
%TO.C,KiKit_MB_3_3*%
X8354546Y-70600000D03*
%TD*%
D10*
%TO.C,K_R_33*%
X247029624Y-61177815D03*
D11*
X247403489Y-58362726D03*
D12*
X251832858Y-59523929D03*
D11*
X252580589Y-53893752D03*
D10*
X256636092Y-57870043D03*
D27*
X243948779Y-59509974D03*
X255980888Y-52680629D03*
%TD*%
D15*
%TO.C,KiKit_MB_22_2*%
X500000Y-144500000D03*
%TD*%
D10*
%TO.C,K_R_41*%
X188072458Y-133518924D03*
D11*
X186426000Y-131205123D03*
D12*
X190457374Y-129033550D03*
D11*
X187164458Y-124405948D03*
D10*
X192842290Y-124548176D03*
D28*
X184681806Y-134400273D03*
X188823932Y-121199728D03*
%TD*%
D15*
%TO.C,KiKit_MB_2_7*%
X19786067Y-30516446D03*
%TD*%
%TO.C,KiKit_MB_22_6*%
X4500000Y-144500000D03*
%TD*%
D10*
%TO.C,K_R_36*%
X315154499Y-70751023D03*
D11*
X315046231Y-67913281D03*
D12*
X319608271Y-68307600D03*
D11*
X319391734Y-62632117D03*
D10*
X324062043Y-65864177D03*
D29*
X311835706Y-69629011D03*
X322537478Y-60860678D03*
%TD*%
D10*
%TO.C,K_L_36*%
X17937957Y-65864177D03*
D11*
X20273112Y-64248147D03*
D12*
X22391729Y-68307600D03*
D11*
X27062038Y-65075540D03*
D10*
X26845501Y-70751023D03*
D30*
X17101066Y-62462279D03*
X30246261Y-66776840D03*
%TD*%
D31*
%TO.C,RE3*%
X183664833Y-86751489D03*
X194864833Y-86751489D03*
D32*
X186764833Y-94251489D03*
D10*
X191764833Y-94251489D03*
X189264833Y-94251489D03*
X191764833Y-79751489D03*
X186764833Y-79751489D03*
%TD*%
%TO.C,K_R_11*%
X202746193Y-40249017D03*
D11*
X203691572Y-37571190D03*
D12*
X207787020Y-39619362D03*
D11*
X209677778Y-34263708D03*
D10*
X212827847Y-38989707D03*
D33*
X200074683Y-37982669D03*
X213254983Y-33776564D03*
%TD*%
D10*
%TO.C,K_L_33*%
X85363908Y-57870043D03*
D11*
X87391659Y-55881897D03*
D12*
X90167142Y-59523929D03*
D11*
X94222645Y-55547638D03*
D10*
X94970376Y-61177815D03*
D34*
X83962995Y-54659008D03*
X97648990Y-56685118D03*
%TD*%
D15*
%TO.C,KiKit_MB_17_6*%
X8000000Y-4500000D03*
%TD*%
%TO.C,KiKit_MB_6_2*%
X68869219Y-76997430D03*
%TD*%
%TO.C,KiKit_MB_10_1*%
X130129611Y-15632293D03*
%TD*%
%TO.C,KiKit_MB_9_3*%
X331421649Y-59800000D03*
%TD*%
%TO.C,KiKit_MB_15_8*%
X196800000Y-144500000D03*
%TD*%
%TO.C,KiKit_MB_1_4*%
X11329371Y-57411512D03*
%TD*%
%TO.C,KiKit_MB_10_8*%
X137070390Y-18133474D03*
%TD*%
D10*
%TO.C,K_R_43*%
X216344609Y-100721541D03*
D11*
X216422170Y-97882794D03*
D12*
X220948653Y-98574640D03*
D11*
X221103774Y-92897146D03*
D10*
X225552697Y-96427739D03*
D35*
X213106304Y-99384872D03*
X224358641Y-91335242D03*
%TD*%
D15*
%TO.C,KiKit_MB_19_5*%
X8000000Y-151000000D03*
%TD*%
%TO.C,KiKit_MB_10_4*%
X133104231Y-16704228D03*
%TD*%
D10*
%TO.C,K_L_41*%
X149157710Y-124548176D03*
D11*
X151996626Y-124477062D03*
D12*
X151542626Y-129033550D03*
D11*
X157220458Y-128891321D03*
D10*
X153927542Y-133518924D03*
D36*
X150323068Y-121244354D03*
X158950568Y-132059983D03*
%TD*%
D15*
%TO.C,KiKit_MB_22_3*%
X1500000Y-144500000D03*
%TD*%
%TO.C,KiKit_MB_11_2*%
X284207387Y-10911027D03*
%TD*%
D10*
%TO.C,K_R_34*%
X268954113Y-65091439D03*
D11*
X269204830Y-62262722D03*
D12*
X273680634Y-63229613D03*
D11*
X274182068Y-57572179D03*
D10*
X278407155Y-61367787D03*
D37*
X265803450Y-63559570D03*
X277526216Y-56211892D03*
%TD*%
D38*
%TO.C,RE2*%
X107801710Y-107110541D03*
X117386573Y-110599147D03*
D39*
X107844203Y-107870932D03*
D40*
X116865251Y-111154326D03*
D41*
X106363652Y-107699197D03*
X118109808Y-111974449D03*
D38*
X116907745Y-111914717D03*
X107322881Y-108426112D03*
D24*
X103107396Y-120300439D03*
X112504321Y-123720641D03*
D42*
X108831918Y-119191462D03*
X107121819Y-123889926D03*
D43*
X115213568Y-108967538D03*
X112867757Y-108103090D03*
X110521946Y-107238642D03*
%TD*%
D10*
%TO.C,K_L_34*%
X63592845Y-61367787D03*
D11*
X65705388Y-59469983D03*
D12*
X68319366Y-63229613D03*
D11*
X72544453Y-59434005D03*
D10*
X73045887Y-65091439D03*
D44*
X62333328Y-58098701D03*
X75917920Y-60719858D03*
%TD*%
D15*
%TO.C,KiKit_MB_15_2*%
X202800000Y-144500000D03*
%TD*%
D10*
%TO.C,K_R_42*%
X199363059Y-115265591D03*
D11*
X198371559Y-112604496D03*
D12*
X202827611Y-111550314D03*
D11*
X200844610Y-106228124D03*
D10*
X206292163Y-107835037D03*
D45*
X195859831Y-115239343D03*
X203277370Y-103560657D03*
%TD*%
D15*
%TO.C,KiKit_MB_9_2*%
X331110836Y-58811512D03*
%TD*%
D46*
%TO.C,LED2*%
X180000000Y-72000000D03*
X174920000Y-72000000D03*
X174920000Y-66920000D03*
X180000000Y-66920000D03*
%TD*%
D15*
%TO.C,KiKit_MB_24_6*%
X341500000Y-144500000D03*
%TD*%
%TO.C,KiKit_MB_17_2*%
X8000000Y-500000D03*
%TD*%
%TO.C,KiKit_MB_4_7*%
X141400000Y-144500000D03*
%TD*%
%TO.C,KiKit_MB_15_7*%
X197800000Y-144500000D03*
%TD*%
D10*
%TO.C,K_R_13*%
X239650557Y-20114285D03*
D11*
X240717356Y-17482472D03*
D12*
X244714897Y-19715713D03*
D11*
X246848495Y-14452087D03*
D10*
X249779237Y-19317141D03*
D47*
X237085438Y-17728187D03*
X250444228Y-14128972D03*
%TD*%
D15*
%TO.C,KiKit_MB_19_3*%
X8000000Y-149000000D03*
%TD*%
D31*
%TO.C,RE1*%
X147135167Y-86751489D03*
X158335167Y-86751489D03*
D32*
X150235167Y-94251489D03*
D10*
X155235164Y-94251489D03*
X152735167Y-94251489D03*
X155235167Y-79751489D03*
X150235170Y-79751489D03*
%TD*%
D15*
%TO.C,KiKit_MB_5_8*%
X271843094Y-77569735D03*
%TD*%
%TO.C,KiKit_MB_23_2*%
X337500000Y-8000000D03*
%TD*%
D10*
%TO.C,K_L_35*%
X38766581Y-67826726D03*
D11*
X41063014Y-66156129D03*
D12*
X43276683Y-70164541D03*
D11*
X47869549Y-66823346D03*
D10*
X47786785Y-72502356D03*
D48*
X37849774Y-64445489D03*
X51092971Y-68449155D03*
%TD*%
D15*
%TO.C,KiKit_MB_18_5*%
X334000000Y-3500000D03*
%TD*%
%TO.C,KiKit_MB_10_3*%
X132112691Y-16346916D03*
%TD*%
%TO.C,KiKit_MB_10_6*%
X135087310Y-17418851D03*
%TD*%
%TO.C,KiKit_MB_12_4*%
X207304230Y-17277755D03*
%TD*%
%TO.C,KiKit_MB_8_2*%
X77700000Y-8000000D03*
%TD*%
%TO.C,KiKit_MB_7_3*%
X333700000Y-70200000D03*
%TD*%
%TO.C,KiKit_MB_18_6*%
X334000000Y-4500000D03*
%TD*%
%TO.C,KiKit_MB_4_4*%
X144400000Y-144500000D03*
%TD*%
%TO.C,KiKit_MB_16_6*%
X324595351Y-38090133D03*
%TD*%
%TO.C,KiKit_MB_6_5*%
X65906157Y-75680514D03*
%TD*%
%TO.C,KiKit_MB_13_4*%
X60292613Y-10289405D03*
%TD*%
D10*
%TO.C,K_L_25*%
X46384479Y-49214236D03*
D11*
X48301747Y-47119341D03*
D12*
X51270125Y-50605949D03*
D11*
X55104661Y-46416160D03*
D10*
X56155771Y-51997662D03*
D49*
X44811967Y-46083660D03*
X58587506Y-47366683D03*
%TD*%
D15*
%TO.C,KiKit_MB_7_2*%
X333836051Y-69202293D03*
%TD*%
D10*
%TO.C,K_R_35*%
X294213215Y-72502356D03*
D11*
X294171833Y-69662851D03*
D12*
X298723317Y-70164541D03*
D11*
X298640553Y-64485531D03*
D10*
X303233419Y-67826726D03*
D50*
X290921777Y-71302466D03*
X301827159Y-62788697D03*
%TD*%
D10*
%TO.C,K_R_12*%
X220887241Y-28531552D03*
D11*
X221931033Y-25890530D03*
D12*
X225947910Y-28088801D03*
D11*
X228035493Y-22806756D03*
D10*
X231008579Y-27646050D03*
D51*
X218301397Y-26167929D03*
X231628270Y-22452276D03*
%TD*%
D15*
%TO.C,KiKit_MB_5_3*%
X276781531Y-75374876D03*
%TD*%
%TO.C,KiKit_MB_13_2*%
X58307388Y-10783028D03*
%TD*%
%TO.C,KiKit_MB_19_6*%
X8000000Y-152000000D03*
%TD*%
%TO.C,KiKit_MB_6_7*%
X63930782Y-74802570D03*
%TD*%
D10*
%TO.C,K_R_16*%
X301021963Y-27965954D03*
D11*
X302379834Y-25471823D03*
D12*
X306098868Y-28143243D03*
D11*
X308814610Y-23154982D03*
D10*
X311175773Y-28320532D03*
D52*
X298743447Y-25304813D03*
X312423807Y-23240994D03*
%TD*%
D10*
%TO.C,K_L_42*%
X135707837Y-107835037D03*
D11*
X138431614Y-107031581D03*
D12*
X139172389Y-111550314D03*
D11*
X144619942Y-109943401D03*
D10*
X142636941Y-115265591D03*
D53*
X135978394Y-104342173D03*
X147111210Y-112556307D03*
%TD*%
D15*
%TO.C,KiKit_MB_14_3*%
X257800000Y-8000000D03*
%TD*%
%TO.C,KiKit_MB_4_5*%
X143400000Y-144500000D03*
%TD*%
%TO.C,KiKit_MB_24_4*%
X339500000Y-144500000D03*
%TD*%
%TO.C,KiKit_MB_12_3*%
X206312690Y-17635067D03*
%TD*%
%TO.C,KiKit_MB_19_4*%
X8000000Y-150000000D03*
%TD*%
%TO.C,KiKit_MB_2_3*%
X18536608Y-34490133D03*
%TD*%
%TO.C,KiKit_MB_20_6*%
X334000000Y-152000000D03*
%TD*%
%TO.C,KiKit_MB_13_5*%
X61285226Y-10042593D03*
%TD*%
%TO.C,KiKit_MB_19_2*%
X8000000Y-148000000D03*
%TD*%
%TO.C,KiKit_MB_13_3*%
X59300000Y-10536217D03*
%TD*%
%TO.C,KiKit_MB_12_5*%
X208295769Y-16920444D03*
%TD*%
%TO.C,KiKit_MB_5_2*%
X277769218Y-74935903D03*
%TD*%
D54*
%TO.C,U1*%
X148095167Y-34271489D03*
X148095167Y-36811489D03*
D55*
X148095167Y-39351489D03*
X148095167Y-41891489D03*
D54*
X148095167Y-44431489D03*
X148095167Y-46971489D03*
X148095167Y-49511489D03*
X148095167Y-52051489D03*
X148095167Y-54591489D03*
X148095167Y-57131489D03*
X148095167Y-59671489D03*
X148095167Y-62211489D03*
D56*
X163335167Y-33001489D03*
D55*
X163335167Y-36811489D03*
D54*
X163335167Y-39351489D03*
X163335167Y-41891489D03*
X163335167Y-44431489D03*
X163335167Y-46971489D03*
X163335167Y-49511489D03*
X163335167Y-52051489D03*
X163335167Y-54591489D03*
X163335167Y-57131489D03*
X163335167Y-59671489D03*
X163335167Y-62211489D03*
X151168567Y-59117769D03*
X153708567Y-59117769D03*
X156248567Y-59117769D03*
D55*
X148095167Y-31731489D03*
D54*
X163335167Y-31731489D03*
%TD*%
D15*
%TO.C,KiKit_MB_13_1*%
X57314775Y-11029840D03*
%TD*%
D10*
%TO.C,K_L_44*%
X93443021Y-94382692D03*
D11*
X94623602Y-91799917D03*
D12*
X98519926Y-94205403D03*
D11*
X100881089Y-89039853D03*
D10*
X103596831Y-94028114D03*
D57*
X90984424Y-91886976D03*
X104487494Y-88873890D03*
%TD*%
D15*
%TO.C,KiKit_MB_6_6*%
X64918469Y-75241542D03*
%TD*%
%TO.C,KiKit_MB_5_5*%
X274806156Y-76252819D03*
%TD*%
D10*
%TO.C,K_L_26*%
X26089338Y-47834012D03*
D11*
X28089133Y-45817748D03*
D12*
X30915196Y-49420673D03*
D11*
X34914786Y-45388146D03*
D10*
X35741054Y-51007334D03*
D58*
X24643729Y-44642850D03*
X38356678Y-46477676D03*
%TD*%
D15*
%TO.C,KiKit_MB_2_4*%
X18848973Y-33496711D03*
%TD*%
D10*
%TO.C,K_L_24*%
X69485965Y-42639837D03*
D11*
X71294791Y-40450625D03*
D12*
X74435765Y-43782588D03*
D11*
X78053416Y-39404164D03*
D10*
X79385565Y-44925339D03*
D59*
X67757081Y-39592828D03*
X81579891Y-40177262D03*
%TD*%
D15*
%TO.C,KiKit_MB_7_5*%
X333427897Y-72195416D03*
%TD*%
%TO.C,KiKit_MB_21_3*%
X1500000Y-8000000D03*
%TD*%
%TO.C,KiKit_MB_4_1*%
X147400000Y-144500000D03*
%TD*%
D10*
%TO.C,K_R_21*%
X206697823Y-60621145D03*
D11*
X207315617Y-57849353D03*
D12*
X211626925Y-59392182D03*
D11*
X212862513Y-53848598D03*
D10*
X216556027Y-58163219D03*
D60*
X203774063Y-58691137D03*
X216355604Y-52936448D03*
%TD*%
D10*
%TO.C,KiKit_TO_1*%
X2500000Y-2500000D03*
%TD*%
D15*
%TO.C,KiKit_MB_2_1*%
X17911879Y-36476977D03*
%TD*%
D46*
%TO.C,LED1*%
X162000000Y-72000000D03*
X162000000Y-66920000D03*
X167080000Y-66920000D03*
X167080000Y-72000000D03*
%TD*%
D10*
%TO.C,K_R_15*%
X280146703Y-31280534D03*
D11*
X281144243Y-28621697D03*
D12*
X285198874Y-30749529D03*
D11*
X287193955Y-25431855D03*
D10*
X290251045Y-30218524D03*
D61*
X277520002Y-28962400D03*
X290779998Y-25014727D03*
%TD*%
D10*
%TO.C,K_R_23*%
X241870681Y-40470564D03*
D11*
X242680320Y-37748619D03*
D12*
X246873504Y-39588431D03*
D11*
X248492783Y-34144541D03*
D10*
X251876327Y-38706298D03*
D62*
X239088674Y-38341306D03*
X252040993Y-33478279D03*
%TD*%
D15*
%TO.C,KiKit_MB_5_7*%
X272830781Y-77130763D03*
%TD*%
%TO.C,KiKit_MB_15_10*%
X194800000Y-144500000D03*
%TD*%
D54*
%TO.C,U2*%
X178664833Y-34271489D03*
X178664833Y-36811489D03*
D55*
X178664833Y-39351489D03*
X178664833Y-41891489D03*
D54*
X178664833Y-44431489D03*
X178664833Y-46971489D03*
X178664833Y-49511489D03*
X178664833Y-52051489D03*
X178664833Y-54591489D03*
X178664833Y-57131489D03*
X178664833Y-59671489D03*
X178664833Y-62211489D03*
D56*
X193904833Y-33001489D03*
D55*
X193904833Y-36811489D03*
D54*
X193904833Y-39351489D03*
X193904833Y-41891489D03*
X193904833Y-44431489D03*
X193904833Y-46971489D03*
X193904833Y-49511489D03*
X193904833Y-52051489D03*
X193904833Y-54591489D03*
X193904833Y-57131489D03*
X193904833Y-59671489D03*
X193904833Y-62211489D03*
X181738233Y-59117769D03*
X184278233Y-59117769D03*
X186818233Y-59117769D03*
D55*
X178664833Y-31731489D03*
D54*
X193904833Y-31731489D03*
%TD*%
D10*
%TO.C,K_L_21*%
X125443973Y-58163219D03*
D11*
X127290730Y-56005908D03*
D12*
X130373075Y-59392182D03*
D11*
X134066589Y-55077561D03*
D10*
X135302177Y-60621145D03*
D63*
X123768530Y-55086501D03*
X137579034Y-55912088D03*
%TD*%
D10*
%TO.C,K_R_26*%
X306258946Y-51007334D03*
D11*
X306672080Y-48197740D03*
D12*
X311084804Y-49420673D03*
D11*
X311911072Y-43801484D03*
D10*
X315910662Y-47834012D03*
D64*
X303201689Y-49296641D03*
X315327977Y-42635956D03*
%TD*%
D10*
%TO.C,K_R_14*%
X259361536Y-24382023D03*
D11*
X260359076Y-21723186D03*
D12*
X264413707Y-23851018D03*
D11*
X266408788Y-18533344D03*
D10*
X269465878Y-23320013D03*
D61*
X256734835Y-22063889D03*
X269994831Y-18116216D03*
%TD*%
D15*
%TO.C,KiKit_MB_3_2*%
X8490597Y-71597708D03*
%TD*%
%TO.C,KiKit_MB_22_5*%
X3500000Y-144500000D03*
%TD*%
%TO.C,KiKit_MB_7_1*%
X333972102Y-68204585D03*
%TD*%
%TO.C,KiKit_MB_11_4*%
X286192612Y-11404650D03*
%TD*%
D10*
%TO.C,K_R_25*%
X285844229Y-51997662D03*
D11*
X286369784Y-49206911D03*
D12*
X290729875Y-50605949D03*
D11*
X291780985Y-45024447D03*
D10*
X295615521Y-49214236D03*
D65*
X282858087Y-50165653D03*
X295241913Y-43996984D03*
%TD*%
D10*
%TO.C,K_L_31*%
X119606034Y-76808512D03*
D11*
X121701936Y-74892345D03*
D12*
X124348623Y-78629021D03*
D11*
X128540426Y-74796687D03*
D10*
X129091212Y-80449530D03*
D66*
X118318038Y-73550542D03*
X131924986Y-76053053D03*
%TD*%
D15*
%TO.C,KiKit_MB_15_6*%
X198800000Y-144500000D03*
%TD*%
%TO.C,KiKit_MB_17_5*%
X8000000Y-3500000D03*
%TD*%
%TO.C,KiKit_MB_15_3*%
X201800000Y-144500000D03*
%TD*%
%TO.C,KiKit_MB_18_2*%
X334000000Y-500000D03*
%TD*%
%TO.C,KiKit_MB_16_2*%
X323345892Y-34116446D03*
%TD*%
%TO.C,KiKit_MB_6_4*%
X66893844Y-76119487D03*
%TD*%
%TO.C,KiKit_MB_20_4*%
X334000000Y-150000000D03*
%TD*%
%TO.C,KiKit_MB_9_5*%
X332043276Y-61776977D03*
%TD*%
D10*
%TO.C,KiKit_TO_2*%
X339500000Y-2500000D03*
%TD*%
D15*
%TO.C,KiKit_MB_11_5*%
X287185225Y-11651462D03*
%TD*%
%TO.C,KiKit_MB_4_8*%
X140400000Y-144500000D03*
%TD*%
%TO.C,KiKit_MB_22_4*%
X2500000Y-144500000D03*
%TD*%
%TO.C,KiKit_MB_1_3*%
X11018557Y-58400000D03*
%TD*%
%TO.C,KiKit_MB_15_4*%
X200800000Y-144500000D03*
%TD*%
%TO.C,KiKit_MB_3_4*%
X8218495Y-69602293D03*
%TD*%
%TO.C,KiKit_MB_6_1*%
X69856906Y-77436402D03*
%TD*%
%TO.C,KiKit_MB_8_4*%
X79700000Y-8000000D03*
%TD*%
%TO.C,KiKit_MB_16_4*%
X323970621Y-36103290D03*
%TD*%
%TO.C,KiKit_MB_21_2*%
X500000Y-8000000D03*
%TD*%
%TO.C,KiKit_MB_5_6*%
X273818468Y-76691791D03*
%TD*%
%TO.C,KiKit_MB_4_3*%
X145400000Y-144500000D03*
%TD*%
%TO.C,KiKit_MB_11_1*%
X283214774Y-10664215D03*
%TD*%
%TO.C,KiKit_MB_21_6*%
X4500000Y-8000000D03*
%TD*%
%TO.C,KiKit_MB_3_1*%
X8626648Y-72595416D03*
%TD*%
%TO.C,KiKit_MB_24_2*%
X337500000Y-144500000D03*
%TD*%
%TO.C,KiKit_MB_24_3*%
X338500000Y-144500000D03*
%TD*%
D10*
%TO.C,K_L_13*%
X92220763Y-19317141D03*
D11*
X93686134Y-16884614D03*
D12*
X97285103Y-19715713D03*
D11*
X100215845Y-14850659D03*
D10*
X102349443Y-20114285D03*
D67*
X90060493Y-16559146D03*
X103817855Y-15094020D03*
%TD*%
D10*
%TO.C,K_L_16*%
X30824227Y-28320532D03*
D11*
X32004808Y-25737757D03*
D12*
X35901132Y-28143243D03*
D11*
X38262295Y-22977693D03*
D10*
X40978037Y-27965954D03*
D57*
X28365630Y-25824816D03*
X41868700Y-22811730D03*
%TD*%
D10*
%TO.C,K_L_32*%
X103063908Y-65870043D03*
D11*
X105091659Y-63881897D03*
D12*
X107867142Y-67523929D03*
D11*
X111922645Y-63547638D03*
D10*
X112670376Y-69177815D03*
D34*
X101662995Y-62659008D03*
X115348990Y-64685118D03*
%TD*%
D15*
%TO.C,KiKit_MB_16_5*%
X324282986Y-37096711D03*
%TD*%
%TO.C,KiKit_MB_6_3*%
X67881532Y-76558458D03*
%TD*%
%TO.C,KiKit_MB_9_1*%
X330800022Y-57823024D03*
%TD*%
D10*
%TO.C,K_R_24*%
X262614435Y-44925339D03*
D11*
X263280509Y-42164752D03*
D12*
X267564235Y-43782588D03*
D11*
X268896384Y-38261412D03*
D10*
X272514035Y-42639837D03*
D68*
X259724804Y-42944599D03*
X272404862Y-37410364D03*
%TD*%
D15*
%TO.C,KiKit_MB_23_4*%
X339500000Y-8000000D03*
%TD*%
%TO.C,KiKit_MB_8_3*%
X78700000Y-8000000D03*
%TD*%
D10*
%TO.C,K_L_11*%
X129172153Y-38989707D03*
D11*
X130747186Y-36626707D03*
D12*
X134212980Y-39619362D03*
D11*
X137363049Y-34893363D03*
D10*
X139253807Y-40249017D03*
D69*
X127140214Y-36135845D03*
X140950169Y-35301122D03*
%TD*%
D15*
%TO.C,KiKit_MB_1_1*%
X10396930Y-60376977D03*
%TD*%
%TO.C,KiKit_MB_16_8*%
X325220080Y-40076977D03*
%TD*%
%TO.C,KiKit_MB_2_2*%
X18224244Y-35483555D03*
%TD*%
%TO.C,KiKit_MB_8_1*%
X76700000Y-8000000D03*
%TD*%
%TO.C,KiKit_MB_1_5*%
X11640184Y-56423024D03*
%TD*%
%TO.C,KiKit_MB_17_3*%
X8000000Y-1500000D03*
%TD*%
D10*
%TO.C,K_L_43*%
X116447303Y-96427739D03*
D11*
X118671765Y-94662443D03*
D12*
X121051347Y-98574640D03*
D11*
X125500270Y-95044047D03*
D10*
X125655391Y-100721541D03*
D70*
X115389709Y-93087860D03*
X128788946Y-96533446D03*
%TD*%
D15*
%TO.C,KiKit_MB_5_1*%
X278756905Y-74496931D03*
%TD*%
%TO.C,KiKit_MB_12_1*%
X204329610Y-18349690D03*
%TD*%
%TO.C,KiKit_MB_21_4*%
X2500000Y-8000000D03*
%TD*%
%TO.C,KiKit_MB_4_6*%
X142400000Y-144500000D03*
%TD*%
D10*
%TO.C,K_R_44*%
X238403169Y-94028114D03*
D11*
X239761040Y-91533983D03*
D12*
X243480074Y-94205403D03*
D11*
X246195816Y-89217142D03*
D10*
X248556979Y-94382692D03*
D52*
X236124653Y-91366973D03*
X249805013Y-89303154D03*
%TD*%
D15*
%TO.C,KiKit_MB_2_5*%
X19161337Y-32503290D03*
%TD*%
D10*
%TO.C,K_R_32*%
X229329624Y-69177815D03*
D11*
X229703489Y-66362726D03*
D12*
X234132858Y-67523929D03*
D11*
X234880589Y-61893752D03*
D10*
X238936092Y-65870043D03*
D27*
X226248779Y-67509974D03*
X238280888Y-60680629D03*
%TD*%
D10*
%TO.C,KiKit_TO_3*%
X2500000Y-150000000D03*
%TD*%
D15*
%TO.C,KiKit_MB_15_1*%
X203800000Y-144500000D03*
%TD*%
%TO.C,KiKit_MB_21_5*%
X3500000Y-8000000D03*
%TD*%
D10*
%TO.C,K_L_15*%
X51748955Y-30218524D03*
D11*
X53277500Y-27825190D03*
D12*
X56801126Y-30749529D03*
D11*
X59858216Y-25962860D03*
D10*
X61853297Y-31280534D03*
D17*
X49661621Y-27404925D03*
X63452622Y-26300427D03*
%TD*%
D15*
%TO.C,KiKit_MB_6_8*%
X62943095Y-74363598D03*
%TD*%
%TO.C,KiKit_MB_16_1*%
X323033527Y-33123024D03*
%TD*%
%TO.C,KiKit_MB_24_5*%
X340500000Y-144500000D03*
%TD*%
%TO.C,KiKit_MB_14_4*%
X258800000Y-8000000D03*
%TD*%
%TO.C,KiKit_MB_12_8*%
X211270389Y-15848509D03*
%TD*%
%TO.C,KiKit_MB_17_4*%
X8000000Y-2500000D03*
%TD*%
D71*
%TO.C,D_L_41*%
X145507055Y-131021416D03*
X146492945Y-132875606D03*
%TD*%
D10*
%TO.C,SW3*%
X201750000Y-25000000D03*
X195250000Y-25000000D03*
%TD*%
D72*
%TO.C,D_R_33*%
X253548628Y-65499748D03*
X255534218Y-64816054D03*
%TD*%
D73*
%TO.C,D_L_25*%
X48440172Y-56345214D03*
X50459828Y-56920528D03*
%TD*%
D74*
%TO.C,D_L_32*%
X104965782Y-73316054D03*
X106951372Y-73999748D03*
%TD*%
D75*
%TO.C,D_L_24*%
X71976910Y-49763801D03*
X74023090Y-50236199D03*
%TD*%
D76*
%TO.C,D_L_43*%
X117487936Y-103709732D03*
X119391182Y-104597230D03*
%TD*%
D77*
%TO.C,D_R_21*%
X212046022Y-65754018D03*
X214083644Y-65245982D03*
%TD*%
D78*
%TO.C,KiKit_FID_B_3*%
X6000000Y-150000000D03*
%TD*%
D79*
%TO.C,D_L_11*%
X132458097Y-45869855D03*
X134541903Y-46130145D03*
%TD*%
D80*
%TO.C,R7*%
X163450000Y-65000000D03*
X162550000Y-65000000D03*
%TD*%
D81*
%TO.C,D_L_44*%
X97450640Y-100485155D03*
X99549360Y-100411867D03*
%TD*%
D80*
%TO.C,R10*%
X175450000Y-69500000D03*
X174550000Y-69500000D03*
%TD*%
D82*
%TO.C,D_R_16*%
X304950640Y-34463356D03*
X307049360Y-34536644D03*
%TD*%
D83*
%TO.C,D_L_26*%
X27963264Y-54823530D03*
X29958206Y-55479434D03*
%TD*%
D84*
%TO.C,D_L_15*%
X55105752Y-36890245D03*
X57194248Y-37109755D03*
%TD*%
D82*
%TO.C,D_R_44*%
X242450640Y-100411867D03*
X244549360Y-100485155D03*
%TD*%
D85*
%TO.C,J7*%
X244478238Y-111858975D03*
D86*
X245478238Y-113591026D03*
%TD*%
D78*
%TO.C,KiKit_FID_B_1*%
X6000000Y-2500000D03*
%TD*%
D87*
%TO.C,D_L_12*%
X114453996Y-34408484D03*
X116546004Y-34591516D03*
%TD*%
D88*
%TO.C,D_R_36*%
X321654224Y-74271759D03*
X323495350Y-73261683D03*
%TD*%
D89*
%TO.C,D_L_46*%
X121950000Y-122948511D03*
X124050000Y-122948511D03*
%TD*%
D80*
%TO.C,R8*%
X179450000Y-65000000D03*
X178550000Y-65000000D03*
%TD*%
D90*
%TO.C,D_R_41*%
X195507055Y-132875606D03*
X196492945Y-131021416D03*
%TD*%
D91*
%TO.C,D_R_43*%
X222608818Y-104597230D03*
X224512064Y-103709732D03*
%TD*%
D92*
%TO.C,D_R_23*%
X246988320Y-46266551D03*
X249056416Y-45901889D03*
%TD*%
D93*
%TO.C,D_L_34*%
X64561928Y-70570362D03*
X66515804Y-71340014D03*
%TD*%
D78*
%TO.C,KiKit_FID_B_4*%
X336000000Y-150000000D03*
%TD*%
D94*
%TO.C,D_R_13*%
X244018070Y-26082382D03*
X246111596Y-25917618D03*
%TD*%
D72*
%TO.C,D_R_32*%
X235048628Y-73999748D03*
X237034218Y-73316054D03*
%TD*%
D95*
%TO.C,D_R_15*%
X284805752Y-37109755D03*
X286894248Y-36890245D03*
%TD*%
D96*
%TO.C,D_L_31*%
X120954908Y-83797523D03*
X122915426Y-84550095D03*
%TD*%
D97*
%TO.C,D_R_42*%
X206783902Y-116216432D03*
X208216098Y-114680590D03*
%TD*%
D98*
%TO.C,D_R_26*%
X312041794Y-55479434D03*
X314036736Y-54823530D03*
%TD*%
D99*
%TO.C,D_R_35*%
X300637191Y-76206383D03*
X302501621Y-75239995D03*
%TD*%
D100*
%TO.C,D_L_35*%
X39498379Y-75239995D03*
X41362809Y-76206383D03*
%TD*%
D95*
%TO.C,D_R_14*%
X264420585Y-30609755D03*
X266509081Y-30390245D03*
%TD*%
D10*
%TO.C,SW1*%
X146750000Y-25000000D03*
X140250000Y-25000000D03*
%TD*%
D101*
%TO.C,D_R_22*%
X228970715Y-54207540D03*
X231029285Y-53792460D03*
%TD*%
D102*
%TO.C,D_R_24*%
X267976910Y-50236199D03*
X270023090Y-49763801D03*
%TD*%
D80*
%TO.C,R6*%
X166100000Y-65000000D03*
X167000000Y-65000000D03*
%TD*%
D89*
%TO.C,D_R_46*%
X217950000Y-122948511D03*
X220050000Y-122948511D03*
%TD*%
D74*
%TO.C,D_L_33*%
X86465782Y-64816054D03*
X88451372Y-65499748D03*
%TD*%
D103*
%TO.C,D_L_13*%
X95888404Y-25917618D03*
X97981930Y-26082382D03*
%TD*%
D84*
%TO.C,D_L_14*%
X75490919Y-30390245D03*
X77579415Y-30609755D03*
%TD*%
D104*
%TO.C,D_L_42*%
X133783902Y-114680590D03*
X135216098Y-116216432D03*
%TD*%
D105*
%TO.C,D_L_21*%
X127916356Y-65245982D03*
X129953978Y-65754018D03*
%TD*%
D78*
%TO.C,KiKit_FID_B_2*%
X336000000Y-2500000D03*
%TD*%
D106*
%TO.C,D_L_22*%
X110970715Y-53792460D03*
X113029285Y-54207540D03*
%TD*%
D107*
%TO.C,D_R_25*%
X291540172Y-56920528D03*
X293559828Y-56345214D03*
%TD*%
D108*
%TO.C,D_R_12*%
X225453996Y-34591516D03*
X227546004Y-34408484D03*
%TD*%
D109*
%TO.C,D_R_11*%
X207458097Y-46130145D03*
X209541903Y-45869855D03*
%TD*%
D110*
%TO.C,D_R_34*%
X275484196Y-71340014D03*
X277438072Y-70570362D03*
%TD*%
D81*
%TO.C,D_L_16*%
X34950640Y-34536644D03*
X37049360Y-34463356D03*
%TD*%
D80*
%TO.C,R9*%
X175950000Y-65000000D03*
X175050000Y-65000000D03*
%TD*%
%TO.C,R5*%
X166050000Y-69250000D03*
X166950000Y-69250000D03*
%TD*%
D111*
%TO.C,D_R_31*%
X219084574Y-84550095D03*
X221045092Y-83797523D03*
%TD*%
D89*
%TO.C,D_R_45*%
X184650000Y-75500000D03*
X186750000Y-75500000D03*
%TD*%
D112*
%TO.C,J8*%
X97021762Y-113891026D03*
D113*
X98021762Y-112158975D03*
%TD*%
D89*
%TO.C,D_L_45*%
X148050000Y-75750000D03*
X150150000Y-75750000D03*
%TD*%
D114*
%TO.C,D_L_23*%
X92943584Y-45901889D03*
X95011680Y-46266551D03*
%TD*%
D115*
%TO.C,D_L_36*%
X18504650Y-73261683D03*
X20345776Y-74271759D03*
%TD*%
M02*
