%TF.GenerationSoftware,KiCad,Pcbnew,10.0.2*%
%TF.CreationDate,2026-05-17T22:07:33+09:00*%
%TF.ProjectId,ErgoNexus_kikit,4572676f-4e65-4787-9573-5f6b696b6974,rev?*%
%TF.SameCoordinates,Original*%
%TF.FileFunction,Copper,L2,Bot*%
%TF.FilePolarity,Positive*%
%FSLAX46Y46*%
G04 Gerber Fmt 4.6, Leading zero omitted, Abs format (unit mm)*
G04 Created by KiCad (PCBNEW 10.0.2) date 2026-05-17 22:07:33*
%MOMM*%
%LPD*%
G01*
G04 APERTURE LIST*
G04 Aperture macros list*
%AMRoundRect*
0 Rectangle with rounded corners*
0 $1 Rounding radius*
0 $2 $3 $4 $5 $6 $7 $8 $9 X,Y pos of 4 corners*
0 Add a 4 corners polygon primitive as box body*
4,1,4,$2,$3,$4,$5,$6,$7,$8,$9,$2,$3,0*
0 Add four circle primitives for the rounded corners*
1,1,$1+$1,$2,$3*
1,1,$1+$1,$4,$5*
1,1,$1+$1,$6,$7*
1,1,$1+$1,$8,$9*
0 Add four rect primitives between the rounded corners*
20,1,$1+$1,$2,$3,$4,$5,0*
20,1,$1+$1,$4,$5,$6,$7,0*
20,1,$1+$1,$6,$7,$8,$9,0*
20,1,$1+$1,$8,$9,$2,$3,0*%
%AMHorizOval*
0 Thick line with rounded ends*
0 $1 width*
0 $2 $3 position (X,Y) of the first rounded end (center of the circle)*
0 $4 $5 position (X,Y) of the second rounded end (center of the circle)*
0 Add line between two ends*
20,1,$1,$2,$3,$4,$5,0*
0 Add two circle primitives to create the rounded ends*
1,1,$1,$2,$3*
1,1,$1,$4,$5*%
%AMRotRect*
0 Rectangle, with rotation*
0 The origin of the aperture is its center*
0 $1 length*
0 $2 width*
0 $3 Rotation angle, in degrees counterclockwise*
0 Add horizontal line*
21,1,$1,$2,0,0,$3*%
G04 Aperture macros list end*
%TA.AperFunction,SMDPad,CuDef*%
%ADD10RotRect,3.300000X3.000000X170.000000*%
%TD*%
%TA.AperFunction,SMDPad,CuDef*%
%ADD11RotRect,3.300000X3.000000X168.600000*%
%TD*%
%TA.AperFunction,SMDPad,CuDef*%
%ADD12RotRect,3.300000X3.000000X191.400000*%
%TD*%
%TA.AperFunction,SMDPad,CuDef*%
%ADD13RotRect,3.300000X3.000000X174.000000*%
%TD*%
%TA.AperFunction,SMDPad,CuDef*%
%ADD14RotRect,3.300000X3.000000X201.000000*%
%TD*%
%TA.AperFunction,SMDPad,CuDef*%
%ADD15RotRect,3.300000X3.000000X175.000000*%
%TD*%
%TA.AperFunction,ComponentPad*%
%ADD16RoundRect,0.300000X-0.487120X0.461210X-0.076696X-0.666422X0.487120X-0.461210X0.076696X0.666422X0*%
%TD*%
%TA.AperFunction,ComponentPad*%
%ADD17RoundRect,0.375000X-0.224127X-0.480642X0.480642X-0.224127X0.224127X0.480642X-0.480642X0.224127X0*%
%TD*%
%TA.AperFunction,SMDPad,CuDef*%
%ADD18RotRect,3.300000X3.000000X199.000000*%
%TD*%
%TA.AperFunction,SMDPad,CuDef*%
%ADD19RotRect,3.300000X3.000000X242.000000*%
%TD*%
%TA.AperFunction,SMDPad,CuDef*%
%ADD20RotRect,3.300000X3.000000X208.750000*%
%TD*%
%TA.AperFunction,SMDPad,CuDef*%
%ADD21RotRect,3.300000X3.000000X151.250000*%
%TD*%
%TA.AperFunction,WasherPad*%
%ADD22O,2.000000X3.200000*%
%TD*%
%TA.AperFunction,ComponentPad*%
%ADD23R,2.000000X2.000000*%
%TD*%
%TA.AperFunction,ComponentPad*%
%ADD24C,2.000000*%
%TD*%
%TA.AperFunction,SMDPad,CuDef*%
%ADD25RotRect,3.300000X3.000000X187.120000*%
%TD*%
%TA.AperFunction,SMDPad,CuDef*%
%ADD26RotRect,3.300000X3.000000X161.000000*%
%TD*%
%TA.AperFunction,SMDPad,CuDef*%
%ADD27RotRect,3.300000X3.000000X205.000000*%
%TD*%
%TA.AperFunction,SMDPad,CuDef*%
%ADD28RotRect,3.300000X3.000000X118.000000*%
%TD*%
%TA.AperFunction,SMDPad,CuDef*%
%ADD29RotRect,3.300000X3.000000X201.500000*%
%TD*%
%TA.AperFunction,ComponentPad*%
%ADD30RoundRect,0.300000X-0.076696X0.666422X-0.487120X-0.461210X0.076696X-0.666422X0.487120X0.461210X0*%
%TD*%
%TA.AperFunction,ComponentPad*%
%ADD31RoundRect,0.375000X-0.480642X-0.224127X0.224127X-0.480642X0.480642X0.224127X-0.224127X0.480642X0*%
%TD*%
%TA.AperFunction,SMDPad,CuDef*%
%ADD32RotRect,3.300000X3.000000X158.500000*%
%TD*%
%TA.AperFunction,SMDPad,CuDef*%
%ADD33RotRect,3.300000X3.000000X227.000000*%
%TD*%
%TA.AperFunction,ComponentPad*%
%ADD34C,1.905000*%
%TD*%
%TA.AperFunction,SMDPad,CuDef*%
%ADD35RotRect,3.300000X3.000000X184.500000*%
%TD*%
%TA.AperFunction,SMDPad,CuDef*%
%ADD36RotRect,3.300000X3.000000X152.600000*%
%TD*%
%TA.AperFunction,SMDPad,CuDef*%
%ADD37RotRect,3.300000X3.000000X164.100000*%
%TD*%
%TA.AperFunction,SMDPad,CuDef*%
%ADD38RotRect,3.300000X3.000000X207.400000*%
%TD*%
%TA.AperFunction,SMDPad,CuDef*%
%ADD39RotRect,3.300000X3.000000X185.000000*%
%TD*%
%TA.AperFunction,SMDPad,CuDef*%
%ADD40RotRect,3.300000X3.000000X178.000000*%
%TD*%
%TA.AperFunction,SMDPad,CuDef*%
%ADD41RotRect,3.300000X3.000000X133.000000*%
%TD*%
%TA.AperFunction,ComponentPad*%
%ADD42C,1.800000*%
%TD*%
%TA.AperFunction,ComponentPad*%
%ADD43RoundRect,0.450000X-0.450000X-0.450000X0.450000X-0.450000X0.450000X0.450000X-0.450000X0.450000X0*%
%TD*%
%TA.AperFunction,ComponentPad*%
%ADD44O,1.800000X4.340000*%
%TD*%
%TA.AperFunction,SMDPad,CuDef*%
%ADD45RotRect,3.300000X3.000000X182.000000*%
%TD*%
%TA.AperFunction,SMDPad,CuDef*%
%ADD46RotRect,3.300000X3.000000X161.800000*%
%TD*%
%TA.AperFunction,SMDPad,CuDef*%
%ADD47RotRect,3.300000X3.000000X167.000000*%
%TD*%
%TA.AperFunction,SMDPad,CuDef*%
%ADD48RotRect,3.300000X3.000000X194.000000*%
%TD*%
%TA.AperFunction,SMDPad,CuDef*%
%ADD49RotRect,3.300000X3.000000X186.000000*%
%TD*%
%TA.AperFunction,SMDPad,CuDef*%
%ADD50RotRect,3.300000X3.000000X190.000000*%
%TD*%
%TA.AperFunction,SMDPad,CuDef*%
%ADD51RotRect,3.300000X3.000000X166.000000*%
%TD*%
%TA.AperFunction,SMDPad,CuDef*%
%ADD52RotRect,3.300000X3.000000X198.200000*%
%TD*%
%TA.AperFunction,SMDPad,CuDef*%
%ADD53RotRect,3.300000X3.000000X195.900000*%
%TD*%
%TA.AperFunction,SMDPad,CuDef*%
%ADD54RotRect,3.300000X3.000000X159.000000*%
%TD*%
%TA.AperFunction,SMDPad,CuDef*%
%ADD55RotRect,3.300000X3.000000X175.500000*%
%TD*%
%TA.AperFunction,SMDPad,CuDef*%
%ADD56RotRect,3.300000X3.000000X193.000000*%
%TD*%
%TA.AperFunction,SMDPad,CuDef*%
%ADD57RotRect,3.300000X3.000000X172.880000*%
%TD*%
%TA.AperFunction,SMDPad,CuDef*%
%ADD58RotRect,3.300000X3.000000X155.000000*%
%TD*%
%TA.AperFunction,SMDPad,CuDef*%
%ADD59RotRect,0.600000X0.450000X298.000000*%
%TD*%
%TA.AperFunction,SMDPad,CuDef*%
%ADD60RotRect,0.600000X0.450000X19.000000*%
%TD*%
%TA.AperFunction,SMDPad,CuDef*%
%ADD61RotRect,0.600000X0.450000X344.100000*%
%TD*%
%TA.AperFunction,SMDPad,CuDef*%
%ADD62RotRect,0.600000X0.450000X341.000000*%
%TD*%
%TA.AperFunction,SMDPad,CuDef*%
%ADD63RotRect,0.600000X0.450000X347.000000*%
%TD*%
%TA.AperFunction,SMDPad,CuDef*%
%ADD64RotRect,0.600000X0.450000X335.000000*%
%TD*%
%TA.AperFunction,SMDPad,CuDef*%
%ADD65RotRect,0.600000X0.450000X14.000000*%
%TD*%
%TA.AperFunction,SMDPad,CuDef*%
%ADD66C,2.000000*%
%TD*%
%TA.AperFunction,SMDPad,CuDef*%
%ADD67RotRect,0.600000X0.450000X352.880000*%
%TD*%
%TA.AperFunction,SMDPad,CuDef*%
%ADD68R,0.400000X0.600000*%
%TD*%
%TA.AperFunction,SMDPad,CuDef*%
%ADD69RotRect,0.600000X0.450000X2.000000*%
%TD*%
%TA.AperFunction,SMDPad,CuDef*%
%ADD70RotRect,0.600000X0.450000X358.000000*%
%TD*%
%TA.AperFunction,SMDPad,CuDef*%
%ADD71RotRect,0.600000X0.450000X341.800000*%
%TD*%
%TA.AperFunction,SMDPad,CuDef*%
%ADD72RotRect,0.600000X0.450000X354.000000*%
%TD*%
%TA.AperFunction,ComponentPad*%
%ADD73RoundRect,0.250000X-0.716266X-0.009391X-0.366266X-0.615609X0.716266X0.009391X0.366266X0.615609X0*%
%TD*%
%TA.AperFunction,ComponentPad*%
%ADD74HorizOval,1.200000X-0.238157X-0.137500X0.238157X0.137500X0*%
%TD*%
%TA.AperFunction,SMDPad,CuDef*%
%ADD75RotRect,0.600000X0.450000X355.000000*%
%TD*%
%TA.AperFunction,SMDPad,CuDef*%
%ADD76RotRect,0.600000X0.450000X28.750000*%
%TD*%
%TA.AperFunction,SMDPad,CuDef*%
%ADD77R,0.600000X0.450000*%
%TD*%
%TA.AperFunction,SMDPad,CuDef*%
%ADD78RotRect,0.600000X0.450000X62.000000*%
%TD*%
%TA.AperFunction,SMDPad,CuDef*%
%ADD79RotRect,0.600000X0.450000X25.000000*%
%TD*%
%TA.AperFunction,SMDPad,CuDef*%
%ADD80RotRect,0.600000X0.450000X10.000000*%
%TD*%
%TA.AperFunction,SMDPad,CuDef*%
%ADD81RotRect,0.600000X0.450000X338.500000*%
%TD*%
%TA.AperFunction,SMDPad,CuDef*%
%ADD82RotRect,0.600000X0.450000X4.500000*%
%TD*%
%TA.AperFunction,SMDPad,CuDef*%
%ADD83RotRect,0.600000X0.450000X6.000000*%
%TD*%
%TA.AperFunction,SMDPad,CuDef*%
%ADD84RotRect,0.600000X0.450000X339.000000*%
%TD*%
%TA.AperFunction,SMDPad,CuDef*%
%ADD85RotRect,0.600000X0.450000X47.000000*%
%TD*%
%TA.AperFunction,SMDPad,CuDef*%
%ADD86RotRect,0.600000X0.450000X18.200000*%
%TD*%
%TA.AperFunction,SMDPad,CuDef*%
%ADD87RotRect,0.600000X0.450000X27.399000*%
%TD*%
%TA.AperFunction,SMDPad,CuDef*%
%ADD88RotRect,0.600000X0.450000X332.601000*%
%TD*%
%TA.AperFunction,SMDPad,CuDef*%
%ADD89RotRect,0.600000X0.450000X11.400000*%
%TD*%
%TA.AperFunction,SMDPad,CuDef*%
%ADD90RotRect,0.600000X0.450000X13.000000*%
%TD*%
%TA.AperFunction,SMDPad,CuDef*%
%ADD91RotRect,0.600000X0.450000X355.500000*%
%TD*%
%TA.AperFunction,SMDPad,CuDef*%
%ADD92RotRect,0.600000X0.450000X313.000000*%
%TD*%
%TA.AperFunction,SMDPad,CuDef*%
%ADD93RotRect,0.600000X0.450000X346.000000*%
%TD*%
%TA.AperFunction,SMDPad,CuDef*%
%ADD94RotRect,0.600000X0.450000X348.600000*%
%TD*%
%TA.AperFunction,SMDPad,CuDef*%
%ADD95RotRect,0.600000X0.450000X15.900000*%
%TD*%
%TA.AperFunction,SMDPad,CuDef*%
%ADD96RotRect,0.600000X0.450000X5.000000*%
%TD*%
%TA.AperFunction,SMDPad,CuDef*%
%ADD97RotRect,0.600000X0.450000X7.120000*%
%TD*%
%TA.AperFunction,SMDPad,CuDef*%
%ADD98RotRect,0.600000X0.450000X21.500000*%
%TD*%
%TA.AperFunction,SMDPad,CuDef*%
%ADD99RotRect,0.600000X0.450000X21.000000*%
%TD*%
%TA.AperFunction,ComponentPad*%
%ADD100RoundRect,0.250000X0.366266X-0.615609X0.716266X-0.009391X-0.366266X0.615609X-0.716266X0.009391X0*%
%TD*%
%TA.AperFunction,ComponentPad*%
%ADD101HorizOval,1.200000X-0.238157X0.137500X0.238157X-0.137500X0*%
%TD*%
%TA.AperFunction,SMDPad,CuDef*%
%ADD102RotRect,0.600000X0.450000X350.000000*%
%TD*%
%TA.AperFunction,SMDPad,CuDef*%
%ADD103RotRect,0.600000X0.450000X331.250000*%
%TD*%
%TA.AperFunction,ViaPad*%
%ADD104C,0.600000*%
%TD*%
%TA.AperFunction,Conductor*%
%ADD105C,0.250000*%
%TD*%
%TA.AperFunction,Conductor*%
%ADD106C,0.500000*%
%TD*%
G04 APERTURE END LIST*
D10*
%TO.P,K_L_23,1,1_1*%
%TO.N,Board_0-Col3_L*%
X88237691Y-35753948D03*
%TO.P,K_L_23,2,2_2*%
%TO.N,Board_0-Net-(D_L_23-A)*%
X102072142Y-35614152D03*
%TD*%
D11*
%TO.P,K_L_22,1,1_1*%
%TO.N,Board_0-Col2_L*%
X106343946Y-43963354D03*
%TO.P,K_L_22,2,2_2*%
%TO.N,Board_0-Net-(D_L_22-A)*%
X120177683Y-44161605D03*
%TD*%
D12*
%TO.P,K_R_22,1,1_1*%
%TO.N,Board_0-Col2_R*%
X221050014Y-46908449D03*
%TO.P,K_R_22,2,2_2*%
%TO.N,Board_0-Net-(D_R_22-A)*%
X233879652Y-41730420D03*
%TD*%
D13*
%TO.P,K_L_14,1,1_1*%
%TO.N,Board_0-Col4_L*%
X70446788Y-20506414D03*
%TO.P,K_L_14,2,2_2*%
%TO.N,Board_0-Net-(D_L_14-A)*%
X84237789Y-19401916D03*
%TD*%
D14*
%TO.P,K_R_31,1,1_1*%
%TO.N,Board_0-Col1_R*%
X209771614Y-78890225D03*
%TO.P,K_R_31,2,2_2*%
%TO.N,Board_0-Net-(D_R_31-A)*%
X221558053Y-71645126D03*
%TD*%
D15*
%TO.P,K_L_12,1,1_1*%
%TO.N,Board_0-Col2_L*%
X108855301Y-24869308D03*
%TO.P,K_L_12,2,2_2*%
%TO.N,Board_0-Net-(D_L_12-A)*%
X122624925Y-23524292D03*
%TD*%
D16*
%TO.P,RE4,1,1_1*%
%TO.N,Board_0-Col6_R*%
X233168082Y-119191462D03*
%TO.P,RE4,2,2_2*%
%TO.N,Board_0-K_R_46_out*%
X234878181Y-123889926D03*
D17*
%TO.P,RE4,A,A_A*%
%TO.N,Board_0-Ro2_A_R*%
X231484895Y-107257436D03*
%TO.P,RE4,B,B_B*%
%TO.N,Board_0-Ro2_B_R*%
X229132243Y-108103090D03*
%TO.P,RE4,C,C_C*%
%TO.N,Board_0-GND_R*%
X226779591Y-108948743D03*
%TD*%
D18*
%TO.P,K_R_33,1,1_1*%
%TO.N,Board_0-Col3_R*%
X243948779Y-59509974D03*
%TO.P,K_R_33,2,2_2*%
%TO.N,Board_0-Net-(D_R_33-A)*%
X255980888Y-52680629D03*
%TD*%
D19*
%TO.P,K_R_41,1,1_1*%
%TO.N,Board_0-Col1_R*%
X184681806Y-134400273D03*
%TO.P,K_R_41,2,2_2*%
%TO.N,Board_0-Net-(D_R_41-A)*%
X188823932Y-121199728D03*
%TD*%
D20*
%TO.P,K_R_36,1,1_1*%
%TO.N,Board_0-Col6_R*%
X311835706Y-69629011D03*
%TO.P,K_R_36,2,2_2*%
%TO.N,Board_0-Net-(D_R_36-A)*%
X322537478Y-60860678D03*
%TD*%
D21*
%TO.P,K_L_36,1,1_1*%
%TO.N,Board_0-Col6_L*%
X17101066Y-62462279D03*
%TO.P,K_L_36,2,2_2*%
%TO.N,Board_0-Net-(D_L_36-A)*%
X30246261Y-66776840D03*
%TD*%
D22*
%TO.P,RE3,*%
%TO.N,*%
X183664833Y-86751489D03*
X194864833Y-86751489D03*
D23*
%TO.P,RE3,A,A_A*%
%TO.N,Board_0-Ro1_A_R*%
X186764833Y-94251489D03*
D24*
%TO.P,RE3,B,B_B*%
%TO.N,Board_0-Ro1_B_R*%
X191764833Y-94251489D03*
%TO.P,RE3,C,C_C*%
%TO.N,Board_0-GND_R*%
X189264833Y-94251489D03*
%TO.P,RE3,S1,S1_S1*%
%TO.N,Board_0-Col5_R*%
X191764833Y-79751489D03*
%TO.P,RE3,S2,S2_S2*%
%TO.N,Board_0-K_R_45_out*%
X186764833Y-79751489D03*
%TD*%
D25*
%TO.P,K_R_11,1,1_1*%
%TO.N,Board_0-Col1_R*%
X200074683Y-37982669D03*
%TO.P,K_R_11,2,2_2*%
%TO.N,Board_0-Net-(D_R_11-A)*%
X213254983Y-33776564D03*
%TD*%
D26*
%TO.P,K_L_33,1,1_1*%
%TO.N,Board_0-Col3_L*%
X83962995Y-54659008D03*
%TO.P,K_L_33,2,2_2*%
%TO.N,Board_0-Net-(D_L_33-A)*%
X97648990Y-56685118D03*
%TD*%
D27*
%TO.P,K_R_43,1,1_1*%
%TO.N,Board_0-Col3_R*%
X213106304Y-99384872D03*
%TO.P,K_R_43,2,2_2*%
%TO.N,Board_0-Net-(D_R_43-A)*%
X224358641Y-91335242D03*
%TD*%
D28*
%TO.P,K_L_41,1,1_1*%
%TO.N,Board_0-Col1_L*%
X150323068Y-121244354D03*
%TO.P,K_L_41,2,2_2*%
%TO.N,Board_0-Net-(D_L_41-A)*%
X158950568Y-132059983D03*
%TD*%
D29*
%TO.P,K_R_34,1,1_1*%
%TO.N,Board_0-Col4_R*%
X265803450Y-63559570D03*
%TO.P,K_R_34,2,2_2*%
%TO.N,Board_0-Net-(D_R_34-A)*%
X277526216Y-56211892D03*
%TD*%
D30*
%TO.P,RE2,1,1_1*%
%TO.N,Board_0-Col6_L*%
X108831918Y-119191462D03*
%TO.P,RE2,2,2_2*%
%TO.N,Board_0-K_L_46_out*%
X107121819Y-123889926D03*
D31*
%TO.P,RE2,A,A_A*%
%TO.N,Board_0-Ro2_A_L*%
X115213568Y-108967538D03*
%TO.P,RE2,B,B_B*%
%TO.N,Board_0-Ro2_B_L*%
X112867757Y-108103090D03*
%TO.P,RE2,C,C_C*%
%TO.N,Board_0-GND_L*%
X110521946Y-107238642D03*
%TD*%
D32*
%TO.P,K_L_34,1,1_1*%
%TO.N,Board_0-Col4_L*%
X62333328Y-58098701D03*
%TO.P,K_L_34,2,2_2*%
%TO.N,Board_0-Net-(D_L_34-A)*%
X75917920Y-60719858D03*
%TD*%
D33*
%TO.P,K_R_42,1,1_1*%
%TO.N,Board_0-Col2_R*%
X195859831Y-115239343D03*
%TO.P,K_R_42,2,2_2*%
%TO.N,Board_0-Net-(D_R_42-A)*%
X203277370Y-103560657D03*
%TD*%
D34*
%TO.P,LED2,1,A_1*%
%TO.N,Board_0-EXT_VCC_R*%
X180000000Y-72000000D03*
%TO.P,LED2,2,BK_2*%
%TO.N,Board_0-Net-(LED2-BK)*%
X174920000Y-72000000D03*
%TO.P,LED2,3,GK_3*%
%TO.N,Board_0-Net-(LED2-GK)*%
X174920000Y-66920000D03*
%TO.P,LED2,4,RK_4*%
%TO.N,Board_0-Net-(LED2-RK)*%
X180000000Y-66920000D03*
%TD*%
D35*
%TO.P,K_R_13,1,1_1*%
%TO.N,Board_0-Col3_R*%
X237085438Y-17728187D03*
%TO.P,K_R_13,2,2_2*%
%TO.N,Board_0-Net-(D_R_13-A)*%
X250444228Y-14128972D03*
%TD*%
D22*
%TO.P,RE1,*%
%TO.N,*%
X147135167Y-86751489D03*
X158335167Y-86751489D03*
D23*
%TO.P,RE1,A,A_A*%
%TO.N,Board_0-Ro1_A_L*%
X150235167Y-94251489D03*
D24*
%TO.P,RE1,B,B_B*%
%TO.N,Board_0-Ro1_B_L*%
X155235164Y-94251489D03*
%TO.P,RE1,C,C_C*%
%TO.N,Board_0-GND_L*%
X152735167Y-94251489D03*
%TO.P,RE1,S1,S1_S1*%
%TO.N,Board_0-Col5_L*%
X155235167Y-79751489D03*
%TO.P,RE1,S2,S2_S2*%
%TO.N,Board_0-K_L_45_out*%
X150235170Y-79751489D03*
%TD*%
D36*
%TO.P,K_L_35,1,1_1*%
%TO.N,Board_0-Col5_L*%
X37849774Y-64445489D03*
%TO.P,K_L_35,2,2_2*%
%TO.N,Board_0-Net-(D_L_35-A)*%
X51092971Y-68449155D03*
%TD*%
D37*
%TO.P,K_L_25,1,1_1*%
%TO.N,Board_0-Col5_L*%
X44811967Y-46083660D03*
%TO.P,K_L_25,2,2_2*%
%TO.N,Board_0-Net-(D_L_25-A)*%
X58587506Y-47366683D03*
%TD*%
D38*
%TO.P,K_R_35,1,1_1*%
%TO.N,Board_0-Col5_R*%
X290921777Y-71302466D03*
%TO.P,K_R_35,2,2_2*%
%TO.N,Board_0-Net-(D_R_35-A)*%
X301827159Y-62788697D03*
%TD*%
D39*
%TO.P,K_R_12,1,1_1*%
%TO.N,Board_0-Col2_R*%
X218301397Y-26167929D03*
%TO.P,K_R_12,2,2_2*%
%TO.N,Board_0-Net-(D_R_12-A)*%
X231628270Y-22452276D03*
%TD*%
D40*
%TO.P,K_R_16,1,1_1*%
%TO.N,Board_0-Col6_R*%
X298743447Y-25304813D03*
%TO.P,K_R_16,2,2_2*%
%TO.N,Board_0-Net-(D_R_16-A)*%
X312423807Y-23240994D03*
%TD*%
D41*
%TO.P,K_L_42,1,1_1*%
%TO.N,Board_0-Col2_L*%
X135978394Y-104342173D03*
%TO.P,K_L_42,2,2_2*%
%TO.N,Board_0-Net-(D_L_42-A)*%
X147111210Y-112556307D03*
%TD*%
D42*
%TO.P,U1,1,P0.06_1*%
%TO.N,Board_0-unconnected-(U1-P0.06-Pad1)*%
X148095167Y-34271489D03*
%TO.P,U1,2,P0.08_2*%
%TO.N,Board_0-unconnected-(U1-P0.08-Pad2)*%
X148095167Y-36811489D03*
D43*
%TO.P,U1,3,GND_3*%
%TO.N,Board_0-GND_L*%
X148095167Y-39351489D03*
%TO.P,U1,4,GND_4*%
X148095167Y-41891489D03*
D42*
%TO.P,U1,5,P0.17_5*%
%TO.N,Board_0-Col1_L*%
X148095167Y-44431489D03*
%TO.P,U1,6,P0.20_6*%
%TO.N,Board_0-Col2_L*%
X148095167Y-46971489D03*
%TO.P,U1,7,P0.22_7*%
%TO.N,Board_0-Col3_L*%
X148095167Y-49511489D03*
%TO.P,U1,8,P0.24_8*%
%TO.N,Board_0-Col4_L*%
X148095167Y-52051489D03*
%TO.P,U1,9,P1.00_9*%
%TO.N,Board_0-Row1_L*%
X148095167Y-54591489D03*
%TO.P,U1,10,P0.11_10*%
%TO.N,Board_0-Row2_L*%
X148095167Y-57131489D03*
%TO.P,U1,11,P1.04-LF_11*%
%TO.N,Board_0-Row3_L*%
X148095167Y-59671489D03*
%TO.P,U1,12,P1.06-LF_12*%
%TO.N,Board_0-Row4_L*%
X148095167Y-62211489D03*
D44*
%TO.P,U1,13,BAT+_13*%
%TO.N,Board_0-BAT_L*%
X163335167Y-33001489D03*
D43*
%TO.P,U1,14,GND_14*%
%TO.N,Board_0-GND_L*%
X163335167Y-36811489D03*
D42*
%TO.P,U1,15,RST_15*%
%TO.N,Board_0-RST_L*%
X163335167Y-39351489D03*
%TO.P,U1,16,3V3_16*%
%TO.N,Board_0-EXT_VCC_L*%
X163335167Y-41891489D03*
%TO.P,U1,17,P0.31-LF_17*%
%TO.N,Board_0-unconnected-(U1-P0.31-LF-Pad17)*%
X163335167Y-44431489D03*
%TO.P,U1,18,P0.29-LF_18*%
%TO.N,Board_0-LED_G_L*%
X163335167Y-46971489D03*
%TO.P,U1,19,P0.02-LF_19*%
%TO.N,Board_0-LED_R_L*%
X163335167Y-49511489D03*
%TO.P,U1,20,P1.15-LF_20*%
%TO.N,Board_0-LED_B_L*%
X163335167Y-52051489D03*
%TO.P,U1,21,P1.13-LF_21*%
%TO.N,Board_0-Ro2_A_L*%
X163335167Y-54591489D03*
%TO.P,U1,22,P1.11-LF_22*%
%TO.N,Board_0-Ro2_B_L*%
X163335167Y-57131489D03*
%TO.P,U1,23,P0.10-LF_23*%
%TO.N,Board_0-Ro1_A_L*%
X163335167Y-59671489D03*
%TO.P,U1,24,P0.09-LF_24*%
%TO.N,Board_0-Ro1_B_L*%
X163335167Y-62211489D03*
%TO.P,U1,25,P1.01-LF_25*%
%TO.N,Board_0-Col5_L*%
X151168567Y-59117769D03*
%TO.P,U1,26,P1.02-LF_26*%
%TO.N,Board_0-Col6_L*%
X153708567Y-59117769D03*
%TO.P,U1,27,P1.07-LF_27*%
%TO.N,Board_0-unconnected-(U1-P1.07-LF-Pad27)*%
X156248567Y-59117769D03*
D43*
%TO.P,U1,28,GND_28*%
%TO.N,Board_0-GND_L*%
X148095167Y-31731489D03*
D42*
%TO.P,U1,29,BAT+_29*%
%TO.N,Board_0-BAT_L*%
X163335167Y-31731489D03*
%TD*%
D45*
%TO.P,K_L_44,1,1_1*%
%TO.N,Board_0-Col4_L*%
X90984424Y-91886976D03*
%TO.P,K_L_44,2,2_2*%
%TO.N,Board_0-Net-(D_L_44-A)*%
X104487494Y-88873890D03*
%TD*%
D46*
%TO.P,K_L_26,1,1_1*%
%TO.N,Board_0-Col6_L*%
X24643729Y-44642850D03*
%TO.P,K_L_26,2,2_2*%
%TO.N,Board_0-Net-(D_L_26-A)*%
X38356678Y-46477676D03*
%TD*%
D47*
%TO.P,K_L_24,1,1_1*%
%TO.N,Board_0-Col4_L*%
X67757081Y-39592828D03*
%TO.P,K_L_24,2,2_2*%
%TO.N,Board_0-Net-(D_L_24-A)*%
X81579891Y-40177262D03*
%TD*%
D48*
%TO.P,K_R_21,1,1_1*%
%TO.N,Board_0-Col1_R*%
X203774063Y-58691137D03*
%TO.P,K_R_21,2,2_2*%
%TO.N,Board_0-Net-(D_R_21-A)*%
X216355604Y-52936448D03*
%TD*%
D34*
%TO.P,LED1,1,A_1*%
%TO.N,Board_0-EXT_VCC_L*%
X162000000Y-72000000D03*
%TO.P,LED1,2,BK_2*%
%TO.N,Board_0-Net-(LED1-BK)*%
X162000000Y-66920000D03*
%TO.P,LED1,3,GK_3*%
%TO.N,Board_0-Net-(LED1-GK)*%
X167080000Y-66920000D03*
%TO.P,LED1,4,RK_4*%
%TO.N,Board_0-Net-(LED1-RK)*%
X167080000Y-72000000D03*
%TD*%
D49*
%TO.P,K_R_15,1,1_1*%
%TO.N,Board_0-Col5_R*%
X277520002Y-28962400D03*
%TO.P,K_R_15,2,2_2*%
%TO.N,Board_0-Net-(D_R_15-A)*%
X290779998Y-25014727D03*
%TD*%
D50*
%TO.P,K_R_23,1,1_1*%
%TO.N,Board_0-Col3_R*%
X239088674Y-38341306D03*
%TO.P,K_R_23,2,2_2*%
%TO.N,Board_0-Net-(D_R_23-A)*%
X252040993Y-33478279D03*
%TD*%
D42*
%TO.P,U2,1,P0.06_1*%
%TO.N,Board_0-unconnected-(U2-P0.06-Pad1)*%
X178664833Y-34271489D03*
%TO.P,U2,2,P0.08_2*%
%TO.N,Board_0-unconnected-(U2-P0.08-Pad2)*%
X178664833Y-36811489D03*
D43*
%TO.P,U2,3,GND_3*%
%TO.N,Board_0-GND_R*%
X178664833Y-39351489D03*
%TO.P,U2,4,GND_4*%
X178664833Y-41891489D03*
D42*
%TO.P,U2,5,P0.17_5*%
%TO.N,Board_0-unconnected-(U2-P0.17-Pad5)*%
X178664833Y-44431489D03*
%TO.P,U2,6,P0.20_6*%
%TO.N,Board_0-LED_G_R*%
X178664833Y-46971489D03*
%TO.P,U2,7,P0.22_7*%
%TO.N,Board_0-LED_B_R*%
X178664833Y-49511489D03*
%TO.P,U2,8,P0.24_8*%
%TO.N,Board_0-LED_R_R*%
X178664833Y-52051489D03*
%TO.P,U2,9,P1.00_9*%
%TO.N,Board_0-Ro2_A_R*%
X178664833Y-54591489D03*
%TO.P,U2,10,P0.11_10*%
%TO.N,Board_0-Ro2_B_R*%
X178664833Y-57131489D03*
%TO.P,U2,11,P1.04-LF_11*%
%TO.N,Board_0-Ro1_A_R*%
X178664833Y-59671489D03*
%TO.P,U2,12,P1.06-LF_12*%
%TO.N,Board_0-Ro1_B_R*%
X178664833Y-62211489D03*
D44*
%TO.P,U2,13,BAT+_13*%
%TO.N,Board_0-BAT_R*%
X193904833Y-33001489D03*
D43*
%TO.P,U2,14,GND_14*%
%TO.N,Board_0-GND_R*%
X193904833Y-36811489D03*
D42*
%TO.P,U2,15,RST_15*%
%TO.N,Board_0-RST_R*%
X193904833Y-39351489D03*
%TO.P,U2,16,3V3_16*%
%TO.N,Board_0-EXT_VCC_R*%
X193904833Y-41891489D03*
%TO.P,U2,17,P0.31-LF_17*%
%TO.N,Board_0-Col1_R*%
X193904833Y-44431489D03*
%TO.P,U2,18,P0.29-LF_18*%
%TO.N,Board_0-Col2_R*%
X193904833Y-46971489D03*
%TO.P,U2,19,P0.02-LF_19*%
%TO.N,Board_0-Col3_R*%
X193904833Y-49511489D03*
%TO.P,U2,20,P1.15-LF_20*%
%TO.N,Board_0-Col4_R*%
X193904833Y-52051489D03*
%TO.P,U2,21,P1.13-LF_21*%
%TO.N,Board_0-Col5_R*%
X193904833Y-54591489D03*
%TO.P,U2,22,P1.11-LF_22*%
%TO.N,Board_0-Col6_R*%
X193904833Y-57131489D03*
%TO.P,U2,23,P0.10-LF_23*%
%TO.N,Board_0-Row1_R*%
X193904833Y-59671489D03*
%TO.P,U2,24,P0.09-LF_24*%
%TO.N,Board_0-Row2_R*%
X193904833Y-62211489D03*
%TO.P,U2,25,P1.01-LF_25*%
%TO.N,Board_0-unconnected-(U2-P1.01-LF-Pad25)*%
X181738233Y-59117769D03*
%TO.P,U2,26,P1.02-LF_26*%
%TO.N,Board_0-Row4_R*%
X184278233Y-59117769D03*
%TO.P,U2,27,P1.07-LF_27*%
%TO.N,Board_0-Row3_R*%
X186818233Y-59117769D03*
D43*
%TO.P,U2,28,GND_28*%
%TO.N,Board_0-GND_R*%
X178664833Y-31731489D03*
D42*
%TO.P,U2,29,BAT+_29*%
%TO.N,Board_0-BAT_R*%
X193904833Y-31731489D03*
%TD*%
D51*
%TO.P,K_L_21,1,1_1*%
%TO.N,Board_0-Col1_L*%
X123768530Y-55086501D03*
%TO.P,K_L_21,2,2_2*%
%TO.N,Board_0-Net-(D_L_21-A)*%
X137579034Y-55912088D03*
%TD*%
D52*
%TO.P,K_R_26,1,1_1*%
%TO.N,Board_0-Col6_R*%
X303201689Y-49296641D03*
%TO.P,K_R_26,2,2_2*%
%TO.N,Board_0-Net-(D_R_26-A)*%
X315327977Y-42635956D03*
%TD*%
D49*
%TO.P,K_R_14,1,1_1*%
%TO.N,Board_0-Col4_R*%
X256734835Y-22063889D03*
%TO.P,K_R_14,2,2_2*%
%TO.N,Board_0-Net-(D_R_14-A)*%
X269994831Y-18116216D03*
%TD*%
D53*
%TO.P,K_R_25,1,1_1*%
%TO.N,Board_0-Col5_R*%
X282858087Y-50165653D03*
%TO.P,K_R_25,2,2_2*%
%TO.N,Board_0-Net-(D_R_25-A)*%
X295241913Y-43996984D03*
%TD*%
D54*
%TO.P,K_L_31,1,1_1*%
%TO.N,Board_0-Col1_L*%
X118318038Y-73550542D03*
%TO.P,K_L_31,2,2_2*%
%TO.N,Board_0-Net-(D_L_31-A)*%
X131924986Y-76053053D03*
%TD*%
D55*
%TO.P,K_L_13,1,1_1*%
%TO.N,Board_0-Col3_L*%
X90060493Y-16559146D03*
%TO.P,K_L_13,2,2_2*%
%TO.N,Board_0-Net-(D_L_13-A)*%
X103817855Y-15094020D03*
%TD*%
D45*
%TO.P,K_L_16,1,1_1*%
%TO.N,Board_0-Col6_L*%
X28365630Y-25824816D03*
%TO.P,K_L_16,2,2_2*%
%TO.N,Board_0-Net-(D_L_16-A)*%
X41868700Y-22811730D03*
%TD*%
D26*
%TO.P,K_L_32,1,1_1*%
%TO.N,Board_0-Col2_L*%
X101662995Y-62659008D03*
%TO.P,K_L_32,2,2_2*%
%TO.N,Board_0-Net-(D_L_32-A)*%
X115348990Y-64685118D03*
%TD*%
D56*
%TO.P,K_R_24,1,1_1*%
%TO.N,Board_0-Col4_R*%
X259724804Y-42944599D03*
%TO.P,K_R_24,2,2_2*%
%TO.N,Board_0-Net-(D_R_24-A)*%
X272404862Y-37410364D03*
%TD*%
D57*
%TO.P,K_L_11,1,1_1*%
%TO.N,Board_0-Col1_L*%
X127140214Y-36135845D03*
%TO.P,K_L_11,2,2_2*%
%TO.N,Board_0-Net-(D_L_11-A)*%
X140950169Y-35301122D03*
%TD*%
D58*
%TO.P,K_L_43,1,1_1*%
%TO.N,Board_0-Col3_L*%
X115389709Y-93087860D03*
%TO.P,K_L_43,2,2_2*%
%TO.N,Board_0-Net-(D_L_43-A)*%
X128788946Y-96533446D03*
%TD*%
D40*
%TO.P,K_R_44,1,1_1*%
%TO.N,Board_0-Col4_R*%
X236124653Y-91366973D03*
%TO.P,K_R_44,2,2_2*%
%TO.N,Board_0-Net-(D_R_44-A)*%
X249805013Y-89303154D03*
%TD*%
D18*
%TO.P,K_R_32,1,1_1*%
%TO.N,Board_0-Col2_R*%
X226248779Y-67509974D03*
%TO.P,K_R_32,2,2_2*%
%TO.N,Board_0-Net-(D_R_32-A)*%
X238280888Y-60680629D03*
%TD*%
D13*
%TO.P,K_L_15,1,1_1*%
%TO.N,Board_0-Col5_L*%
X49661621Y-27404925D03*
%TO.P,K_L_15,2,2_2*%
%TO.N,Board_0-Net-(D_L_15-A)*%
X63452622Y-26300427D03*
%TD*%
D59*
%TO.P,D_L_41,1,K_1*%
%TO.N,Board_0-Row4_L*%
X145507055Y-131021416D03*
%TO.P,D_L_41,2,A_2*%
%TO.N,Board_0-Net-(D_L_41-A)*%
X146492945Y-132875606D03*
%TD*%
D24*
%TO.P,SW3,1,1_1*%
%TO.N,Board_0-RST_R*%
X201750000Y-25000000D03*
%TO.P,SW3,2,2_2*%
%TO.N,Board_0-GND_R*%
X195250000Y-25000000D03*
%TD*%
D60*
%TO.P,D_R_33,1,K_1*%
%TO.N,Board_0-Row3_R*%
X253548628Y-65499748D03*
%TO.P,D_R_33,2,A_2*%
%TO.N,Board_0-Net-(D_R_33-A)*%
X255534218Y-64816054D03*
%TD*%
D61*
%TO.P,D_L_25,1,K_1*%
%TO.N,Board_0-Row2_L*%
X48440172Y-56345214D03*
%TO.P,D_L_25,2,A_2*%
%TO.N,Board_0-Net-(D_L_25-A)*%
X50459828Y-56920528D03*
%TD*%
D62*
%TO.P,D_L_32,1,K_1*%
%TO.N,Board_0-Row3_L*%
X104965782Y-73316054D03*
%TO.P,D_L_32,2,A_2*%
%TO.N,Board_0-Net-(D_L_32-A)*%
X106951372Y-73999748D03*
%TD*%
D63*
%TO.P,D_L_24,1,K_1*%
%TO.N,Board_0-Row2_L*%
X71976910Y-49763801D03*
%TO.P,D_L_24,2,A_2*%
%TO.N,Board_0-Net-(D_L_24-A)*%
X74023090Y-50236199D03*
%TD*%
D64*
%TO.P,D_L_43,1,K_1*%
%TO.N,Board_0-Row4_L*%
X117487936Y-103709732D03*
%TO.P,D_L_43,2,A_2*%
%TO.N,Board_0-Net-(D_L_43-A)*%
X119391182Y-104597230D03*
%TD*%
D65*
%TO.P,D_R_21,1,K_1*%
%TO.N,Board_0-Row2_R*%
X212046022Y-65754018D03*
%TO.P,D_R_21,2,A_2*%
%TO.N,Board_0-Net-(D_R_21-A)*%
X214083644Y-65245982D03*
%TD*%
D66*
%TO.P,KiKit_FID_B_3,*%
%TO.N,*%
X6000000Y-150000000D03*
%TD*%
D67*
%TO.P,D_L_11,1,K_1*%
%TO.N,Board_0-Row1_L*%
X132458097Y-45869855D03*
%TO.P,D_L_11,2,A_2*%
%TO.N,Board_0-Net-(D_L_11-A)*%
X134541903Y-46130145D03*
%TD*%
D68*
%TO.P,R7,1*%
%TO.N,Board_0-LED_B_L*%
X163450000Y-65000000D03*
%TO.P,R7,2*%
%TO.N,Board_0-Net-(LED1-BK)*%
X162550000Y-65000000D03*
%TD*%
D69*
%TO.P,D_L_44,1,K_1*%
%TO.N,Board_0-Row4_L*%
X97450640Y-100485155D03*
%TO.P,D_L_44,2,A_2*%
%TO.N,Board_0-Net-(D_L_44-A)*%
X99549360Y-100411867D03*
%TD*%
D68*
%TO.P,R10,1*%
%TO.N,Board_0-LED_B_R*%
X175450000Y-69500000D03*
%TO.P,R10,2*%
%TO.N,Board_0-Net-(LED2-BK)*%
X174550000Y-69500000D03*
%TD*%
D70*
%TO.P,D_R_16,1,K_1*%
%TO.N,Board_0-Row1_R*%
X304950640Y-34463356D03*
%TO.P,D_R_16,2,A_2*%
%TO.N,Board_0-Net-(D_R_16-A)*%
X307049360Y-34536644D03*
%TD*%
D71*
%TO.P,D_L_26,1,K_1*%
%TO.N,Board_0-Row2_L*%
X27963264Y-54823530D03*
%TO.P,D_L_26,2,A_2*%
%TO.N,Board_0-Net-(D_L_26-A)*%
X29958206Y-55479434D03*
%TD*%
D72*
%TO.P,D_L_15,1,K_1*%
%TO.N,Board_0-Row1_L*%
X55105752Y-36890245D03*
%TO.P,D_L_15,2,A_2*%
%TO.N,Board_0-Net-(D_L_15-A)*%
X57194248Y-37109755D03*
%TD*%
D70*
%TO.P,D_R_44,1,K_1*%
%TO.N,Board_0-Row4_R*%
X242450640Y-100411867D03*
%TO.P,D_R_44,2,A_2*%
%TO.N,Board_0-Net-(D_R_44-A)*%
X244549360Y-100485155D03*
%TD*%
D73*
%TO.P,J7,1,Pin_1_1*%
%TO.N,Board_0-BAT_R*%
X244478238Y-111858975D03*
D74*
%TO.P,J7,2,Pin_2_2*%
%TO.N,Board_0-GND_R*%
X245478238Y-113591026D03*
%TD*%
D66*
%TO.P,KiKit_FID_B_1,*%
%TO.N,*%
X6000000Y-2500000D03*
%TD*%
D75*
%TO.P,D_L_12,1,K_1*%
%TO.N,Board_0-Row1_L*%
X114453996Y-34408484D03*
%TO.P,D_L_12,2,A_2*%
%TO.N,Board_0-Net-(D_L_12-A)*%
X116546004Y-34591516D03*
%TD*%
D76*
%TO.P,D_R_36,1,K_1*%
%TO.N,Board_0-Row3_R*%
X321654224Y-74271759D03*
%TO.P,D_R_36,2,A_2*%
%TO.N,Board_0-Net-(D_R_36-A)*%
X323495350Y-73261683D03*
%TD*%
D77*
%TO.P,D_L_46,1,K_1*%
%TO.N,Board_0-Row4_L*%
X121950000Y-122948511D03*
%TO.P,D_L_46,2,A_2*%
%TO.N,Board_0-K_L_46_out*%
X124050000Y-122948511D03*
%TD*%
D68*
%TO.P,R8,1*%
%TO.N,Board_0-LED_R_R*%
X179450000Y-65000000D03*
%TO.P,R8,2*%
%TO.N,Board_0-Net-(LED2-RK)*%
X178550000Y-65000000D03*
%TD*%
D78*
%TO.P,D_R_41,1,K_1*%
%TO.N,Board_0-Row4_R*%
X195507055Y-132875606D03*
%TO.P,D_R_41,2,A_2*%
%TO.N,Board_0-Net-(D_R_41-A)*%
X196492945Y-131021416D03*
%TD*%
D79*
%TO.P,D_R_43,1,K_1*%
%TO.N,Board_0-Row4_R*%
X222608818Y-104597230D03*
%TO.P,D_R_43,2,A_2*%
%TO.N,Board_0-Net-(D_R_43-A)*%
X224512064Y-103709732D03*
%TD*%
D80*
%TO.P,D_R_23,1,K_1*%
%TO.N,Board_0-Row2_R*%
X246988320Y-46266551D03*
%TO.P,D_R_23,2,A_2*%
%TO.N,Board_0-Net-(D_R_23-A)*%
X249056416Y-45901889D03*
%TD*%
D81*
%TO.P,D_L_34,1,K_1*%
%TO.N,Board_0-Row3_L*%
X64561928Y-70570362D03*
%TO.P,D_L_34,2,A_2*%
%TO.N,Board_0-Net-(D_L_34-A)*%
X66515804Y-71340014D03*
%TD*%
D66*
%TO.P,KiKit_FID_B_4,*%
%TO.N,*%
X336000000Y-150000000D03*
%TD*%
D82*
%TO.P,D_R_13,1,K_1*%
%TO.N,Board_0-Row1_R*%
X244018070Y-26082382D03*
%TO.P,D_R_13,2,A_2*%
%TO.N,Board_0-Net-(D_R_13-A)*%
X246111596Y-25917618D03*
%TD*%
D60*
%TO.P,D_R_32,1,K_1*%
%TO.N,Board_0-Row3_R*%
X235048628Y-73999748D03*
%TO.P,D_R_32,2,A_2*%
%TO.N,Board_0-Net-(D_R_32-A)*%
X237034218Y-73316054D03*
%TD*%
D83*
%TO.P,D_R_15,1,K_1*%
%TO.N,Board_0-Row1_R*%
X284805752Y-37109755D03*
%TO.P,D_R_15,2,A_2*%
%TO.N,Board_0-Net-(D_R_15-A)*%
X286894248Y-36890245D03*
%TD*%
D84*
%TO.P,D_L_31,1,K_1*%
%TO.N,Board_0-Row3_L*%
X120954908Y-83797523D03*
%TO.P,D_L_31,2,A_2*%
%TO.N,Board_0-Net-(D_L_31-A)*%
X122915426Y-84550095D03*
%TD*%
D85*
%TO.P,D_R_42,1,K_1*%
%TO.N,Board_0-Row4_R*%
X206783902Y-116216432D03*
%TO.P,D_R_42,2,A_2*%
%TO.N,Board_0-Net-(D_R_42-A)*%
X208216098Y-114680590D03*
%TD*%
D86*
%TO.P,D_R_26,1,K_1*%
%TO.N,Board_0-Row2_R*%
X312041794Y-55479434D03*
%TO.P,D_R_26,2,A_2*%
%TO.N,Board_0-Net-(D_R_26-A)*%
X314036736Y-54823530D03*
%TD*%
D87*
%TO.P,D_R_35,1,K_1*%
%TO.N,Board_0-Row3_R*%
X300637191Y-76206383D03*
%TO.P,D_R_35,2,A_2*%
%TO.N,Board_0-Net-(D_R_35-A)*%
X302501621Y-75239995D03*
%TD*%
D88*
%TO.P,D_L_35,1,K_1*%
%TO.N,Board_0-Row3_L*%
X39498379Y-75239995D03*
%TO.P,D_L_35,2,A_2*%
%TO.N,Board_0-Net-(D_L_35-A)*%
X41362809Y-76206383D03*
%TD*%
D83*
%TO.P,D_R_14,1,K_1*%
%TO.N,Board_0-Row1_R*%
X264420585Y-30609755D03*
%TO.P,D_R_14,2,A_2*%
%TO.N,Board_0-Net-(D_R_14-A)*%
X266509081Y-30390245D03*
%TD*%
D24*
%TO.P,SW1,1,1_1*%
%TO.N,Board_0-RST_L*%
X146750000Y-25000000D03*
%TO.P,SW1,2,2_2*%
%TO.N,Board_0-GND_L*%
X140250000Y-25000000D03*
%TD*%
D89*
%TO.P,D_R_22,1,K_1*%
%TO.N,Board_0-Row2_R*%
X228970715Y-54207540D03*
%TO.P,D_R_22,2,A_2*%
%TO.N,Board_0-Net-(D_R_22-A)*%
X231029285Y-53792460D03*
%TD*%
D90*
%TO.P,D_R_24,1,K_1*%
%TO.N,Board_0-Row2_R*%
X267976910Y-50236199D03*
%TO.P,D_R_24,2,A_2*%
%TO.N,Board_0-Net-(D_R_24-A)*%
X270023090Y-49763801D03*
%TD*%
D68*
%TO.P,R6,1*%
%TO.N,Board_0-LED_G_L*%
X166100000Y-65000000D03*
%TO.P,R6,2*%
%TO.N,Board_0-Net-(LED1-GK)*%
X167000000Y-65000000D03*
%TD*%
D77*
%TO.P,D_R_46,1,K_1*%
%TO.N,Board_0-Row4_R*%
X217950000Y-122948511D03*
%TO.P,D_R_46,2,A_2*%
%TO.N,Board_0-K_R_46_out*%
X220050000Y-122948511D03*
%TD*%
D62*
%TO.P,D_L_33,1,K_1*%
%TO.N,Board_0-Row3_L*%
X86465782Y-64816054D03*
%TO.P,D_L_33,2,A_2*%
%TO.N,Board_0-Net-(D_L_33-A)*%
X88451372Y-65499748D03*
%TD*%
D91*
%TO.P,D_L_13,1,K_1*%
%TO.N,Board_0-Row1_L*%
X95888404Y-25917618D03*
%TO.P,D_L_13,2,A_2*%
%TO.N,Board_0-Net-(D_L_13-A)*%
X97981930Y-26082382D03*
%TD*%
D72*
%TO.P,D_L_14,1,K_1*%
%TO.N,Board_0-Row1_L*%
X75490919Y-30390245D03*
%TO.P,D_L_14,2,A_2*%
%TO.N,Board_0-Net-(D_L_14-A)*%
X77579415Y-30609755D03*
%TD*%
D92*
%TO.P,D_L_42,1,K_1*%
%TO.N,Board_0-Row4_L*%
X133783902Y-114680590D03*
%TO.P,D_L_42,2,A_2*%
%TO.N,Board_0-Net-(D_L_42-A)*%
X135216098Y-116216432D03*
%TD*%
D93*
%TO.P,D_L_21,1,K_1*%
%TO.N,Board_0-Row2_L*%
X127916356Y-65245982D03*
%TO.P,D_L_21,2,A_2*%
%TO.N,Board_0-Net-(D_L_21-A)*%
X129953978Y-65754018D03*
%TD*%
D66*
%TO.P,KiKit_FID_B_2,*%
%TO.N,*%
X336000000Y-2500000D03*
%TD*%
D94*
%TO.P,D_L_22,1,K_1*%
%TO.N,Board_0-Row2_L*%
X110970715Y-53792460D03*
%TO.P,D_L_22,2,A_2*%
%TO.N,Board_0-Net-(D_L_22-A)*%
X113029285Y-54207540D03*
%TD*%
D95*
%TO.P,D_R_25,1,K_1*%
%TO.N,Board_0-Row2_R*%
X291540172Y-56920528D03*
%TO.P,D_R_25,2,A_2*%
%TO.N,Board_0-Net-(D_R_25-A)*%
X293559828Y-56345214D03*
%TD*%
D96*
%TO.P,D_R_12,1,K_1*%
%TO.N,Board_0-Row1_R*%
X225453996Y-34591516D03*
%TO.P,D_R_12,2,A_2*%
%TO.N,Board_0-Net-(D_R_12-A)*%
X227546004Y-34408484D03*
%TD*%
D97*
%TO.P,D_R_11,1,K_1*%
%TO.N,Board_0-Row1_R*%
X207458097Y-46130145D03*
%TO.P,D_R_11,2,A_2*%
%TO.N,Board_0-Net-(D_R_11-A)*%
X209541903Y-45869855D03*
%TD*%
D98*
%TO.P,D_R_34,1,K_1*%
%TO.N,Board_0-Row3_R*%
X275484196Y-71340014D03*
%TO.P,D_R_34,2,A_2*%
%TO.N,Board_0-Net-(D_R_34-A)*%
X277438072Y-70570362D03*
%TD*%
D69*
%TO.P,D_L_16,1,K_1*%
%TO.N,Board_0-Row1_L*%
X34950640Y-34536644D03*
%TO.P,D_L_16,2,A_2*%
%TO.N,Board_0-Net-(D_L_16-A)*%
X37049360Y-34463356D03*
%TD*%
D68*
%TO.P,R9,1*%
%TO.N,Board_0-LED_G_R*%
X175950000Y-65000000D03*
%TO.P,R9,2*%
%TO.N,Board_0-Net-(LED2-GK)*%
X175050000Y-65000000D03*
%TD*%
%TO.P,R5,1*%
%TO.N,Board_0-LED_R_L*%
X166050000Y-69250000D03*
%TO.P,R5,2*%
%TO.N,Board_0-Net-(LED1-RK)*%
X166950000Y-69250000D03*
%TD*%
D99*
%TO.P,D_R_31,1,K_1*%
%TO.N,Board_0-Row3_R*%
X219084574Y-84550095D03*
%TO.P,D_R_31,2,A_2*%
%TO.N,Board_0-Net-(D_R_31-A)*%
X221045092Y-83797523D03*
%TD*%
D77*
%TO.P,D_R_45,1,K_1*%
%TO.N,Board_0-Row4_R*%
X184650000Y-75500000D03*
%TO.P,D_R_45,2,A_2*%
%TO.N,Board_0-K_R_45_out*%
X186750000Y-75500000D03*
%TD*%
D100*
%TO.P,J8,1,Pin_1_1*%
%TO.N,Board_0-BAT_L*%
X97021762Y-113891026D03*
D101*
%TO.P,J8,2,Pin_2_2*%
%TO.N,Board_0-GND_L*%
X98021762Y-112158975D03*
%TD*%
D77*
%TO.P,D_L_45,1,K_1*%
%TO.N,Board_0-Row4_L*%
X148050000Y-75750000D03*
%TO.P,D_L_45,2,A_2*%
%TO.N,Board_0-K_L_45_out*%
X150150000Y-75750000D03*
%TD*%
D102*
%TO.P,D_L_23,1,K_1*%
%TO.N,Board_0-Row2_L*%
X92943584Y-45901889D03*
%TO.P,D_L_23,2,A_2*%
%TO.N,Board_0-Net-(D_L_23-A)*%
X95011680Y-46266551D03*
%TD*%
D103*
%TO.P,D_L_36,1,K_1*%
%TO.N,Board_0-Row3_L*%
X18504650Y-73261683D03*
%TO.P,D_L_36,2,A_2*%
%TO.N,Board_0-Net-(D_L_36-A)*%
X20345776Y-74271759D03*
%TD*%
D104*
%TO.N,Board_0-Col3_L*%
X101250000Y-30750000D03*
X83500000Y-61500000D03*
X89000000Y-69250000D03*
X144000000Y-48500000D03*
%TO.N,Board_0-Col2_L*%
X118750000Y-36500000D03*
X103125000Y-74625000D03*
X144000000Y-46971489D03*
X101250000Y-68250000D03*
%TO.N,Board_0-Col2_R*%
X220000000Y-38500000D03*
X218749685Y-36000000D03*
X222500000Y-80000000D03*
X225500000Y-62000000D03*
X219500000Y-83000000D03*
X222000000Y-58500000D03*
%TO.N,Board_0-Col4_L*%
X71750000Y-75250000D03*
X83400000Y-35500000D03*
X62000000Y-65500000D03*
X143750000Y-52051489D03*
%TO.N,Board_0-Col6_R*%
X299250000Y-42750000D03*
X306000000Y-59500000D03*
X306000000Y-56000000D03*
X299200000Y-31600000D03*
X307142799Y-74500000D03*
%TO.N,Board_0-Ro2_A_R*%
X222000000Y-117900000D03*
%TO.N,Board_0-Col3_R*%
X243000000Y-72000000D03*
X243000000Y-54000000D03*
X237500000Y-36000000D03*
X240125000Y-51125000D03*
X237500000Y-30000000D03*
X238000000Y-77000000D03*
%TO.N,Board_0-Col6_L*%
X138750000Y-71250000D03*
X26000000Y-51500000D03*
X133000000Y-101750000D03*
X134000000Y-92250000D03*
%TO.N,Board_0-Ro1_B_R*%
X189000000Y-74000000D03*
X182500000Y-66000000D03*
%TO.N,Board_0-Col5_R*%
X278000000Y-32000000D03*
X278000000Y-44751500D03*
X284000000Y-57000000D03*
X284000000Y-52500000D03*
%TO.N,Board_0-Col1_L*%
X118250000Y-78750000D03*
X126000000Y-86500000D03*
%TO.N,Board_0-Col4_R*%
X260163271Y-47836729D03*
X260150000Y-52650000D03*
X260500000Y-68500000D03*
X257000000Y-39500000D03*
X257000000Y-27000000D03*
X256000000Y-73000000D03*
%TO.N,Board_0-Ro2_A_L*%
X136750000Y-81250000D03*
%TO.N,Board_0-Ro2_B_L*%
X135700000Y-84900000D03*
%TO.N,Board_0-Col5_L*%
X56500000Y-41250000D03*
X121500000Y-65750000D03*
%TO.N,Board_0-Row1_L*%
X52150000Y-36900000D03*
X129500000Y-43750000D03*
X48350000Y-36900000D03*
X111250000Y-31250000D03*
X69000000Y-30500000D03*
X107250000Y-29750000D03*
X88750000Y-26000000D03*
X92500000Y-26000000D03*
X73250000Y-30500000D03*
X125500000Y-39750000D03*
%TO.N,Board_0-Row2_L*%
X84800000Y-51000000D03*
X108700000Y-53800000D03*
X89900000Y-45900000D03*
X37300000Y-56300000D03*
X116500000Y-59250000D03*
X123750000Y-62500000D03*
X42154786Y-56345214D03*
X100200000Y-53800000D03*
X61750000Y-51250000D03*
X65000000Y-51250000D03*
%TO.N,Board_0-Row4_L*%
X123600000Y-108100000D03*
X127400000Y-111900000D03*
X148000000Y-74500000D03*
X98667897Y-99267897D03*
%TO.N,Board_0-RST_L*%
X155250000Y-38250000D03*
X155250000Y-33500000D03*
%TO.N,Board_0-LED_R_R*%
X180500000Y-61000000D03*
X180500000Y-65000000D03*
%TO.N,Board_0-BAT_R*%
X199000000Y-69750000D03*
X199000000Y-41500000D03*
%TO.N,Board_0-Row1_R*%
X197750000Y-47250000D03*
X204750000Y-46120228D03*
%TO.N,Board_0-Row2_R*%
X206400000Y-65700000D03*
%TO.N,Board_0-Row4_R*%
X180000000Y-83000000D03*
X184700000Y-68600000D03*
X202882533Y-126882533D03*
%TO.N,Board_0-Row3_R*%
X217000000Y-86959664D03*
%TD*%
%TO.N,Board_0-Col3_L*%
D105*
X90750000Y-30740893D02*
X90509107Y-30500000D01*
X88680855Y-50513137D02*
X84388478Y-54805514D01*
X88680855Y-35832090D02*
X88680855Y-50513137D01*
X90509107Y-34003838D02*
X88680855Y-35832090D01*
X90509107Y-30500000D02*
X90509107Y-30750000D01*
X114746058Y-93278038D02*
X112978038Y-93278038D01*
X89000000Y-69300000D02*
X89000000Y-69250000D01*
X90509107Y-31000000D02*
X90509107Y-30990893D01*
X83500000Y-61500000D02*
X83500000Y-55693992D01*
X90750000Y-30750000D02*
X90750000Y-30740893D01*
X144000000Y-48500000D02*
X147083678Y-48500000D01*
X90509107Y-31000000D02*
X90509107Y-34003838D01*
X101250000Y-30750000D02*
X90750000Y-30750000D01*
X90509107Y-16594453D02*
X90509107Y-30500000D01*
X90509107Y-30990893D02*
X90750000Y-30750000D01*
X90750000Y-30750000D02*
X90509107Y-30750000D01*
X90509107Y-30750000D02*
X90509107Y-31000000D01*
X112978038Y-93278038D02*
X89000000Y-69300000D01*
X147083678Y-48500000D02*
X148095167Y-49511489D01*
%TO.N,Board_0-Net-(D_L_23-A)*%
X102250000Y-36157032D02*
X102250000Y-43000000D01*
X102250000Y-43000000D02*
X98983449Y-46266551D01*
X98983449Y-46266551D02*
X95011680Y-46266551D01*
%TO.N,Board_0-Col2_L*%
X114250000Y-85750000D02*
X122450000Y-85750000D01*
X109500000Y-36250000D02*
X109750000Y-36500000D01*
X101250000Y-68250000D02*
X101250000Y-63643992D01*
X102088478Y-48748890D02*
X102088478Y-62805514D01*
X109303589Y-41533779D02*
X106785068Y-44052300D01*
X109303589Y-36000000D02*
X109303589Y-36500000D01*
X144000000Y-46971489D02*
X148095167Y-46971489D01*
X109500000Y-36750000D02*
X109526795Y-36776795D01*
X109526795Y-36776795D02*
X109303589Y-37000000D01*
X109750000Y-36553589D02*
X109526795Y-36776795D01*
X136285294Y-99585294D02*
X136285294Y-105722772D01*
X109303589Y-37000000D02*
X109303589Y-41533779D01*
X109500000Y-36500000D02*
X109500000Y-36750000D01*
X103125000Y-74625000D02*
X114250000Y-85750000D01*
X109303589Y-24908529D02*
X109303589Y-36000000D01*
X109750000Y-36500000D02*
X109750000Y-36553589D01*
X122450000Y-85750000D02*
X136285294Y-99585294D01*
X109303589Y-36053589D02*
X109500000Y-36250000D01*
X109500000Y-36500000D02*
X109303589Y-36500000D01*
X118750000Y-36500000D02*
X109750000Y-36500000D01*
X109750000Y-36500000D02*
X109500000Y-36500000D01*
X106785068Y-44052300D02*
X102088478Y-48748890D01*
X109303589Y-36500000D02*
X109303589Y-37000000D01*
X109303589Y-36000000D02*
X109303589Y-36053589D01*
X109500000Y-36250000D02*
X109500000Y-36500000D01*
%TO.N,Board_0-Net-(D_L_22-A)*%
X119736561Y-44072659D02*
X116250000Y-47559220D01*
X116250000Y-47559220D02*
X116250000Y-50986825D01*
X116250000Y-50986825D02*
X113029285Y-54207540D01*
%TO.N,Board_0-Col2_R*%
X222500000Y-80000000D02*
X226674262Y-75825738D01*
X225500000Y-62000000D02*
X225500000Y-66189206D01*
X221491136Y-57991136D02*
X221491136Y-46819503D01*
X218749685Y-36000000D02*
X218749685Y-26128709D01*
X196166730Y-106333270D02*
X196166730Y-115961723D01*
X226674262Y-75825738D02*
X226674262Y-67363468D01*
X219500000Y-83000000D02*
X196166730Y-106333270D01*
X221000000Y-39500000D02*
X221000000Y-46328367D01*
X222000000Y-58500000D02*
X221491136Y-57991136D01*
X225500000Y-66189206D02*
X226674262Y-67363468D01*
X220000000Y-38500000D02*
X221000000Y-39500000D01*
%TO.N,Board_0-Net-(D_R_22-A)*%
X232000000Y-46000000D02*
X232000000Y-53000000D01*
X233438530Y-41819366D02*
X233438530Y-44561470D01*
X232000000Y-53000000D02*
X231207540Y-53792460D01*
X233438530Y-44561470D02*
X232000000Y-46000000D01*
X231207540Y-53792460D02*
X231029285Y-53792460D01*
%TO.N,Board_0-Col4_L*%
X71144324Y-35500000D02*
X70894324Y-35750000D01*
X70894324Y-36995281D02*
X68195549Y-39694056D01*
X75680893Y-79180893D02*
X71750000Y-75250000D01*
X88726538Y-84910141D02*
X88571702Y-84910141D01*
X70894324Y-35750000D02*
X70894324Y-36995281D01*
X91434150Y-87617753D02*
X88726538Y-84910141D01*
X62000000Y-65500000D02*
X62000000Y-59015645D01*
X71144324Y-35500000D02*
X70894324Y-35250000D01*
X68195549Y-39694056D02*
X62752017Y-45137588D01*
X62752017Y-45137588D02*
X62752017Y-58263628D01*
X83400000Y-35500000D02*
X71250000Y-35500000D01*
X91434150Y-92922761D02*
X91434150Y-87617753D01*
X88571702Y-84910141D02*
X75680893Y-79180893D01*
X70894324Y-35250000D02*
X70894324Y-35500000D01*
X71250000Y-35500000D02*
X71144324Y-35500000D01*
X70894324Y-20553453D02*
X70894324Y-35250000D01*
X143750000Y-52051489D02*
X148095167Y-52051489D01*
X71250000Y-35500000D02*
X70894324Y-35500000D01*
X70894324Y-35500000D02*
X70894324Y-35750000D01*
%TO.N,Board_0-Net-(D_L_14-A)*%
X80750000Y-27439170D02*
X77579415Y-30609755D01*
X83790253Y-19354879D02*
X80750000Y-22395132D01*
X80750000Y-22395132D02*
X80750000Y-27439170D01*
%TO.N,Board_0-Col1_R*%
X210191725Y-78728959D02*
X204210696Y-72747930D01*
X193904833Y-44431489D02*
X200409430Y-37926892D01*
X204210696Y-72747930D02*
X204210696Y-58582272D01*
X210191725Y-78728959D02*
X184551000Y-104369684D01*
X201000000Y-55371576D02*
X204210696Y-58582272D01*
X184551000Y-104369684D02*
X184551000Y-134712368D01*
X201000000Y-38405679D02*
X201000000Y-55371576D01*
%TO.N,Board_0-Net-(D_R_31-A)*%
X220600000Y-83352431D02*
X221045092Y-83797523D01*
X221137942Y-71806392D02*
X220600000Y-72344334D01*
X220600000Y-72344334D02*
X220600000Y-83352431D01*
%TO.N,Board_0-Net-(D_L_12-A)*%
X122176637Y-23485072D02*
X119250000Y-26411709D01*
X119250000Y-31887519D02*
X116546004Y-34591515D01*
X119250000Y-26411709D02*
X119250000Y-31887519D01*
%TO.N,Board_0-Col6_R*%
X299200000Y-31600000D02*
X299200000Y-31200000D01*
X299200000Y-42800000D02*
X299200000Y-44726914D01*
X299200000Y-44726914D02*
X303629176Y-49156090D01*
X307142799Y-74500000D02*
X312230233Y-69412566D01*
X299193173Y-31193173D02*
X299193173Y-25320518D01*
X299200000Y-31200000D02*
X299193173Y-31193173D01*
X306000000Y-59500000D02*
X306000000Y-63182333D01*
X304000000Y-54000000D02*
X304000000Y-49526914D01*
X306000000Y-56000000D02*
X304000000Y-54000000D01*
X299250000Y-42750000D02*
X299200000Y-42800000D01*
X306000000Y-63182333D02*
X312230233Y-69412566D01*
%TO.N,Board_0-K_R_46_out*%
X220998511Y-122000000D02*
X232988255Y-122000000D01*
X232988255Y-122000000D02*
X234878181Y-123889926D01*
X220050000Y-122948511D02*
X220998511Y-122000000D01*
%TO.N,Board_0-Ro2_A_R*%
X222000000Y-117900000D02*
X222879877Y-117900000D01*
X231484895Y-109294982D02*
X231484895Y-107257436D01*
X222879877Y-117900000D02*
X231484895Y-109294982D01*
%TO.N,Board_0-GND_R*%
D106*
X191364833Y-39351489D02*
X193904833Y-36811489D01*
X196250000Y-34466322D02*
X193904833Y-36811489D01*
X196250000Y-26000000D02*
X196250000Y-34466322D01*
X180500000Y-39351489D02*
X191364833Y-39351489D01*
X195250000Y-25000000D02*
X196250000Y-26000000D01*
X178664833Y-39351489D02*
X178664833Y-41891489D01*
X180500000Y-33566656D02*
X180500000Y-39351489D01*
X178664833Y-31731489D02*
X180500000Y-33566656D01*
X178664833Y-39351489D02*
X180500000Y-39351489D01*
%TO.N,Board_0-Col3_R*%
D105*
X237500000Y-36231327D02*
X239531837Y-38263164D01*
X240125000Y-51125000D02*
X240000000Y-51000000D01*
X240000000Y-51000000D02*
X240000000Y-38731327D01*
X237500000Y-36000000D02*
X237500000Y-36231327D01*
X237500000Y-17726931D02*
X237500000Y-30000000D01*
X243000000Y-54000000D02*
X243000000Y-57989206D01*
X244374262Y-70625738D02*
X243000000Y-72000000D01*
X238000000Y-77000000D02*
X234000000Y-77000000D01*
X234000000Y-77000000D02*
X213514143Y-97485857D01*
X243000000Y-57989206D02*
X244374262Y-59363468D01*
X213514143Y-97485857D02*
X213514143Y-100246183D01*
X244374262Y-59363468D02*
X244374262Y-70625738D01*
%TO.N,Board_0-Net-(D_R_33-A)*%
X255555405Y-52827135D02*
X254800000Y-53582540D01*
X254800000Y-64081836D02*
X255534218Y-64816054D01*
X254800000Y-53582540D02*
X254800000Y-64081836D01*
%TO.N,Board_0-Net-(D_R_41-A)*%
X196492945Y-131021416D02*
X196492945Y-130492945D01*
X196492945Y-130492945D02*
X189039458Y-123039458D01*
%TO.N,Board_0-Net-(D_R_36-A)*%
X326500000Y-70257033D02*
X326500000Y-65434172D01*
X323495350Y-73261683D02*
X326500000Y-70257033D01*
X326500000Y-65434172D02*
X322142951Y-61077123D01*
%TO.N,Board_0-Col6_L*%
X22575000Y-52000000D02*
X22575000Y-57599317D01*
X22575000Y-47279618D02*
X22575000Y-51000000D01*
X141000000Y-71500000D02*
X141163168Y-71663168D01*
X141163168Y-71663168D02*
X141413168Y-71413168D01*
X141576336Y-71250000D02*
X153708567Y-59117769D01*
X25071216Y-44783402D02*
X22575000Y-47279618D01*
X22787500Y-51787500D02*
X22787500Y-51212500D01*
X141250000Y-71250000D02*
X140750000Y-71250000D01*
X133000000Y-101750000D02*
X115558538Y-119191462D01*
X140750000Y-71250000D02*
X141000000Y-71500000D01*
X23000000Y-51425000D02*
X22787500Y-51212500D01*
X23000000Y-51500000D02*
X22575000Y-51500000D01*
X23000000Y-51500000D02*
X23000000Y-51425000D01*
X141000000Y-71500000D02*
X141250000Y-71250000D01*
X141413168Y-71413168D02*
X141576336Y-71250000D01*
X22575000Y-51500000D02*
X22575000Y-52000000D01*
X26000000Y-51500000D02*
X23000000Y-51500000D01*
X134000000Y-92250000D02*
X134000000Y-78826336D01*
X141250000Y-71250000D02*
X141576336Y-71250000D01*
X23000000Y-51500000D02*
X23000000Y-51575000D01*
X28815356Y-25809112D02*
X28815356Y-41039262D01*
X22575000Y-51000000D02*
X22575000Y-51500000D01*
X22575000Y-57599317D02*
X17495593Y-62678724D01*
X141413168Y-71413168D02*
X141250000Y-71250000D01*
X23000000Y-51575000D02*
X22787500Y-51787500D01*
X22787500Y-51787500D02*
X22575000Y-52000000D01*
X115558538Y-119191462D02*
X108831918Y-119191462D01*
X134000000Y-78826336D02*
X141163168Y-71663168D01*
X22787500Y-51212500D02*
X22575000Y-51000000D01*
X140750000Y-71250000D02*
X138750000Y-71250000D01*
X28815356Y-41039262D02*
X25071216Y-44783402D01*
%TO.N,Board_0-Net-(D_L_36-A)*%
X20345776Y-74271759D02*
X26728241Y-74271759D01*
X29461590Y-71538410D02*
X29461590Y-66950540D01*
X26728241Y-74271759D02*
X29461590Y-71538410D01*
%TO.N,Board_0-Ro1_A_R*%
X177000000Y-61336322D02*
X178664833Y-59671489D01*
X186764833Y-94251489D02*
X177000000Y-84486656D01*
X177000000Y-84486656D02*
X177000000Y-61336322D01*
%TO.N,Board_0-Ro1_B_R*%
X182500000Y-66000000D02*
X180000000Y-63500000D01*
X190000000Y-75000000D02*
X189000000Y-74000000D01*
X179953344Y-63500000D02*
X178664833Y-62211489D01*
X180000000Y-63500000D02*
X179953344Y-63500000D01*
X190000000Y-92486656D02*
X190000000Y-75000000D01*
X191764833Y-94251489D02*
X190000000Y-92486656D01*
%TO.N,Board_0-Col5_R*%
X191764833Y-56731489D02*
X191764833Y-79751489D01*
X277967537Y-28915362D02*
X277967537Y-31967537D01*
X283290871Y-51790871D02*
X284000000Y-52500000D01*
X283290871Y-50042371D02*
X283290871Y-51790871D01*
X284000000Y-63774082D02*
X291321294Y-71095376D01*
X193904833Y-54591489D02*
X191764833Y-56731489D01*
X278000000Y-44751500D02*
X283290871Y-50042371D01*
X277967537Y-31967537D02*
X278000000Y-32000000D01*
X284000000Y-57000000D02*
X284000000Y-63774082D01*
%TO.N,Board_0-K_R_45_out*%
X186750000Y-79736656D02*
X186764833Y-79751489D01*
X186750000Y-75500000D02*
X186750000Y-79736656D01*
%TO.N,Board_0-Net-(D_R_11-A)*%
X211000000Y-43921146D02*
X209541903Y-45379243D01*
X212808453Y-33832341D02*
X211000000Y-35640794D01*
X211000000Y-35640794D02*
X211000000Y-43921146D01*
X209541903Y-45379243D02*
X209541903Y-45869855D01*
%TO.N,Board_0-Net-(D_L_33-A)*%
X97223506Y-56538613D02*
X97223506Y-61776494D01*
X93500252Y-65499748D02*
X88451372Y-65499748D01*
X97223506Y-61776494D02*
X93500252Y-65499748D01*
%TO.N,Board_0-Net-(D_R_43-A)*%
X223950802Y-103148470D02*
X224512064Y-103709732D01*
X223950802Y-91525420D02*
X223950802Y-103148470D01*
%TO.N,Board_0-Col1_L*%
X150750000Y-111250000D02*
X150750000Y-122477500D01*
X126000000Y-86500000D02*
X150750000Y-111250000D01*
X142000000Y-32000000D02*
X131778368Y-32000000D01*
X127586745Y-51813785D02*
X124205164Y-55195366D01*
X144000000Y-40336322D02*
X144000000Y-34000000D01*
X131778368Y-32000000D02*
X127586745Y-36191623D01*
X117250000Y-75199958D02*
X118738150Y-73711808D01*
X144000000Y-34000000D02*
X142000000Y-32000000D01*
X118250000Y-78750000D02*
X117250000Y-77750000D01*
X148095167Y-44431489D02*
X144000000Y-40336322D01*
X124205164Y-55195366D02*
X118738150Y-60662380D01*
X118738150Y-60662380D02*
X118738150Y-73711808D01*
X117250000Y-77750000D02*
X117250000Y-75199958D01*
X127586745Y-36191623D02*
X127586745Y-51813785D01*
%TO.N,Board_0-Net-(D_L_41-A)*%
X158401963Y-132000000D02*
X147368551Y-132000000D01*
X158739306Y-131662657D02*
X158401963Y-132000000D01*
X147368551Y-132000000D02*
X146492945Y-132875606D01*
%TO.N,Board_0-Col4_R*%
X236574379Y-85925621D02*
X236574379Y-92434167D01*
X257000000Y-39680100D02*
X260163271Y-42843371D01*
X265605356Y-63394644D02*
X260500000Y-68500000D01*
X256000000Y-73000000D02*
X249500000Y-73000000D01*
X257000000Y-22000000D02*
X257000000Y-27000000D01*
X260150000Y-52650000D02*
X266222138Y-58722138D01*
X260163271Y-47836729D02*
X260163271Y-42843371D01*
X249500000Y-73000000D02*
X236574379Y-85925621D01*
X257000000Y-39500000D02*
X257000000Y-39680100D01*
X266222138Y-58722138D02*
X266222138Y-63394644D01*
%TO.N,Board_0-Net-(D_R_34-A)*%
X280600000Y-67408434D02*
X277438072Y-70570362D01*
X280600000Y-59869290D02*
X280600000Y-67408434D01*
X277107528Y-56376818D02*
X280600000Y-59869290D01*
%TO.N,Board_0-K_L_46_out*%
X109731893Y-126500000D02*
X120400000Y-126500000D01*
X123951489Y-122948511D02*
X124050000Y-122948511D01*
X107121819Y-123889926D02*
X109731893Y-126500000D01*
X120400000Y-126500000D02*
X123951489Y-122948511D01*
%TO.N,Board_0-Ro2_A_L*%
X136750000Y-81176656D02*
X136750000Y-81250000D01*
X163335167Y-54591489D02*
X136750000Y-81176656D01*
%TO.N,Board_0-Ro2_B_L*%
X135700000Y-84766656D02*
X135700000Y-84900000D01*
X163335167Y-57131489D02*
X135700000Y-84766656D01*
%TO.N,Board_0-GND_L*%
D106*
X146981489Y-31731489D02*
X140250000Y-25000000D01*
X163335167Y-36811489D02*
X151364833Y-36811489D01*
X148095167Y-31731489D02*
X151000000Y-34636322D01*
X150598328Y-36848328D02*
X151327994Y-36848328D01*
X151000000Y-36446656D02*
X150598328Y-36848328D01*
X150598328Y-36848328D02*
X148095167Y-39351489D01*
X148095167Y-39351489D02*
X148095167Y-41891489D01*
X151327994Y-36848328D02*
X151364833Y-36811489D01*
X151000000Y-34636322D02*
X151000000Y-36446656D01*
X148095167Y-31731489D02*
X146981489Y-31731489D01*
X151364833Y-36811489D02*
X151000000Y-36446656D01*
%TO.N,Board_0-Net-(D_L_34-A)*%
D105*
X70159986Y-71340014D02*
X75499232Y-66000768D01*
X66515804Y-71340014D02*
X70159986Y-71340014D01*
X75499232Y-66000768D02*
X75499232Y-60554933D01*
%TO.N,Board_0-Net-(D_R_42-A)*%
X208216098Y-112416098D02*
X202970471Y-107170471D01*
X208216098Y-114680590D02*
X208216098Y-112416098D01*
X202970471Y-107170471D02*
X202970471Y-104941255D01*
%TO.N,Board_0-EXT_VCC_R*%
D106*
X190500000Y-61500000D02*
X190500000Y-45296322D01*
X180000000Y-72000000D02*
X190500000Y-61500000D01*
X190500000Y-45296322D02*
X193904833Y-41891489D01*
%TO.N,Board_0-Net-(LED2-BK)*%
D105*
X174920000Y-69870000D02*
X174550000Y-69500000D01*
X174920000Y-72000000D02*
X174920000Y-69870000D01*
%TO.N,Board_0-Net-(LED2-GK)*%
X174920000Y-66920000D02*
X174920000Y-65130000D01*
X174920000Y-65130000D02*
X175050000Y-65000000D01*
%TO.N,Board_0-Net-(LED2-RK)*%
X178550000Y-65470000D02*
X178550000Y-65000000D01*
X180000000Y-66920000D02*
X178550000Y-65470000D01*
%TO.N,Board_0-Net-(D_R_13-A)*%
X251500000Y-22750000D02*
X248332382Y-25917618D01*
X248332382Y-25917618D02*
X246111596Y-25917618D01*
X249995616Y-14164280D02*
X251500000Y-15668664D01*
X251500000Y-15668664D02*
X251500000Y-22750000D01*
%TO.N,Board_0-Ro1_A_L*%
X163335167Y-59671489D02*
X152500000Y-70506656D01*
X152500000Y-91986656D02*
X150235167Y-94251489D01*
X152500000Y-70506656D02*
X152500000Y-91986656D01*
%TO.N,Board_0-Ro1_B_L*%
X156560167Y-92926486D02*
X156560167Y-68986489D01*
X156560167Y-68986489D02*
X163335167Y-62211489D01*
X155235164Y-94251489D02*
X156560167Y-92926486D01*
%TO.N,Board_0-Col5_L*%
X50109157Y-41250000D02*
X50109157Y-41342538D01*
X45244752Y-46206943D02*
X38249292Y-53202403D01*
X151168567Y-59117769D02*
X150497287Y-58446489D01*
X38249292Y-53202403D02*
X38249292Y-64652579D01*
X50109157Y-41342538D02*
X45244752Y-46206943D01*
X56500000Y-41250000D02*
X50500000Y-41250000D01*
X50109157Y-40750000D02*
X50109157Y-40859157D01*
X137500000Y-68200000D02*
X123950000Y-68200000D01*
X123950000Y-68200000D02*
X121500000Y-65750000D01*
X150497287Y-58446489D02*
X147253511Y-58446489D01*
X50109157Y-27451964D02*
X50109157Y-40750000D01*
X50500000Y-41250000D02*
X50109157Y-41250000D01*
X50109157Y-40750000D02*
X50109157Y-41250000D01*
X50109157Y-40859157D02*
X50500000Y-41250000D01*
X147253511Y-58446489D02*
X137500000Y-68200000D01*
%TO.N,Board_0-K_L_45_out*%
X150235170Y-79751489D02*
X150235170Y-75835170D01*
X150235170Y-75835170D02*
X150150000Y-75750000D01*
%TO.N,Board_0-Net-(D_L_35-A)*%
X41369192Y-76200000D02*
X41693038Y-76200000D01*
X41700793Y-76192245D02*
X47057755Y-76192245D01*
X41362809Y-76206383D02*
X41369192Y-76200000D01*
X41693038Y-76200000D02*
X41700793Y-76192245D01*
X50693452Y-72556548D02*
X50693452Y-68242066D01*
X47057755Y-76192245D02*
X50693452Y-72556548D01*
%TO.N,Board_0-Net-(D_L_25-A)*%
X54200000Y-51198123D02*
X54200000Y-53180356D01*
X54200000Y-53180356D02*
X50459828Y-56920528D01*
X58154722Y-47243401D02*
X54200000Y-51198123D01*
%TO.N,Board_0-Net-(D_R_35-A)*%
X304750000Y-72991616D02*
X304750000Y-66318145D01*
X304750000Y-66318145D02*
X301427642Y-62995787D01*
X302501621Y-75239995D02*
X304750000Y-72991616D01*
%TO.N,Board_0-Net-(D_R_12-A)*%
X231179982Y-22491496D02*
X229000000Y-24671478D01*
X227546004Y-33894881D02*
X227546004Y-34408485D01*
X229000000Y-24671478D02*
X229000000Y-32440885D01*
X229000000Y-32440885D02*
X227546004Y-33894881D01*
%TO.N,Board_0-Net-(D_R_16-A)*%
X309500000Y-25699370D02*
X311974081Y-23225289D01*
X307049360Y-34536644D02*
X309500000Y-32086004D01*
X309500000Y-32086004D02*
X309500000Y-25699370D01*
%TO.N,Board_0-Net-(D_L_42-A)*%
X146804311Y-112227198D02*
X143172802Y-112227198D01*
X143172802Y-112227198D02*
X139183568Y-116216432D01*
X139183568Y-116216432D02*
X135216098Y-116216432D01*
%TO.N,Board_0-Row1_L*%
X120950172Y-35200172D02*
X115245683Y-35200172D01*
X141179731Y-54591489D02*
X132458097Y-45869855D01*
X37313996Y-36900000D02*
X48350000Y-36900000D01*
X61789121Y-37710879D02*
X55926386Y-37710879D01*
X55926386Y-37710879D02*
X55105752Y-36890245D01*
X115245683Y-35200172D02*
X114453996Y-34408485D01*
X52150000Y-36900000D02*
X52350000Y-36900000D01*
X92538052Y-25961948D02*
X92500000Y-26000000D01*
X95888404Y-25917618D02*
X96086343Y-25917618D01*
X95806022Y-26000000D02*
X95888404Y-25917618D01*
X52350000Y-36900000D02*
X52359755Y-36890245D01*
X125500000Y-39750000D02*
X120950172Y-35200172D01*
X88750000Y-26000000D02*
X83539121Y-31210879D01*
X69000000Y-30500000D02*
X61789121Y-37710879D01*
X129500000Y-43750000D02*
X131619855Y-45869855D01*
X83539121Y-31210879D02*
X76311553Y-31210879D01*
X96086343Y-25917618D02*
X99918725Y-29750000D01*
X92500000Y-26000000D02*
X95806022Y-26000000D01*
X52359755Y-36890245D02*
X55105752Y-36890245D01*
X114408485Y-34408485D02*
X114453996Y-34408485D01*
X111250000Y-31250000D02*
X114408485Y-34408485D01*
X75381164Y-30500000D02*
X75490919Y-30390245D01*
X131619855Y-45869855D02*
X132458097Y-45869855D01*
X73250000Y-30500000D02*
X75381164Y-30500000D01*
X148095167Y-54591489D02*
X141179731Y-54591489D01*
X76311553Y-31210879D02*
X75490919Y-30390245D01*
X34950640Y-34536644D02*
X37313996Y-36900000D01*
X107250000Y-29750000D02*
X99918725Y-29750000D01*
%TO.N,Board_0-Row2_L*%
X37300000Y-56300000D02*
X29439734Y-56300000D01*
X84800000Y-51000000D02*
X73213109Y-51000000D01*
X61750000Y-51250000D02*
X55455892Y-57544108D01*
X89901889Y-45901889D02*
X89900000Y-45900000D01*
X92943584Y-45901889D02*
X89901889Y-45901889D01*
X127916356Y-65245982D02*
X127916356Y-65216356D01*
X73213109Y-51000000D02*
X71976910Y-49763801D01*
X147468511Y-57131489D02*
X138230089Y-66369911D01*
X55455892Y-57544108D02*
X49639066Y-57544108D01*
X29439734Y-56300000D02*
X27963264Y-54823530D01*
X116428255Y-59250000D02*
X110970715Y-53792460D01*
X66486199Y-49763801D02*
X65000000Y-51250000D01*
X129040285Y-66369911D02*
X127916356Y-65245982D01*
X108700000Y-53800000D02*
X110963175Y-53800000D01*
X100200000Y-53800000D02*
X100000000Y-53800000D01*
X92943584Y-46743584D02*
X92943584Y-45901889D01*
X71976910Y-49763801D02*
X66486199Y-49763801D01*
X138230089Y-66369911D02*
X129040285Y-66369911D01*
X116500000Y-59250000D02*
X116428255Y-59250000D01*
X100000000Y-53800000D02*
X92943584Y-46743584D01*
X110963175Y-53800000D02*
X110970715Y-53792460D01*
X127916356Y-65216356D02*
X125200000Y-62500000D01*
X49639066Y-57544108D02*
X48440172Y-56345214D01*
X42154786Y-56345214D02*
X48440172Y-56345214D01*
X148095167Y-57131489D02*
X147468511Y-57131489D01*
X125200000Y-62500000D02*
X123750000Y-62500000D01*
%TO.N,Board_0-Row3_L*%
X20226326Y-75239995D02*
X18504650Y-73518319D01*
X39498379Y-75239995D02*
X20226326Y-75239995D01*
X136750000Y-71016656D02*
X136750000Y-74735285D01*
X95500000Y-73300000D02*
X94949728Y-73300000D01*
X120954908Y-83797523D02*
X115416265Y-83797523D01*
X63491566Y-69500000D02*
X55500000Y-69500000D01*
X41127583Y-76869199D02*
X39498379Y-75239995D01*
X95516054Y-73316054D02*
X95500000Y-73300000D01*
X122350046Y-85192661D02*
X120954908Y-83797523D01*
X148095167Y-59671489D02*
X136750000Y-71016656D01*
X94949728Y-73300000D02*
X86465782Y-64816054D01*
X79238556Y-71984308D02*
X65975874Y-71984308D01*
X18504650Y-73518319D02*
X18504650Y-73261683D01*
X115416265Y-83797523D02*
X115416265Y-83766537D01*
X65975874Y-71984308D02*
X64561928Y-70570362D01*
X86406810Y-64816054D02*
X79238556Y-71984308D01*
X64561928Y-70570362D02*
X63491566Y-69500000D01*
X48130801Y-76869199D02*
X41127583Y-76869199D01*
X86465782Y-64816054D02*
X86406810Y-64816054D01*
X55500000Y-69500000D02*
X48130801Y-76869199D01*
X104965782Y-73316054D02*
X95516054Y-73316054D01*
X115416265Y-83766537D02*
X104965782Y-73316054D01*
X126292624Y-85192661D02*
X122350046Y-85192661D01*
X136750000Y-74735285D02*
X126292624Y-85192661D01*
%TO.N,Board_0-Row4_L*%
X148000000Y-75700000D02*
X148050000Y-75750000D01*
X133783902Y-119298263D02*
X133783902Y-114680590D01*
X130217921Y-114680590D02*
X129999256Y-114899256D01*
X148000000Y-74500000D02*
X148000000Y-75700000D01*
X129950000Y-114450000D02*
X129950000Y-114948512D01*
X129950000Y-114948512D02*
X129949256Y-114949256D01*
X129950000Y-114450000D02*
X130180590Y-114680590D01*
X145507055Y-131021416D02*
X133783902Y-119298263D01*
X129999256Y-114899256D02*
X129949256Y-114949256D01*
X98667897Y-99267897D02*
X97450640Y-100485155D01*
X121878204Y-108100000D02*
X117487936Y-103709732D01*
X127400000Y-111900000D02*
X129950000Y-114450000D01*
X129949256Y-114949256D02*
X121950000Y-122948511D01*
X133783902Y-114680590D02*
X130217921Y-114680590D01*
X130180590Y-114680590D02*
X130217921Y-114680590D01*
X100675217Y-103709732D02*
X97450640Y-100485155D01*
X117487936Y-103709732D02*
X100675217Y-103709732D01*
X123600000Y-108100000D02*
X121878204Y-108100000D01*
%TO.N,Board_0-RST_L*%
X156351489Y-39351489D02*
X155250000Y-38250000D01*
X163335167Y-39351489D02*
X156351489Y-39351489D01*
X155250000Y-33500000D02*
X146750000Y-25000000D01*
%TO.N,Board_0-LED_G_L*%
X166100000Y-49736322D02*
X163335167Y-46971489D01*
X166100000Y-65000000D02*
X166100000Y-49736322D01*
%TO.N,Board_0-LED_R_L*%
X165250000Y-68450000D02*
X165250000Y-51426322D01*
X165250000Y-51426322D02*
X163335167Y-49511489D01*
X166050000Y-69250000D02*
X165250000Y-68450000D01*
%TO.N,Board_0-LED_B_L*%
X164560167Y-63889833D02*
X164560167Y-53276489D01*
X163450000Y-65000000D02*
X164560167Y-63889833D01*
X164560167Y-53276489D02*
X163335167Y-52051489D01*
%TO.N,Board_0-Net-(D_L_44-A)*%
X101700000Y-98400000D02*
X99688133Y-100411867D01*
X99688133Y-100411867D02*
X99549360Y-100411867D01*
X104037768Y-89462232D02*
X101700000Y-91800000D01*
X101700000Y-91800000D02*
X101700000Y-98400000D01*
%TO.N,Board_0-Net-(D_L_26-A)*%
X37929191Y-46337126D02*
X37929191Y-51320809D01*
X33770566Y-55479434D02*
X29958206Y-55479434D01*
X37929191Y-51320809D02*
X33770566Y-55479434D01*
%TO.N,Board_0-Net-(D_L_24-A)*%
X81750000Y-46250000D02*
X77763801Y-50236199D01*
X81750000Y-40684612D02*
X81750000Y-46250000D01*
X77763801Y-50236199D02*
X74023090Y-50236199D01*
%TO.N,Board_0-Net-(D_R_21-A)*%
X214500000Y-64829626D02*
X214083644Y-65245982D01*
X215918971Y-55081029D02*
X214500000Y-56500000D01*
X215918971Y-53045313D02*
X215918971Y-55081029D01*
X214500000Y-56500000D02*
X214500000Y-64829626D01*
%TO.N,Board_0-Net-(LED1-BK)*%
X162000000Y-65550000D02*
X162550000Y-65000000D01*
X162000000Y-66920000D02*
X162000000Y-65550000D01*
%TO.N,Board_0-Net-(LED1-GK)*%
X167080000Y-65080000D02*
X167000000Y-65000000D01*
X167080000Y-66920000D02*
X167080000Y-65080000D01*
%TO.N,Board_0-Net-(LED1-RK)*%
X167080000Y-69380000D02*
X166950000Y-69250000D01*
X167080000Y-72000000D02*
X167080000Y-69380000D01*
%TO.N,Board_0-Net-(D_R_15-A)*%
X288500000Y-35300000D02*
X288500000Y-26894228D01*
X286909755Y-36890245D02*
X288500000Y-35300000D01*
X286894248Y-36890245D02*
X286909755Y-36890245D01*
X288500000Y-26894228D02*
X290332463Y-25061765D01*
%TO.N,Board_0-Net-(D_R_23-A)*%
X250000000Y-44900000D02*
X250000000Y-37500000D01*
X251597830Y-35902170D02*
X251597830Y-33556421D01*
X249056416Y-45901889D02*
X249056416Y-45843584D01*
X250000000Y-37500000D02*
X251597830Y-35902170D01*
X249056416Y-45843584D02*
X250000000Y-44900000D01*
%TO.N,Board_0-LED_G_R*%
X178664833Y-46971489D02*
X175950000Y-49686322D01*
X175950000Y-49686322D02*
X175950000Y-65000000D01*
%TO.N,Board_0-LED_B_R*%
X176500000Y-51676322D02*
X178664833Y-49511489D01*
X175450000Y-69500000D02*
X176500000Y-68450000D01*
X176500000Y-68450000D02*
X176500000Y-51676322D01*
%TO.N,Board_0-LED_R_R*%
X179450000Y-65000000D02*
X180500000Y-65000000D01*
X180500000Y-53886656D02*
X178664833Y-52051489D01*
X180500000Y-61000000D02*
X180500000Y-53886656D01*
%TO.N,Board_0-BAT_R*%
D106*
X199000000Y-69750000D02*
X199000000Y-41500000D01*
%TO.N,Board_0-RST_R*%
D105*
X201750000Y-31506322D02*
X201750000Y-25000000D01*
X193904833Y-39351489D02*
X201750000Y-31506322D01*
%TO.N,Board_0-Row1_R*%
X204919855Y-46130145D02*
X207458097Y-46130145D01*
X268300000Y-34500000D02*
X264350697Y-30550697D01*
X284805752Y-37105752D02*
X282200000Y-34500000D01*
X222400000Y-34600000D02*
X225445511Y-34600000D01*
X225453996Y-34591515D02*
X226762481Y-35900000D01*
X197750000Y-55826322D02*
X193904833Y-59671489D01*
X284805752Y-37109755D02*
X284805752Y-37105752D01*
X226762481Y-35900000D02*
X233100000Y-35900000D01*
X197750000Y-47250000D02*
X197750000Y-55826322D01*
X244082382Y-26082382D02*
X244018070Y-26082382D01*
X284805752Y-37109755D02*
X285995997Y-38300000D01*
X207458097Y-46130145D02*
X207458097Y-46158097D01*
X204750000Y-46120228D02*
X204909938Y-46120228D01*
X248550697Y-30550697D02*
X244082382Y-26082382D01*
X208300000Y-47000000D02*
X210000000Y-47000000D01*
X207458097Y-46158097D02*
X208300000Y-47000000D01*
X225445511Y-34600000D02*
X225453996Y-34591515D01*
X285995997Y-38300000D02*
X301113996Y-38300000D01*
X301113996Y-38300000D02*
X304950640Y-34463356D01*
X242917618Y-26082382D02*
X244018070Y-26082382D01*
X282200000Y-34500000D02*
X268300000Y-34500000D01*
X264350697Y-30550697D02*
X248550697Y-30550697D01*
X233100000Y-35900000D02*
X242917618Y-26082382D01*
X204909938Y-46120228D02*
X204919855Y-46130145D01*
X210000000Y-47000000D02*
X222400000Y-34600000D01*
%TO.N,Board_0-Row2_R*%
X206400000Y-65700000D02*
X206600000Y-65700000D01*
X212046022Y-65754018D02*
X213392004Y-67100000D01*
X206600000Y-65700000D02*
X206654018Y-65754018D01*
X213392004Y-67100000D02*
X216078255Y-67100000D01*
X206654018Y-65754018D02*
X212046022Y-65754018D01*
X286620528Y-56920528D02*
X291540172Y-56920528D01*
X229161728Y-54398553D02*
X238856318Y-54398553D01*
X216078255Y-67100000D02*
X228970715Y-54207540D01*
X228970715Y-54207540D02*
X229161728Y-54398553D01*
X238856318Y-54398553D02*
X246988320Y-46266551D01*
X291540172Y-56920528D02*
X292719644Y-58100000D01*
X282800000Y-53100000D02*
X286620528Y-56920528D01*
X267976910Y-50236199D02*
X270840711Y-53100000D01*
X250957968Y-50236199D02*
X267976910Y-50236199D01*
X309421228Y-58100000D02*
X312041794Y-55479434D01*
X292719644Y-58100000D02*
X309421228Y-58100000D01*
X270840711Y-53100000D02*
X282800000Y-53100000D01*
X246988320Y-46266551D02*
X250957968Y-50236199D01*
%TO.N,Board_0-Row4_R*%
X222608818Y-106191182D02*
X212800000Y-116000000D01*
X184650000Y-75500000D02*
X184650000Y-76365000D01*
X222608818Y-104597230D02*
X222608818Y-106191182D01*
X212900000Y-116500000D02*
X212800000Y-116400000D01*
X226202770Y-104597230D02*
X222608818Y-104597230D01*
X206700000Y-123065066D02*
X206700000Y-116300334D01*
X195507055Y-132875606D02*
X195582661Y-132800000D01*
X212600000Y-116200000D02*
X206800334Y-116200000D01*
X212800000Y-116000000D02*
X212800000Y-116400000D01*
X217950000Y-121550000D02*
X212900000Y-116500000D01*
X230388133Y-100411867D02*
X226202770Y-104597230D01*
X217950000Y-122948511D02*
X217950000Y-121550000D01*
X180000000Y-81015000D02*
X180000000Y-83000000D01*
X202882533Y-126882533D02*
X206700000Y-123065066D01*
X196965066Y-132800000D02*
X202882533Y-126882533D01*
X206800334Y-116200000D02*
X206783902Y-116216432D01*
X184700000Y-68600000D02*
X184650000Y-68650000D01*
X195582661Y-132800000D02*
X196965066Y-132800000D01*
X184650000Y-68650000D02*
X184650000Y-75500000D01*
X206700000Y-116300334D02*
X206783902Y-116216432D01*
X242450640Y-100411867D02*
X230388133Y-100411867D01*
X184650000Y-76365000D02*
X180000000Y-81015000D01*
X212800000Y-116400000D02*
X212700000Y-116300000D01*
X212800000Y-116000000D02*
X212600000Y-116200000D01*
X212700000Y-116300000D02*
X212600000Y-116200000D01*
%TO.N,Board_0-Row3_R*%
X245048628Y-73999748D02*
X253548628Y-65499748D01*
X219084574Y-84915426D02*
X219084574Y-84550095D01*
X284837373Y-70823726D02*
X286423726Y-70823726D01*
X259388894Y-71340014D02*
X275484196Y-71340014D01*
X275544182Y-71400000D02*
X284186116Y-71400000D01*
X224498281Y-84550095D02*
X235048628Y-73999748D01*
X300637191Y-76206383D02*
X319719600Y-76206383D01*
X284186116Y-71400000D02*
X284321085Y-71340014D01*
X291806383Y-76206383D02*
X300637191Y-76206383D01*
X275484196Y-71340014D02*
X275544182Y-71400000D01*
X284321085Y-71340014D02*
X284837373Y-70823726D01*
X286423726Y-70823726D02*
X291806383Y-76206383D01*
X217040336Y-86959664D02*
X219084574Y-84915426D01*
X217000000Y-86959664D02*
X217040336Y-86959664D01*
X219084574Y-84550095D02*
X224498281Y-84550095D01*
X253548628Y-65499748D02*
X259388894Y-71340014D01*
X235048628Y-73999748D02*
X245048628Y-73999748D01*
X319719600Y-76206383D02*
X321654224Y-74271759D01*
%TO.N,Board_0-Net-(D_L_21-A)*%
X133250000Y-62457996D02*
X133250000Y-59695622D01*
X133250000Y-59695622D02*
X137142400Y-55803222D01*
X129953978Y-65754018D02*
X133250000Y-62457996D01*
%TO.N,Board_0-Net-(D_R_26-A)*%
X314900490Y-46099510D02*
X314000000Y-47000000D01*
X314000000Y-47000000D02*
X314000000Y-54786794D01*
X314900490Y-42776507D02*
X314900490Y-46099510D01*
X314000000Y-54786794D02*
X314036736Y-54823530D01*
%TO.N,Board_0-Net-(D_R_14-A)*%
X266509755Y-30390245D02*
X267500000Y-29400000D01*
X267500000Y-29400000D02*
X267500000Y-20210550D01*
X267500000Y-20210550D02*
X269547296Y-18163254D01*
X266509081Y-30390245D02*
X266509755Y-30390245D01*
%TO.N,Board_0-Net-(D_R_25-A)*%
X295811137Y-44311137D02*
X297500000Y-46000000D01*
X295404786Y-56345214D02*
X293559828Y-56345214D01*
X297500000Y-54250000D02*
X295404786Y-56345214D01*
X297500000Y-46000000D02*
X297500000Y-54250000D01*
%TO.N,Board_0-Net-(D_L_31-A)*%
X122915426Y-84384574D02*
X122915426Y-84550095D01*
X131408213Y-75891787D02*
X122915426Y-84384574D01*
X131504875Y-75891787D02*
X131408213Y-75891787D01*
%TO.N,Board_0-Net-(D_L_13-A)*%
X99667618Y-26082382D02*
X97981930Y-26082382D01*
X104000000Y-15689472D02*
X104000000Y-21750000D01*
X104000000Y-21750000D02*
X99667618Y-26082382D01*
%TO.N,Board_0-Net-(D_L_16-A)*%
X39250000Y-24996409D02*
X39250000Y-31717776D01*
X41418974Y-22827435D02*
X39250000Y-24996409D01*
X37049360Y-33918416D02*
X37049360Y-34463356D01*
X39250000Y-31717776D02*
X37049360Y-33918416D01*
%TO.N,Board_0-Net-(D_L_32-A)*%
X111500252Y-73999748D02*
X114923506Y-70576494D01*
X114923506Y-70576494D02*
X114923506Y-64538613D01*
X106951372Y-73999748D02*
X111500252Y-73999748D01*
%TO.N,Board_0-Net-(D_R_24-A)*%
X270500000Y-49300000D02*
X270500000Y-41500000D01*
X270500000Y-41500000D02*
X271966395Y-40033605D01*
X270036199Y-49763801D02*
X270500000Y-49300000D01*
X271966395Y-40033605D02*
X271966395Y-37511592D01*
X270023090Y-49763801D02*
X270036199Y-49763801D01*
%TO.N,Board_0-Net-(D_L_11-A)*%
X140503638Y-35245347D02*
X137250000Y-38498985D01*
X137250000Y-43422048D02*
X134541903Y-46130145D01*
X137250000Y-38498985D02*
X137250000Y-43422048D01*
%TO.N,Board_0-Net-(D_L_43-A)*%
X119391182Y-104597230D02*
X124502770Y-104597230D01*
X128381107Y-100718893D02*
X128381107Y-96343268D01*
X124502770Y-104597230D02*
X128381107Y-100718893D01*
%TO.N,Board_0-Net-(D_R_44-A)*%
X246600000Y-92042736D02*
X246600000Y-98434515D01*
X246600000Y-98434515D02*
X244549360Y-100485155D01*
X249355287Y-89287449D02*
X246600000Y-92042736D01*
%TO.N,Board_0-Net-(D_R_32-A)*%
X237100000Y-61582540D02*
X237100000Y-73250272D01*
X237100000Y-73250272D02*
X237034218Y-73316054D01*
X237855405Y-60827135D02*
X237100000Y-61582540D01*
%TO.N,Board_0-Net-(D_L_15-A)*%
X63005086Y-26253391D02*
X59750000Y-29508477D01*
X59750000Y-29508477D02*
X59750000Y-34554003D01*
X59750000Y-34554003D02*
X57194248Y-37109755D01*
%TD*%
M02*
